<svg width="192" height="192" viewBox="0 0 192 192" fill="none" xmlns="http://www.w3.org/2000/svg">
<path d="M150.43 160L133.46 143.03L150.43 126.06L167.4 143.03C172.09 147.72 172.09 155.31 167.4 160C162.71 164.69 155.12 164.69 150.43 160Z" fill="#062B4B"/>
<path d="M108.49 73.63C115.57 80.21 120 89.59 120 100C120 115.64 109.97 128.98 96 133.94C99.76 135.27 103.79 136 108 136C127.23 136 142.99 120.84 143.95 101.85C143.97 101.23 144 100.62 144 100C144 99.38 143.97 98.75 143.95 98.12C143.13 82.2 131.92 68.99 116.99 65.13L108.5 73.62L99.82 64.94C99.76 64.95 99.7 64.97 99.65 64.98C103.14 68.47 106.42 71.7 108.49 73.63Z" fill="#31B5FF"/>
<path d="M84 16L42.51 56.64L42.55 56.68C31.13 67.61 24 82.98 24 100C24 133.08 50.92 160 84 160C88.11 160 92.12 159.58 96 158.79C69.23 153.33 48.91 130 48.05 101.85C48.02 101.24 48 100.62 48 100C48 89.93 50.51 80.44 54.91 72.1L57.64 75.5L84 49.12L108.49 73.63L125.45 56.67L125.49 56.63L84 15.99V16Z" fill="#31B5FF"/>
<path opacity="0.2" d="M24.01 100.51C24.15 83.69 31.24 68.51 42.55 57.68L42.51 57.64L84 17L124.98 57.14L125.44 56.68L125.48 56.64L83.99 16L42.5 56.64L42.54 56.68C31.12 67.61 23.99 82.98 23.99 100C23.99 100.17 24 100.34 24 100.51H24.01Z" fill="white"/>
<path d="M143.95 101.85C142.98 120.84 127.23 136 108 136C103.79 136 99.76 135.27 96 133.94C92.24 135.27 88.21 136 84 136C64.77 136 49.01 120.84 48.05 101.85C48.91 130 69.24 153.34 96 158.79C122.77 153.33 143.09 130 143.95 101.85Z" fill="#31B5FF"/>
<path d="M108 40C85.79 40 66.37 52.14 56 70.13C50.92 78.93 48 89.13 48 100C48 100.62 48.03 101.23 48.05 101.85C49.02 120.84 64.77 136 84 136C88.21 136 92.24 135.27 96 133.94C82.03 128.99 72 115.65 72 100C72 83.03 83.81 68.77 99.65 64.99C99.71 64.98 99.77 64.96 99.82 64.95C102.45 64.34 105.19 64 108 64C111.1 64 114.12 64.39 116.99 65.14C131.92 68.99 143.13 82.21 143.95 98.13C143.98 98.75 144 99.38 144 100.01C144 100.64 143.98 101.25 143.95 101.86C143.09 130.01 122.76 153.35 96 158.8C99.88 159.59 103.89 160.01 108 160.01C141.08 160.01 168 133.09 168 100.01C168 66.93 141.08 40.01 108 40.01V40Z" fill="#062B4B"/>
<path opacity="0.2" d="M143.95 97.12C143.13 81.2 131.92 67.99 116.99 64.13C114.12 63.39 111.1 62.99 108 62.99C105.19 62.99 102.45 63.33 99.82 63.94C99.76 63.95 99.7 63.97 99.65 63.98C83.82 67.76 72 82.02 72 98.99C72 99.16 72 99.34 72.01 99.51C72.23 82.75 83.96 68.72 99.65 64.98C99.71 64.97 99.77 64.95 99.82 64.94C102.45 64.33 105.19 63.99 108 63.99C111.1 63.99 114.12 64.38 116.99 65.13C131.92 68.98 143.13 82.2 143.95 98.12C143.97 98.58 143.98 99.04 143.99 99.51C143.99 99.34 144 99.17 144 99C144 98.37 143.98 97.74 143.95 97.12Z" fill="black"/>
<path opacity="0.2" d="M158.19 132.82C164.38 123.38 168 112.1 168 100C168 99.86 168 99.72 167.99 99.57C167.88 111.72 164.14 123.02 157.8 132.43L158.19 132.82Z" fill="black"/>
<path opacity="0.2" d="M167.4 159C162.71 163.69 155.12 163.69 150.43 159L140.7 149.27C131.29 155.41 120.06 159 108 159C104.76 159 101.58 158.73 98.47 158.23C97.65 158.43 96.83 158.62 96 158.79C99.88 159.58 103.89 160 108 160C120.06 160 131.28 156.41 140.7 150.27L150.43 160C155.12 164.69 162.71 164.69 167.4 160C169.87 157.53 171.03 154.25 170.89 151.01C170.77 153.91 169.61 156.78 167.4 159Z" fill="black"/>
<path opacity="0.2" d="M56 71.13C66.37 53.14 85.79 41 108 41C140.92 41 167.72 67.65 167.99 100.5C167.99 100.33 168 100.17 168 100C168 66.92 141.08 40 108 40C85.79 40 66.37 52.14 56 70.13C50.92 78.93 48 89.13 48 100C48 100.13 48 100.27 48.01 100.4C48.12 89.75 51.02 79.77 56 71.13Z" fill="white"/>
<path opacity="0.3" d="M48.05 102.85C49.02 121.84 64.77 137 84 137C88.21 137 92.24 136.27 96 134.94C109.97 129.99 120 116.65 120 101C120 100.86 120 100.71 119.99 100.57C119.75 115.97 109.8 129.04 96 133.94C92.24 135.27 88.21 136 84 136C64.77 136 49.01 120.84 48.05 101.85C48.03 101.36 48.02 100.87 48.01 100.38C48.01 100.59 48.01 100.79 48.01 101C48.01 101.62 48.03 102.24 48.06 102.85H48.05Z" fill="white"/>
</svg>
