<svg width="30" height="41" viewBox="0 0 30 41" fill="none" xmlns="http://www.w3.org/2000/svg">
<g clip-path="url(#clip0_2_18)">
<ellipse cx="15" cy="34.5" rx="15" ry="6.5" fill="url(#paint0_radial_2_18)"/>
<path d="M17.6943 33.8923C16.9717 34.6028 16.0057 35 15.0003 35C13.9949 35 13.029 34.6028 12.3062 33.8923C5.68778 27.3455 -3.18174 20.0321 1.14367 9.41441C3.48236 3.67353 9.09629 0 15.0003 0C20.9043 0 26.5183 3.67353 28.857 9.41441C33.1769 20.0188 24.3292 27.3681 17.6943 33.8923Z" fill="#FF0000"/>
<path d="M17.6943 33.8923C16.9717 34.6028 16.0057 35 15.0003 35C13.9949 35 13.029 34.6028 12.3062 33.8923C5.68778 27.3455 -3.18174 20.0321 1.14367 9.41441C3.48236 3.67353 9.09629 0 15.0003 0C20.9043 0 26.5183 3.67353 28.857 9.41441C33.1769 20.0188 24.3292 27.3681 17.6943 33.8923Z" fill="white" fill-opacity="0.2"/>
<path d="M17.6943 33.9239C16.9717 34.6141 16.0057 35 15.0003 35C13.9949 35 13.029 34.6141 12.3062 33.9239C5.68778 27.5642 -3.18174 20.4597 1.14367 10.1454C3.48236 4.56857 9.09629 1 15.0003 1C20.9043 1 26.5183 4.56857 28.857 10.1454C33.1769 20.4468 24.3292 27.5861 17.6943 33.9239Z" fill="#FF0000"/>
<circle cx="15" cy="15" r="7" fill="white"/>
</g>
<defs>
<radialGradient id="paint0_radial_2_18" cx="0" cy="0" r="1" gradientUnits="userSpaceOnUse" gradientTransform="translate(15 34.5) rotate(90) scale(6.5 15)">
<stop offset="0.15" stop-color="#4D4D4D" stop-opacity="0.8"/>
<stop offset="1" stop-color="white" stop-opacity="0"/>
</radialGradient>
<clipPath id="clip0_2_18">
<rect width="30" height="41" fill="white"/>
</clipPath>
</defs>
</svg>
