<?xml version="1.0" encoding="utf-8"?>
<!-- Generator: Adobe Illustrator 27.2.0, SVG Export Plug-In . SVG Version: 6.00 Build 0)  -->
<svg version="1.1" id="_x3C_Layer_x3E_" xmlns="http://www.w3.org/2000/svg" xmlns:xlink="http://www.w3.org/1999/xlink" x="0px"
	 y="0px" viewBox="0 0 3000 2144.2" style="enable-background:new 0 0 3000 2144.2;" xml:space="preserve">
<style type="text/css">
	.st0{clip-path:url(#SVGID_00000060025785793501932580000011824904713624325783_);fill:#DFF0FF;}
	.st1{clip-path:url(#SVGID_00000060025785793501932580000011824904713624325783_);}
	.st2{fill:#FFCFBF;}
	.st3{fill:#FF8F65;}
	.st4{fill:#080435;}
	.st5{fill:#B8E3FF;}
	.st6{fill:#78CEFF;}
	.st7{fill:#49B2A4;}
	.st8{fill:#FDBAA0;}
	.st9{opacity:0.6;}
	.st10{fill:#FFE1DA;}
	.st11{fill:#E9F4F6;}
	.st12{fill:#81C7D3;}
	.st13{fill:#E79780;}
	.st14{fill:#FFD1C3;}
	.st15{fill:#DB5E45;}
	.st16{fill:#FF8D67;}
	.st17{fill:#F46C4B;}
	.st18{fill:#00ADC8;}
	.st19{fill:#2297B8;}
	.st20{fill:#63D5C2;}
	.st21{fill:#40A696;}
	.st22{fill:#E8A595;}
	.st23{fill:#1D1C66;}
</style>
<g>
	<defs>
		<rect id="SVGID_1_" width="3000" height="2144.2"/>
	</defs>
	<clipPath id="SVGID_00000176026878438161857800000018381919282131679668_">
		<use xlink:href="#SVGID_1_"  style="overflow:visible;"/>
	</clipPath>
	
		<rect style="clip-path:url(#SVGID_00000176026878438161857800000018381919282131679668_);fill:#DFF0FF;" width="3000" height="2144.2"/>
	<g style="clip-path:url(#SVGID_00000176026878438161857800000018381919282131679668_);">
		<g>
			<path class="st2" d="M1919.7,1864.8c-9.4,44.2-355.3,45.9-382.9,0c-4.6-7.6-8.2-21.8-11.5-40.3c-15.6-87.5-23.3-273-80.4-332.3
				c0,0,0,0,0,0c-3.9-4-8-7.5-12.4-10.3c-186.8-119.4-159.7-345.4-159.7-345.4l492.3,92.9
				C1757.4,1319.7,1929.1,1820.6,1919.7,1864.8z"/>
		</g>
		<g>
			<path class="st2" d="M1744.3,1301.6c-35.7,57.4-97.2-105.2-96.3-170.1c0.6-43.9-8-86.3-14.4-113.3
				c-12.1-50.9-14.3-98.6,22.2-112.9c14.9-5.9,21.8-3.3,27,8c4.4,9.4,7.7,24.9,13.6,46.5c4.4,15.8,10.1,35,18.9,57.6
				C1750.1,1107.5,1798.5,1214.4,1744.3,1301.6z"/>
		</g>
		<g>
			<g>
				<path class="st3" d="M1365.7,594.3l13.4-45.6c0.9-3,3.8-5,7-4.8l9.9,0.8c3,0.3,5.5,2.5,6,5.5l6.9,41.3L1365.7,594.3z"/>
			</g>
			<g>
				<path class="st4" d="M1517.1,627.7L1265.2,670l-8.7-51.7c-1.4-8.4,4.7-16.2,13.2-16.8l226.8-17.1c7.5-0.6,14.1,4.7,15.4,12
					L1517.1,627.7z"/>
			</g>
			<g>
				<path class="st5" d="M1591,859.2c8.6-6.7,13.4-17.8,11.4-29.3L1577.2,680c-2.8-16.7-18.5-28.7-35.3-25.8
					c-10.9,1.9-21.3-5.4-23.2-16.4l-1.7-10.1L1265.2,670l2.2,12.9c1.6,9.5-5,18.2-14.5,19.8c-16.6,2.8-27.9,18.6-25.1,35.3
					l25.3,150.6c1.8,11,9.3,19.6,18.9,23.4c10.6,4.2,18.4,13.6,20.2,24.9l4.2,25.3c2,11.7-2.6,23.3-11.4,31.3
					c-7.5,6.8-11.5,17.1-9.7,27.9l72.8,433.9c2.8,16.7,18.6,28,35.3,25.1l0,0l288.8-48.5l0,0c16.7-2.8,27.9-18.6,25.1-35.3
					l-72.8-433.9c-1.9-11.1-9.4-19.7-19.2-23.5c-10.5-4.1-18.1-13.4-20-24.6l-4.9-29.3C1579,875.4,1583,865.4,1591,859.2z"/>
			</g>
			<g>
				<path class="st6" d="M1673.9,1383c-1.4,11.9-10.3,21.9-22.3,23.9l-255.9,43c-14.8,2.5-28.8-7.9-31.4-23.2l-66.8-397.7
					c-0.5-3.1-0.5-6.2-0.1-9.2c0,0,0,0,0-0.2c0.8-3,14.7-44.9,142.4,3.4c82.4,31.2,144.3,31,179.3,26.5l54.6,325.1
					C1674.2,1377.5,1674.3,1380.3,1673.9,1383z"/>
			</g>
			<g>
				
					<rect x="1225.4" y="707.9" transform="matrix(0.9862 -0.1656 0.1656 0.9862 -97.9849 242.0092)" class="st7" width="354.2" height="1.7"/>
			</g>
			<g>
				
					<rect x="1251.7" y="864.7" transform="matrix(0.9862 -0.1653 0.1653 0.9862 -123.4292 248.1189)" class="st7" width="354.2" height="1.7"/>
			</g>
			<g>
				
					<rect x="1273.6" y="995" transform="matrix(0.9862 -0.1653 0.1653 0.9862 -144.6669 253.5137)" class="st7" width="354.2" height="1.7"/>
			</g>
			<g>
				
					<rect x="1337.1" y="1373" transform="matrix(0.9862 -0.1653 0.1653 0.9862 -206.288 269.2358)" class="st7" width="354.2" height="1.7"/>
			</g>
		</g>
		<g>
			<g>
				<g>
					<path class="st2" d="M1237.5,1015.7c39.1,0.1,78.6,4.2,76.9,50.6c-1.7,46.2-84,45.8-97.5,11
						C1209.9,1059.2,1206.1,1015.6,1237.5,1015.7z"/>
				</g>
				<g>
					<path class="st8" d="M1235,1041.6c0,0-2.6,23.7,4,30.6c6.6,6.9,28.3,13.8,30.4,11.8c2.1-2-2.2-13.4-1.3-27.4
						c0.7-10.9,8.4-21.7,2.8-24.4C1265.3,1029.7,1236.4,1033.4,1235,1041.6z"/>
				</g>
			</g>
			<g>
				<g>
					<path class="st2" d="M1226.5,1094c42.5-1.9,85.5,0.4,86,50.5c0.5,49.8-88.8,53.7-105.3,16.9
						C1198.7,1142.2,1192.4,1095.5,1226.5,1094z"/>
				</g>
				<g>
					<path class="st8" d="M1223.1,1124.9c0,0-3.9,21.8,3.6,28.9c7.5,7.1,35.8,14.4,38,12.1c2.2-2.3-3.1-14.3-2.9-29.4
						c0.2-11.8,8-23.8,1.8-26.4C1257.4,1107.6,1224.1,1115.9,1223.1,1124.9z"/>
				</g>
			</g>
			<g>
				<g>
					<path class="st2" d="M1264.4,1170.1c40.3,3.2,80.5,10.5,75.1,58.1c-5.4,47.4-90.1,40.5-101.2,3.6
						C1232.5,1212.6,1232,1167.4,1264.4,1170.1z"/>
				</g>
				<g>
					<path class="st8" d="M1259.1,1199.6c0,0-6,22.6,0.3,30.2s30.1,15.1,32.4,13.2c2.3-1.9-1.2-13.9,0.8-28.2
						c1.6-11.2,10.3-21.7,4.8-24.9C1291.8,1186.6,1261.2,1191.1,1259.1,1199.6z"/>
				</g>
			</g>
			<g>
				<g>
					<path class="st2" d="M1289,1246.9c31.2,3.2,62.3,9.5,57.4,46.4c-5,36.7-70.6,29.9-78.6,1.1
						C1263.5,1279.5,1263.9,1244.4,1289,1246.9z"/>
				</g>
				<g>
					<path class="st8" d="M1284,1269c0,0-3.3,16.1,1.4,22.2c4.7,6.1,21.8,14.3,23.7,12.8c1.8-1.4-0.7-10.8,1.1-21.9
						c1.4-8.7,8.4-16.7,4.1-19.2C1310,1260.3,1285.8,1262.5,1284,1269z"/>
				</g>
			</g>
			<g>
				<path class="st8" d="M1283.9,1100.4c-0.1,0-0.2,0-0.2,0c-16.7-5.3-51.5-5.8-51.8-5.8c-0.4,0-0.8-0.4-0.8-0.8
					c0-0.4,0.3-0.8,0.8-0.8c0,0,0,0,0,0c0.4,0,35.4,0.6,52.3,5.9c0.4,0.1,0.6,0.6,0.5,1C1284.5,1100.2,1284.2,1100.4,1283.9,1100.4z
					"/>
			</g>
			<g>
				<path class="st8" d="M1240.1,1184.7c-0.4,0-0.8-0.3-0.8-0.7c0-0.4,0.3-0.8,0.7-0.8c0.5,0,46-1.6,56.5-9.3
					c0.3-0.2,0.8-0.2,1.1,0.2c0.3,0.3,0.2,0.8-0.2,1.1C1286.6,1183.1,1242,1184.7,1240.1,1184.7
					C1240.1,1184.7,1240.1,1184.7,1240.1,1184.7z"/>
			</g>
			<g>
				<path class="st8" d="M1293.2,1259.8c-12.4,0-23.8-1.1-24.7-1.2c-0.4,0-0.7-0.4-0.7-0.8c0-0.4,0.4-0.7,0.8-0.7
					c0.4,0,44.8,4.5,54.1-3.9c0.3-0.3,0.8-0.3,1.1,0.1c0.3,0.3,0.3,0.8-0.1,1.1C1318.9,1258.7,1305.5,1259.8,1293.2,1259.8z"/>
			</g>
		</g>
		<g>
			<path class="st8" d="M1696.4,959.7c-1,1.4-2.4,2.6-4.3,3.3c-18.3,7.2-24.2-20.3-28.4-34.5c-4.2-14.1,19.1-15.4,19.1-15.4
				C1687.2,922.6,1690.4,938.1,1696.4,959.7z"/>
		</g>
		<g class="st9">
			<path class="st10" d="M1525.3,1824.5c-15.6-87.5-23.3-273-80.4-332.3c1.5,0.4,99.4,25.2,104,87.8c4.6,63.2-11.6,119.5,9.1,163.1
				C1577,1783.1,1558.4,1823.9,1525.3,1824.5z"/>
		</g>
		<g>
			<path class="st8" d="M1480.2,1492.3c-19.3,0-41.2-3-48.7-9.2l2-2.4c12.2,10.1,86.6,17.5,137.5-16.9l1.7,2.5
				c-30.5,20.6-66.5,25-85.3,25.7C1485,1492.2,1482.6,1492.3,1480.2,1492.3z"/>
		</g>
		<g>
			<path class="st8" d="M1716.5,1400.1c-0.5,0-0.9-0.2-1.2-0.6c-0.5-0.7-0.4-1.6,0.3-2.1c45.7-33.7,57.5-91.1,57.6-91.6
				c0.2-0.8,1-1.4,1.8-1.2c0.8,0.2,1.4,1,1.2,1.8c-0.1,0.6-12.2,59.1-58.8,93.5C1717.1,1400,1716.8,1400.1,1716.5,1400.1z"/>
		</g>
		<g>
			<path class="st3" d="M1508.6,2498.4c0,0-26.6-714.7-37.6-795.8c-11-81.2,26.2-56.7,124.8-38.3c98.6,18.4,227.2-137.8,273.2-110.3
				c45.9,27.6,10.5,97.5,51.2,169s194.2,649,162,681.2S1506.3,2524.1,1508.6,2498.4z"/>
		</g>
		<g>
			<g>
				<path class="st11" d="M1537.3,715.1c15.4,31.8,21.6,66.2,19.4,101.3c-0.7,11,16.3,10,17-0.8c2.5-38.3-5.3-75.2-22-109.6
					C1546.9,696.1,1532.5,705.3,1537.3,715.1L1537.3,715.1z"/>
			</g>
		</g>
		<g>
			<g>
				<path class="st12" d="M1308.5,612.1c-12.5,3.9-23.1,11.1-31.6,21c-4.9,5.7,4.2,13.1,9.1,7.4c7.2-8.4,16.1-14.1,26.6-17.4
					C1319.8,620.8,1315.7,609.9,1308.5,612.1L1308.5,612.1z"/>
			</g>
		</g>
	</g>
	<g style="clip-path:url(#SVGID_00000176026878438161857800000018381919282131679668_);">
		<g>
			<g>
				<path class="st8" d="M434.8,1391.4c0,0-56.2-15.1-72-84c-15.8-68.9,8-132.4,36.8-171.4c47.3-64.1,117.3-62.9,113.6-31.7
					c-2.1,17.3,31.7,52.4,40.9,46.3C597.5,1122,582.4,1414.5,434.8,1391.4z"/>
				<g>
					<path class="st8" d="M761.4,1076.5c0,0,3.8,28.1,5.9,67.8c0.1,2.6,0.3,5.3,0.4,8c0,0.3,0,0.6,0,0.9c0.9,20,1.2,42.4,0.3,65.5
						c0,0.4,0,0.7,0,1.1c-1.9,48.4-8.9,99.2-27,135l0,0c-8.8,14.3-19.2,28.4-31.5,42.2c-3,3.3-5.6,7.1-7.8,11.3c0,0,0,0,0,0
						c-8.7,16.1-12.6,38.5-13.6,64c-0.9,23.1,0.6,48.9,3.3,75.1c1.8,17.2,4,34.7,6.4,51.6L390.2,1734c-0.2-22.3-0.2-47.5,0-74.5
						c0.2-34.6,0.6-72.1,0.8-109.8c0-4.7,0.1-9.5,0.1-14.2c0-5.8,0.1-11.7,0.1-17.5c0-1.4,0-2.9,0-4.3c0.1-11.1,0.1-22,0.1-32.9
						c0-12.5-0.1-24.8-0.2-36.9c0-1.9,0-3.8,0-5.7c0-1,0-2,0-3c0-3-0.1-6.1-0.1-9.1c-0.1-7.5-0.2-14.9-0.4-22.2c0-1.1,0-2.2-0.1-3.3
						c0-0.9,0-1.9-0.1-2.8c0-0.6,0-1.2,0-1.8c-0.1-3.1-0.1-6.2-0.2-9.2c0-0.8,0-1.6-0.1-2.4c-0.2-7.2-0.4-14.3-0.7-21.1l0,0
						c0-0.8-0.1-1.5-0.1-2.3c0,0,0,0,0,0c0-0.1,0-0.2,0-0.3c0-0.1,0-0.2,0-0.2l0,0c-0.4-10.4-0.9-20.3-1.6-29.5
						c-2-29.9-5-52.9-9.6-65.1l78.7-38.9l2.3-1.1l10.6-5.2l42.7-21.1l45.2-22.3l12-5.9l3.6-1.8l-9.1-29.4l56,6.3l23-11.4l2.4-1.2
						l4.1-2l80.9-40l5.4-2.7l12.8-6.4l0,0L761.4,1076.5z"/>
				</g>
				<g>
					<g>
						<path class="st13" d="M704.3,1403.6c-23.3,19.8-53.9,30.4-84.4,28.8c-2.3-0.1-2.3-3.7,0-3.6c29.6,1.5,59.3-8.5,81.9-27.7
							C703.5,1399.6,706.1,1402.1,704.3,1403.6L704.3,1403.6z"/>
					</g>
				</g>
				<g>
					<path class="st14" d="M391.1,1535.5c30.8-8.7,19.2-50.1,26.4-87.1c6.7-34.7-18.4-55.3-27.3-61.4
						C391.4,1431.6,391.4,1483.4,391.1,1535.5z"/>
				</g>
				<g>
					<g>
						<path class="st3" d="M434.9,1468c7.5,2.2,15.1,4.3,22.6,6.5c4.8,1.4,2.8,8.8-2,7.4c-7.5-2.2-15.1-4.3-22.6-6.5
							C428.2,1474.1,430.1,1466.7,434.9,1468L434.9,1468z"/>
					</g>
				</g>
				<g>
					<g>
						<path class="st13" d="M391.7,1360.6c22.6,20.1,48.9,36.1,77.2,46.9c7.9,3,16,5.6,24.3,7.8c2.2,0.6,1.3,4.1-0.9,3.5
							c-29.7-8-57.9-21.4-82.8-39.4c-7-5.1-13.8-10.5-20.2-16.3C387.5,1361.6,390,1359,391.7,1360.6L391.7,1360.6z"/>
					</g>
				</g>
				<g>
					<rect x="335.6" y="1048.2" class="st15" width="549.7" height="111"/>
					
						<rect x="113.6" y="929.6" transform="matrix(-1 -1.224647e-16 1.224647e-16 -1 450.0626 2208.8152)" class="st16" width="222.8" height="349.6"/>
					
						<rect x="275.1" y="929.6" transform="matrix(-1 -1.224647e-16 1.224647e-16 -1 611.5206 2208.8152)" class="st17" width="61.3" height="349.6"/>
					
						<rect x="194.6" y="929.6" transform="matrix(-1 -1.224647e-16 1.224647e-16 -1 450.4407 2208.8152)" class="st17" width="61.3" height="349.6"/>
					
						<rect x="114.9" y="929.6" transform="matrix(-1 -1.224647e-16 1.224647e-16 -1 291.0744 2208.8152)" class="st17" width="61.3" height="349.6"/>
				</g>
				<path class="st8" d="M357.8,1255.8c-2-51,12.6-172.3,33.1-215.1c38.3-80,32.1-162.7,44.6-169.3c12.5-6.6,53.7,14.2,60.3,84.8
					c6.5,69.7-25.7,124.6-22.1,139c3.6,14.4,22.2,78.3,22.2,78.3S359.4,1295.4,357.8,1255.8z"/>
				<g>
					<path class="st15" d="M886.1,1144.7H750.7c0,0,9.2-30,10.5-40.3c1.5-11.3-2.3-45.4-2.3-45.4h127.2V1144.7z"/>
					<rect x="885.2" y="929.6" class="st16" width="222.8" height="349.6"/>
					<rect x="885.2" y="929.6" class="st17" width="61.3" height="349.6"/>
					<rect x="965.8" y="929.6" class="st17" width="61.3" height="349.6"/>
					<rect x="1045.4" y="929.6" class="st17" width="61.3" height="349.6"/>
				</g>
				<g>
					<path class="st13" d="M495,1171.6c6,14.7,13.8,28.6,23.6,41.1c10.2,13.1,22.2,24.2,29.5,39.3c6.7,13.9,11.3,29.2,14.8,44.2
						c3.2,13.8,5.3,28,5.3,42.1c0,15.8-2.6,31.5-8.5,46.2c-1.2,3,3.4,4.8,4.7,1.8c10.7-26.4,10.6-55.5,5.1-83.2
						c-2.9-14.5-7-28.9-12.3-42.7c-6.2-16-15.4-28.6-26.7-41.3c-13.1-14.9-23.6-31.3-31.1-49.7
						C498.4,1166.6,493.8,1168.6,495,1171.6L495,1171.6z"/>
				</g>
				<g>
					<path class="st8" d="M539.5,1123.5c-2.8-7.6-10.6-5.9-4.9-21.5c12.5-55.8,39.7-107.1,68.3-156.5c11.9-20.6,25.2-42,46.2-53
						c21.1-11,52.1-6.3,61.6,15.5c7,16.1,0.3,34.6-6.6,50.7c-25.7,60.1-55.1,101.5-93.7,154.3c-10,13.6-23.7,24.5-40.5,26.6
						C553.2,1141.8,545.3,1139.4,539.5,1123.5z"/>
					<path class="st8" d="M672.3,973.4c1.9-24.6,26.1-43.6,48-55c21.9-11.4,54.2-6.6,64,16.1c7.3,16.7,0.3,35.9-6.9,52.7
						c-26.7,62.4-62,89.4-102.1,144.2c-10.4,14.2-29.5,34.6-42.1,31.8c-34.9-7.7-19.8-54.4,23.9-117.8
						C672.3,1023.3,671,990.2,672.3,973.4z"/>
					<path class="st8" d="M662.6,1151.2c-0.5-6.1,20.3-55.6,53.5-88.1c13.8-13.5,28.8-27.4,47.7-32.3c18.9-4.9,42.2,3.5,44.9,21.2
						c2,13.1-7.3,25.9-16.2,36.8c-33.2,40.9-28.9,37.5-70.6,70.9c-10.8,8.6-29.6,19-43.2,18C665.2,1176.6,663.7,1163.9,662.6,1151.2
						z"/>
					<path class="st8" d="M471.6,1086.9c11.1-49.5,22.6-84.7,48-128.5c10.6-18.2,22.3-37.2,41-47c18.7-9.7,46.2-5.6,54.7,13.7
						c6.2,14.3,0.2,30.6-5.9,45c-22.8,53.3-35.8,107.2-75.4,149.5C489.8,1166.7,466.6,1100.7,471.6,1086.9z"/>
					<g>
						<path class="st13" d="M611.1,929.7c-19.5,34.3-37.5,69.4-53.8,105.3c-7.6,16.7-16,33.6-21.3,51.2c-4.5,14.8-4.5,31.3,4.9,44.3
							c1.8,2.5,5.9-0.1,4-2.6c-10.3-14.2-7.7-31.9-1.9-47.4c6.4-17.1,14.1-33.7,21.8-50.3c15.4-33.5,32.4-66.4,50.7-98.4
							C617,929.1,612.6,927,611.1,929.7L611.1,929.7z"/>
					</g>
					<g>
						<path class="st13" d="M510,971.1c-13.9,32.9-27.3,66.7-36.9,101.1c-3.9,13.9-5.5,28.9,0.5,42.4c5.3,12,15.6,22.1,29.2,22.9
							c14.9,0.9,26.2-9.4,35.8-19.5c2.1-2.2-1.4-5.2-3.5-3.1c-10.8,11.4-25.5,23.8-42,15.3c-16.3-8.3-20.7-28.9-18.1-45.5
							c3-18.6,10.6-37,16.9-54.7c6.9-19.2,14.3-38.2,22.2-56.9C515.4,970.4,511.2,968.3,510,971.1L510,971.1z"/>
					</g>
					<g>
						<path class="st13" d="M710.8,923.3c-13.5,9.8-17.9,26.6-23.4,41.5c-5.1,13.6-10.5,27-16.4,40.2
							c-11.5,25.4-24.9,49.9-37.7,74.7c-1.4,2.7,2.9,4.8,4.3,2.1c12.3-24,25.3-47.6,36.5-72.1c5.7-12.4,10.9-25,15.7-37.8
							c5.8-15.2,9.8-34.5,23.6-44.5C715.8,925.5,713.3,921.5,710.8,923.3L710.8,923.3z"/>
					</g>
					<g>
						<path class="st13" d="M764.5,1029.1c-11.4,3.3-20.7,15.5-28.8,23.8c-10,10.2-19.7,20.7-29.2,31.3
							c-9.8,11.1-19.5,22.4-28.3,34.2c-6.2,8.3-13,17.3-16.4,27.3c-4.1,12,2,32.6,16.6,34c2.7,0.3,3.6-3.9,0.8-4.2
							c-13.4-1.3-16.9-20.6-12.4-30.9c4.1-9.4,10.4-17.9,16.6-26c16-21.1,34-40.7,52.4-59.8c4-4.2,8.1-8.3,12.2-12.4
							c5.3-5.2,10.6-11.3,17.9-13.4C768.4,1032.4,767.1,1028.4,764.5,1029.1L764.5,1029.1z"/>
					</g>
					<g>
						<path class="st13" d="M793.1,1086.3c-12.1,15.4-25.9,29.7-40,43.2c-15.5,14.7-32,29.5-50.9,39.8c-6.7,3.7-15.2,7.9-23,6.3
							c-2.7-0.5-3.5,3.6-0.8,4.2c6.7,1.4,13.6-1,19.7-3.7c9-4.1,17.3-9.6,25.1-15.5c18.8-14,36-30.4,52.1-47.5
							c7.3-7.7,14.4-15.7,21-24.1C797.9,1086.9,794.8,1084.1,793.1,1086.3L793.1,1086.3z"/>
					</g>
					<g>
						<path class="st13" d="M638.7,1069.7c-9.4,19-23.7,36.9-39.4,51.1c-13.5,12.2-41,27.9-54.3,7.1c-1.7-2.6-5.7,0-4,2.6
							c13.3,20.7,39.8,11.1,55.5-1.1c9.2-7.1,17-15.8,24.4-24.7c8.5-10.2,16.3-21,22.2-33C644.4,1069,640.1,1066.9,638.7,1069.7
							L638.7,1069.7z"/>
					</g>
					<path class="st14" d="M478.9,1119.3c-1.5-11.4,2.2-23.9,6.6-34.4c2.4-5.6,5.3-11.4,9.2-16.1c3.9-4.6,7.9-4.9,13.6-3.8
						c8.1,1.4,27.7,8.7,26.5,19.4c-0.4,3.1-1.8,6.4-2.9,9.3c-4,10.7-9.3,21.6-17.2,30C504.2,1135,483.9,1137.9,478.9,1119.3z"/>
					<path class="st14" d="M539.1,1124.6c0.7-11.5,6.7-23.1,13-32.5c3.4-5.1,7.3-10.2,12.1-14.1c4.7-3.8,8.6-3.3,14.1-1.2
						c7.7,2.9,25.6,13.8,22.3,24c-1,3-3,6-4.6,8.6c-6,9.8-13.2,19.4-22.6,26.2C560.9,1144.7,540.4,1143.8,539.1,1124.6z"/>
					<path class="st14" d="M614.3,1145.2c0.6-9.9,5.8-20,11.2-28.1c2.9-4.4,6.3-8.8,10.5-12.1c4.1-3.3,7.5-2.8,12.2-1
						c6.7,2.5,22.1,11.9,19.3,20.8c-0.8,2.6-2.6,5.2-4,7.4c-5.2,8.5-11.4,16.8-19.5,22.6C633.2,1162.6,615.5,1161.8,614.3,1145.2z"
						/>
					<path class="st14" d="M660.8,1162.2c1.9-9,8-17.5,14-24.2c3.3-3.6,7-7.2,11.2-9.7c4.2-2.5,7.2-1.6,11.3,0.7
						c5.8,3.2,18.6,13.9,14.9,21.6c-1.1,2.3-3,4.4-4.6,6.3c-5.9,7-12.7,13.8-20.9,18.1C675.7,1180.7,659.6,1177.5,660.8,1162.2z"/>
				</g>
				<path class="st14" d="M435.5,871.5c0,0,12.8,9.7,8.3,26c-4.5,16.3-8,27.4-8,27.4l-12.9,4.4C422.8,929.3,421.7,888.8,435.5,871.5
					z"/>
			</g>
		</g>
		<g>
			<path class="st18" d="M772.7,2143.8h-444c1.3-23.3,10.2-184.5,22.4-329.9c10.7-127.7,23.8-243.2,36.5-242.6
				c4.5,0.2,10.8,1.1,18.5,2.3c40.6,6.4,120.3,22.8,182.8,5.6c42.7-11.7,79.7-19.7,104.6-20.3c18.5-0.5,30.3,3.1,32.9,12.1
				C731.9,1589.7,765.2,2041.6,772.7,2143.8z"/>
		</g>
		<g>
			<path class="st19" d="M691,2143.8H328.7c1.3-23.3,10.2-184.5,22.4-329.9c18.5,17.2,41.5,53.9,40.2,130.1
				C389.4,2062.5,703.1,2031,691,2143.8z"/>
		</g>
	</g>
	<g style="clip-path:url(#SVGID_00000176026878438161857800000018381919282131679668_);">
		<g>
			<g>
				<g>
					<path class="st7" d="M2664.3,1697.8c-9.6-58.9-10.3-114-32-111.7c-2.7,0.3-5.6,0.6-8.5,1.4c-35.6,8.7-84,46.3-166.3,36.9
						c-37.7-4.2-99.7-55.3-130.4-44.2l-0.2,0c-4,1.5-7.8,4-10.7,8.1c-15.7,38.2-42.8,281.4-60.4,457c-10,99.6-17,177.5-17.2,183.8
						l520.8-58.8C2729.7,2023.3,2667.4,1715.6,2664.3,1697.8z"/>
				</g>
			</g>
			<g>
				<g>
					<path class="st20" d="M2368.9,1593.6c-16.8,5.5-25.7,21.4-28.2,38.1c-3.5,23.5,7.3,45.6,12,68.1c5.8,27.7-2.2,54.7-6,82.1
						c-3.6,26.3-1.6,52.9,5.9,78.4c1.2,4.3,8,2.5,6.7-1.8c-7-24-9.1-49-6-73.9c3.1-24.3,10.3-48.5,8.1-73.2
						c-2.1-22.8-13.4-44-14.5-66.9c-0.8-17.3,5.7-38.3,23.7-44.2C2374.9,1599,2373.1,1592.3,2368.9,1593.6L2368.9,1593.6z"/>
				</g>
			</g>
			<g>
				<g>
					<path class="st20" d="M2372.8,1807.1c0.7,3.6,1.4,7.3,2,10.9c0.8,4.4,7.5,2.6,6.7-1.8c-0.7-3.6-1.4-7.3-2-10.9
						C2378.6,1801,2372,1802.8,2372.8,1807.1L2372.8,1807.1z"/>
				</g>
			</g>
			<g>
				<g>
					<path class="st20" d="M2399.1,1827.6c0.2,0.9,0.3,1.8,0.5,2.7c0.3,1.8,2.6,3,4.2,2.4c1.9-0.6,2.8-2.3,2.4-4.2
						c-0.2-0.9-0.3-1.8-0.5-2.7c-0.3-1.8-2.6-3-4.2-2.4C2399.7,1824,2398.8,1825.7,2399.1,1827.6L2399.1,1827.6z"/>
				</g>
			</g>
			<g>
				<g>
					<path class="st20" d="M2587,1654.6c18.5,11.9,17.2,36.8,13.6,55.7c-4.1,21.5-7.7,41.3-1.4,62.9c5.7,19.9,16.5,37.8,26,56
						c10.8,20.7,18.8,42.3,21.5,65.6c3,26.4-0.2,53.1-9.1,78c-1.5,4.2,5.2,6.1,6.7,1.9c16-44.6,13.2-93.9-6.9-136.8
						c-9.8-20.8-22.8-40.4-30.1-62.4c-3.7-11.1-5.6-22.7-4.8-34.4c0.9-13.2,4.8-25.9,6.5-38.9c2.7-19.5-0.6-42.1-18.4-53.6
						C2586.8,1646.3,2583.2,1652.2,2587,1654.6L2587,1654.6z"/>
				</g>
			</g>
			<g>
				<g>
					<path class="st20" d="M2515.6,1687.1c-2.8,7.3-4.5,14.8-5.4,22.6c-0.5,4.4,6.4,4.4,6.9,0c0.8-7.1,2.6-14,5.2-20.8
						C2523.9,1684.8,2517.2,1682.9,2515.6,1687.1L2515.6,1687.1z"/>
				</g>
			</g>
			<g>
				<g>
					<path class="st20" d="M2524.9,1711.7c-0.3,4.1-0.5,8.2-0.8,12.3c-0.3,4.5,6.6,4.5,6.9,0c0.3-4.1,0.5-8.2,0.8-12.3
						C2532.1,1707.3,2525.1,1707.2,2524.9,1711.7L2524.9,1711.7z"/>
				</g>
			</g>
			<g>
				<g>
					<path class="st20" d="M2331,1693c1.1,3.2,2.3,6.5,3.4,9.8c1.5,4.2,8.2,2.4,6.7-1.8c-1.1-3.3-2.3-6.5-3.4-9.8
						C2336.3,1687,2329.6,1688.8,2331,1693L2331,1693z"/>
				</g>
			</g>
			<g>
				<g>
					<path class="st20" d="M2372.9,2038c1.3-3.4,2.1-6.9,2.3-10.6c0.3-4.4-6.6-4.5-6.9,0c-0.2,3-0.9,5.9-2.1,8.7
						c-0.7,1.7,0.7,3.8,2.4,4.3C2370.6,2040.9,2372.2,2039.7,2372.9,2038L2372.9,2038z"/>
				</g>
			</g>
			<g>
				<g>
					<path class="st20" d="M2321.7,1912c-1.1,4.6-2.2,9.1-3.2,13.7c-1,4.3,5.6,6.2,6.7,1.9c1.1-4.6,2.2-9.1,3.2-13.7
						C2329.4,1909.6,2322.8,1907.7,2321.7,1912L2321.7,1912z"/>
				</g>
			</g>
			<g>
				<g>
					<path class="st20" d="M2442.9,1913.9c0.7,3.9,1.5,7.9,2.2,11.8c0.8,4.4,7.5,2.6,6.7-1.8c-0.7-3.9-1.5-7.9-2.2-11.8
						C2448.8,1907.7,2442.1,1909.5,2442.9,1913.9L2442.9,1913.9z"/>
				</g>
			</g>
			<g>
				<g>
					<path class="st20" d="M2449.2,1900.4c1.1,1.7,1.6,3.4,1.7,5.4c0,4.5,7,4.5,6.9,0c0-3.2-0.9-6.2-2.6-8.9c-1-1.6-3.1-2.2-4.7-1.3
						C2448.9,1896.6,2448.2,1898.8,2449.2,1900.4L2449.2,1900.4z"/>
				</g>
			</g>
			<g>
				<g>
					<path class="st20" d="M2555.1,1890.1c0.3,5-0.2,9.7-1.7,14.5c-1.3,4.3,5.3,6.1,6.7,1.9c1.7-5.3,2.3-10.8,2-16.3
						C2561.8,1885.8,2554.8,1885.7,2555.1,1890.1L2555.1,1890.1z"/>
				</g>
			</g>
			<g>
				<g>
					<path class="st20" d="M2572.2,1876.6c0.2,0.9,0.3,1.8,0.5,2.7c0.3,1.8,2.6,3,4.2,2.4c1.9-0.6,2.8-2.3,2.4-4.2
						c-0.2-0.9-0.3-1.8-0.5-2.7c-0.3-1.8-2.6-3-4.2-2.5C2572.8,1873,2571.9,1874.7,2572.2,1876.6L2572.2,1876.6z"/>
				</g>
			</g>
			<g>
				<g>
					<path class="st20" d="M2543.9,2026.6c-0.7,5-2,9.9-3.8,14.7c-1.6,4.2,5.1,6,6.7,1.9c2-5.4,3.3-10.9,4-16.5
						C2551.4,2022.2,2544.5,2022.2,2543.9,2026.6L2543.9,2026.6z"/>
				</g>
			</g>
			<g>
				<g>
					<path class="st20" d="M2563.3,2019.2c-0.3,1.6-0.5,3.3-0.8,4.9c-0.3,1.8,0.4,3.8,2.4,4.3c1.7,0.4,4-0.5,4.3-2.4
						c0.3-1.6,0.5-3.3,0.8-4.9c0.3-1.8-0.4-3.8-2.4-4.3C2565.9,2016.4,2563.6,2017.3,2563.3,2019.2L2563.3,2019.2z"/>
				</g>
			</g>
			<g>
				<g>
					<path class="st20" d="M2429.8,1659.7c0.5,4.1,1.5,7.8,3.2,11.6c0.8,1.7,3.2,2.2,4.7,1.3c1.7-1,2.1-3,1.3-4.7
						c-1.2-2.5-2-5.3-2.3-8.1c-0.2-1.9-1.4-3.5-3.4-3.5C2431.6,1656.3,2429.5,1657.9,2429.8,1659.7L2429.8,1659.7z"/>
				</g>
			</g>
			<g>
				<g>
					<path class="st20" d="M2447.8,1676.1c0.1,0.3,0.1,0.6,0.2,0.9c0.3,1.8,2.6,3,4.2,2.4c1.9-0.6,2.8-2.3,2.4-4.2
						c-0.1-0.3-0.1-0.6-0.2-0.9c-0.3-1.8-2.6-3-4.2-2.4C2448.3,1672.5,2447.4,1674.2,2447.8,1676.1L2447.8,1676.1z"/>
				</g>
			</g>
			<g>
				<g>
					<path class="st20" d="M2311.9,1788.9c-0.3,3.7,0.1,7.5,1.1,11.1c1.2,4.3,7.9,2.5,6.7-1.8c-0.9-3.1-1.1-6.1-0.9-9.2
						C2319.2,1784.5,2312.3,1784.5,2311.9,1788.9L2311.9,1788.9z"/>
				</g>
			</g>
			<g>
				<g>
					<path class="st20" d="M2326.8,1779.5c-0.1,1.3-0.1,2.5-0.2,3.8c-0.1,1.8,1.6,3.6,3.4,3.5c2-0.1,3.4-1.5,3.5-3.4
						c0.1-1.3,0.1-2.5,0.2-3.8c0.1-1.8-1.6-3.6-3.4-3.5C2328.4,1776.1,2327,1777.6,2326.8,1779.5L2326.8,1779.5z"/>
				</g>
			</g>
			<g>
				<g>
					<path class="st20" d="M2623.6,1763.7c0.5,1.1,1.1,2.3,1.6,3.4c0.8,1.6,3.2,2.2,4.7,1.3c1.7-1.1,2.1-3,1.3-4.7
						c-0.5-1.1-1.1-2.3-1.6-3.4c-0.8-1.6-3.2-2.2-4.7-1.3C2623.2,1760,2622.8,1761.9,2623.6,1763.7L2623.6,1763.7z"/>
				</g>
			</g>
			<g>
				<g>
					<path class="st20" d="M2628.9,1752.4c0.1,0.6,0.2,1.2,0.3,1.8c0.3,1.8,2.6,3,4.2,2.4c1.9-0.6,2.8-2.3,2.4-4.2
						c-0.1-0.6-0.2-1.2-0.3-1.8c-0.3-1.8-2.6-3-4.2-2.4C2629.5,1748.7,2628.6,1750.5,2628.9,1752.4L2628.9,1752.4z"/>
				</g>
			</g>
			<g>
				<g>
					<path class="st20" d="M2650.5,2023c1.8,26.9,10.5,52.5,25.8,74.8c2.5,3.7,8.5,0.2,6-3.5c-14.5-21.2-23.1-45.6-24.8-71.3
						C2657.2,2018.6,2650.2,2018.5,2650.5,2023L2650.5,2023z"/>
				</g>
			</g>
			<g>
				<path class="st21" d="M2698.9,2177.2l-460.3,51.9c0.2-6.3,7.2-84.2,17.2-183.9c0,0,49.7,29.9,58.9,81.5
					c2.1,11.8,13.5,17.4,30.4,19.4c2.2,0.3,4.6,0.5,7,0.6c32.5,1.9,80.6-6.6,122.1-10.7c2.4-0.2,4.8-0.5,7.2-0.7
					c30.6-2.7,56.7-2.3,68.7,7.4C2588.8,2174.2,2685.8,2150.4,2698.9,2177.2z"/>
			</g>
			<g>
				<g>
					<path class="st20" d="M2509.8,1657.1c-29.5,7.5-43.6,39.2-41.8,67.5c2.5,38.8,27.1,70.8,36.8,107.6
						c10.7,40.5-3.5,82.7-12.7,122.1c-4.6,19.6-9.2,39.1-13.8,58.7c-4.5,19.3-9.1,38.6-11.1,58.4c-3.7,36.5,3.4,77,32.9,101.7
						c3.4,2.8,8.4-2,4.9-4.9c-25.9-21.7-33.6-56.4-31.5-88.9c1.2-19.1,5.4-37.9,9.7-56.6c4.4-19.1,8.9-38.1,13.4-57.2
						c8.3-35.4,20.5-72.5,18.9-109.3c-1.6-36.4-22.1-66.6-33.6-100.1c-6.4-18.6-10.2-39.2-3.8-58.4c5.3-15.9,16.9-29.7,33.5-33.9
						C2515.9,1662.7,2514.1,1656,2509.8,1657.1L2509.8,1657.1z"/>
				</g>
			</g>
			<g>
				<g>
					<path class="st20" d="M2352.2,2036.9c-7,23.7-9.3,47.6-6.6,72.2c2.5,23.9,8.8,47.3,15,70.5l-7.2-0.1
						c-11.9-44.3-21.9-89.2-10.7-134.7c5.5-22.2,14.8-44.3,21.5-66.8c7.2-23.8,11.4-48.2,5-73.2c-1-4.3,5.7-6.1,6.7-1.7
						c7.4,28.6,1.4,56.3-7.3,83.4C2363.5,2003.5,2357.1,2020.2,2352.2,2036.9z"/>
				</g>
			</g>
		</g>
		<g>
			<g>
				<path class="st8" d="M2604.1,1307.8c0,0,61.8-16.6,79.2-92.4c17.4-75.8-8.8-145.6-40.5-188.5c-52-70.5-129-69.1-124.9-34.9
					c2.3,19.1-34.9,57.6-45,50.9C2425.1,1011.5,2441.7,1333.2,2604.1,1307.8z"/>
				<g>
					<path class="st8" d="M2244.8,961.5c0,0-4.2,30.9-6.5,74.6c-0.2,2.9-0.3,5.8-0.4,8.8c0,0.3,0,0.6,0,1c-0.9,22-1.3,46.7-0.4,72
						c0,0.4,0,0.8,0,1.2c2,53.2,9.8,109.1,29.7,148.5l0,0c9.6,15.7,21.1,31.3,34.6,46.4c3.2,3.6,6.1,7.8,8.6,12.4c0,0,0,0,0,0
						c9.5,17.7,13.9,42.3,15,70.4c1,25.4-0.7,53.7-3.7,82.5c-2,19-4.4,38.1-7.1,56.8l254.3-44.3c0.3-24.5,84.2,140.3,84,110.6
						c-0.2-38.1-0.6-79.3-0.9-120.7c0-5.2-0.1-10.4-0.1-15.6c0-6.4-0.1-12.8-0.1-19.2c0-1.6,0-3.1,0-4.7
						c-0.1-12.2-0.1-24.2-0.1-36.2c0-13.7,0.1-27.3,0.2-40.6c0-2.1,0-4.2,0.1-6.2c0-1.1,0-2.2,0-3.3c0-3.4,0.1-6.7,0.1-10
						c0.1-8.3,0.2-16.4,0.4-24.4c0-1.2,0-2.4,0.1-3.6c0-1,0-2.1,0.1-3.1c0-0.6,0-1.3,0.1-1.9c0.1-3.4,0.2-6.8,0.2-10.1
						c0-0.9,0.1-1.8,0.1-2.7c0.2-8,0.5-15.7,0.8-23.2l0,0c0-0.8,0.1-1.7,0.1-2.5c0,0,0,0,0,0c0-0.1,0-0.2,0-0.3c0-0.1,0-0.2,0-0.3
						l0,0c0.5-11.5,1-22.3,1.7-32.5c2.2-32.9,5.5-58.2,10.5-71.6l-86.5-42.8l-2.5-1.2l-11.6-5.8l-46.9-23.2l-49.7-24.5l-13.2-6.5
						l-3.9-1.9l10-32.3l-61.6,6.9l-25.3-12.5l-2.7-1.3l-4.5-2.2l-89-44l-5.9-2.9l-14.1-7l0,0L2244.8,961.5z"/>
				</g>
				<path class="st22" d="M2353.5,1139.2c-63.8-24.3-150.8-83.1-98.3-145.9s195.7-125.9,250.2-74.4c54.5,51.5,65.7,89.8,45.4,126.5
					c-20.3,36.7-73.4,103.1-81.4,118.4C2461.3,1179.3,2392.4,1154,2353.5,1139.2z"/>
				<g>
					<g>
						<path class="st13" d="M2307.6,1321.2c25.6,21.8,59.2,33.4,92.9,31.7c2.5-0.1,2.6-4.1,0-4c-32.5,1.7-65.2-9.3-90-30.5
							C2308.6,1316.8,2305.7,1319.6,2307.6,1321.2L2307.6,1321.2z"/>
					</g>
				</g>
				<g>
					<g>
						<path class="st13" d="M2651.4,1273.9c-24.9,22.1-53.8,39.8-84.9,51.6c-8.7,3.3-17.7,6.2-26.7,8.6c-2.5,0.7-1.5,4.5,1,3.8
							c32.7-8.8,63.7-23.5,91.1-43.3c7.7-5.6,15.1-11.5,22.3-17.9C2656.1,1275.1,2653.3,1272.2,2651.4,1273.9L2651.4,1273.9z"/>
					</g>
				</g>
				<path class="st8" d="M2688.7,1158.7c2.2-56.1-13.8-189.5-36.4-236.5c-42.2-88-35.3-178.9-49-186.2
					c-13.7-7.3-59.1,15.6-66.3,93.3c-7.1,76.6,28.3,137.1,24.3,152.9c-4,15.8-24.4,86.1-24.4,86.1S2687,1202.2,2688.7,1158.7z"/>
				<g>
					<path class="st13" d="M2537.8,1066.1c-6.5,16.2-15.2,31.5-26,45.2c-11.2,14.4-24.4,26.6-32.5,43.2
						c-7.4,15.3-12.4,32.1-16.3,48.6c-3.5,15.2-5.9,30.8-5.9,46.4c0,17.4,2.8,34.6,9.4,50.8c1.3,3.3-3.8,5.3-5.1,2
						c-11.8-29.1-11.7-61.1-5.6-91.5c3.2-15.9,7.7-31.8,13.5-46.9c6.8-17.6,17-31.4,29.3-45.4c14.4-16.4,26-34.4,34.2-54.6
						C2534.1,1060.6,2539.1,1062.8,2537.8,1066.1L2537.8,1066.1z"/>
				</g>
				<g>
					<path class="st4" d="M2439.9,905c-0.2,0-0.4,0-0.6,0c-0.2,0-0.4,0-0.6,0c-198.5,0-324.1,113.2-226.1,373.5l69.2-25.9
						c-57.6-210.8,3.1-266.1,156.9-266.1c0.2,0,0.4,0,0.6,0c0.2,0,0.4,0,0.6,0c153.7,0,214.5,55.3,156.9,266.1l70.5,25.9
						C2765.2,1018.2,2638.4,905,2439.9,905z"/>
					<path class="st4" d="M2520.9,1682.7h-163.1c-111.4,0-201.8-90.3-201.8-201.8v-68.1c0-129,104.6-233.5,233.5-233.5h99.6
						c129,0,233.5,104.6,233.5,233.5v68.1C2722.7,1592.4,2632.3,1682.7,2520.9,1682.7z"/>
					<path class="st23" d="M2275,1050.8c24.8-48.1,80.7-64.3,163.7-64.3c0.2,0,0.4,0,0.6,0c0.2,0,0.4,0,0.6,0
						c83.1,0,139,16.2,163.7,64.3h88.5C2663.2,950.7,2566,905,2439.9,905c-0.2,0-0.4,0-0.6,0c-0.2,0-0.4,0-0.6,0
						c-126.2,0-222.8,45.7-251.4,145.8H2275z"/>
					<path class="st23" d="M2527.3,1608.4c16.2-16.3,35.1-9.3,83.9-37.4c48.9-28.1,83.5-95.8,68.8-34.7
						c-14.7,61.1-48.9,89.2-83.1,96.5C2562.7,1640.1,2506.8,1628.9,2527.3,1608.4z"/>
				</g>
				<g>
					<path class="st8" d="M2488.9,1013.2c3.1-8.3,11.6-6.5,5.4-23.6c-13.7-61.4-43.7-117.7-75.2-172.2
						c-13.1-22.6-27.7-46.2-50.9-58.3c-23.2-12.1-57.3-6.9-67.8,17c-7.7,17.7-0.3,38,7.3,55.7c28.3,66.1,60.6,111.7,103.1,169.7
						c11,15,26.1,26.9,44.5,29.3C2473.8,1033.3,2482.5,1030.6,2488.9,1013.2z"/>
					<path class="st8" d="M2342.8,848.1c-2.1-27.1-28.7-48-52.8-60.5c-24.1-12.6-59.6-7.2-70.4,17.7c-8,18.4-0.3,39.5,7.6,57.9
						c29.4,68.6,68.2,98.3,112.3,158.6c11.4,15.6,32.4,38.1,46.3,35c38.4-8.5,21.8-59.8-26.3-129.6
						C2342.8,902.9,2344.2,866.6,2342.8,848.1z"/>
					<path class="st8" d="M2353.5,1043.6c0.6-6.7-22.3-61.2-58.8-96.9c-15.2-14.9-31.7-30.2-52.5-35.6c-20.8-5.4-46.4,3.8-49.4,23.4
						c-2.2,14.4,8,28.4,17.8,40.5c36.5,45,31.8,41.2,77.6,77.9c11.8,9.5,32.5,20.9,47.5,19.8
						C2350.7,1071.6,2352.2,1057.7,2353.5,1043.6z"/>
					<path class="st8" d="M2563.6,972.9c-12.2-54.4-24.9-93.1-52.8-141.4c-11.6-20.1-24.5-41-45.1-51.7
						c-20.6-10.7-50.9-6.2-60.1,15.1c-6.8,15.7-0.3,33.7,6.5,49.4c25.1,58.6,39.4,117.9,83,164.4
						C2543.6,1060.7,2569.1,988.1,2563.6,972.9z"/>
					<g>
						<path class="st13" d="M2410.2,800c21.5,37.7,41.3,76.3,59.2,115.8c8.3,18.4,17.6,37,23.4,56.3c4.9,16.3,5,34.5-5.4,48.7
							c-2,2.8-6.5-0.1-4.5-2.9c11.3-15.6,8.5-35.1,2.1-52.1c-7-18.8-15.5-37.1-23.9-55.3c-17-36.9-35.6-73-55.7-108.2
							C2403.7,799.3,2408.5,797,2410.2,800L2410.2,800z"/>
					</g>
					<g>
						<path class="st13" d="M2521.3,845.5c15.3,36.2,30,73.3,40.6,111.2c4.3,15.3,6,31.7-0.5,46.7c-5.8,13.2-17.2,24.3-32.1,25.1
							c-16.4,1-28.8-10.4-39.4-21.5c-2.3-2.4,1.6-5.8,3.8-3.4c11.9,12.5,28,26.1,46.2,16.8c17.9-9.2,22.8-31.8,19.9-50
							c-3.3-20.5-11.7-40.7-18.6-60.1c-7.6-21.1-15.7-42-24.5-62.6C2515.4,844.8,2520,842.5,2521.3,845.5L2521.3,845.5z"/>
					</g>
					<g>
						<path class="st13" d="M2300.5,793c14.9,10.8,19.7,29.3,25.8,45.6c5.6,14.9,11.5,29.7,18.1,44.2c12.6,27.9,27.4,54.9,41.4,82.1
							c1.5,3-3.1,5.3-4.7,2.3c-13.6-26.3-27.8-52.4-40.2-79.3c-6.2-13.6-12-27.5-17.3-41.5c-6.3-16.7-10.7-38-26-49
							C2294.9,795.4,2297.8,791.1,2300.5,793L2300.5,793z"/>
					</g>
					<g>
						<path class="st13" d="M2241.5,909.4c12.5,3.6,22.8,17,31.7,26.1c11,11.2,21.7,22.7,32.1,34.5c10.8,12.2,21.4,24.6,31.1,37.7
							c6.8,9.2,14.3,19.1,18,30c4.6,13.2-2.2,35.9-18.3,37.4c-3,0.3-3.9-4.3-0.9-4.6c14.7-1.4,18.6-22.7,13.7-33.9
							c-4.5-10.3-11.5-19.7-18.2-28.6c-17.6-23.2-37.4-44.8-57.7-65.7c-4.4-4.6-8.9-9.1-13.4-13.6c-5.8-5.7-11.6-12.4-19.7-14.7
							C2237.1,913,2238.6,908.6,2241.5,909.4L2241.5,909.4z"/>
					</g>
					<g>
						<path class="st13" d="M2210,972.2c13.3,17,28.4,32.6,44,47.5c17,16.2,35.2,32.4,55.9,43.8c7.3,4,16.7,8.7,25.3,7
							c3-0.6,3.9,4,0.9,4.6c-7.4,1.5-15-1.1-21.7-4.1c-9.9-4.5-19-10.6-27.6-17c-20.7-15.4-39.6-33.4-57.3-52.2
							c-8-8.5-15.9-17.2-23.1-26.5C2204.7,972.9,2208.2,969.8,2210,972.2L2210,972.2z"/>
					</g>
					<g>
						<path class="st13" d="M2379.8,954c10.4,20.9,26.1,40.6,43.3,56.2c14.8,13.4,45,30.7,59.8,7.8c1.9-2.9,6.3,0,4.5,2.9
							c-14.6,22.7-43.7,12.2-61-1.2c-10.1-7.8-18.7-17.4-26.9-27.1c-9.4-11.2-17.9-23.1-24.5-36.3
							C2373.5,953.2,2378.3,950.9,2379.8,954L2379.8,954z"/>
					</g>
					<path class="st14" d="M2549.7,995.8c2.6-10.6-0.3-21.7-4.1-30.9c-2.1-5-4.6-10-8.5-13.9c-3.8-3.9-7.9-3.8-14.1-2.4
						c-8.8,2-30.2,10.3-29.7,20c0.1,2.8,1.4,5.7,2.3,8.3c3.4,9.5,8.1,18.9,15.8,26C2521.6,1012.2,2542.9,1013.2,2549.7,995.8z"/>
					<path class="st14" d="M2480.8,1002.2c0.6-10.7-4.3-21-9.6-29.2c-2.9-4.4-6.3-8.8-10.8-11.9c-4.4-3.1-8.5-2.1-14.3,0.4
						c-8.2,3.6-27.7,15.8-25.5,25.1c0.6,2.7,2.4,5.3,3.7,7.6c5,8.5,11.3,16.8,20.1,22.2C2456.3,1023.6,2477.3,1020.4,2480.8,1002.2z
						"/>
					<path class="st14" d="M2401.7,1030c0.1-9.8-4.6-19.4-9.6-27.1c-2.8-4.2-6-8.3-10.1-11.3c-4-3-7.6-2.3-12.7-0.1
						c-7.2,3-24.1,13.5-21.8,22.1c0.7,2.5,2.3,4.9,3.6,7.1c4.8,8,10.7,15.8,18.8,21.1C2380.6,1048.7,2399.2,1046.6,2401.7,1030z"/>
					<path class="st14" d="M2345.6,1045.4c-0.5-8.3-5.2-15.5-10.1-21c-2.7-3-5.7-5.9-9.4-7.6c-3.7-1.7-6.7-0.5-11,2.2
						c-6,3.9-20,15.8-17.4,22.7c0.7,2,2.3,3.7,3.6,5.3c4.7,5.9,10.3,11.3,17.6,14.2C2328.6,1065,2344.6,1059.7,2345.6,1045.4z"/>
				</g>
				<path class="st14" d="M2603.3,736c0,0-14,10.6-9.1,28.6c4.9,18,8.8,30.1,8.8,30.1l14.2,4.9C2617.3,799.6,2618.5,755,2603.3,736z
					"/>
			</g>
		</g>
	</g>
</g>
</svg>
