<?xml version="1.0" encoding="utf-8"?>
<!-- Generator: Adobe Illustrator 27.5.0, SVG Export Plug-In . SVG Version: 6.00 Build 0)  -->
<svg version="1.1" id="Capa_2" xmlns="http://www.w3.org/2000/svg" xmlns:xlink="http://www.w3.org/1999/xlink" x="0px" y="0px"
	 viewBox="0 0 2122 2122" style="enable-background:new 0 0 2122 2122;" xml:space="preserve">
<rect style="fill:#E2F2FB;" width="2121.32" height="2121.32"/>
<g>
	<path style="fill:#60BDA7;" d="M1677.816,1732.972c3.896-2.773,7.634-5.211,11.25-7.401c8.162-22.87,16.967-45.946,26.24-70.162
		c9.535-24.908,19.396-50.664,29.471-78.657c49.165-136.655,62.096-251.712,63.74-268.026c-6.986-2.631-11.927-3.046-11.927-3.046
		s-34.114-5.659-58.322,34.928c0,0-29.411,32.81-34.196,103.633c-4.786,70.823-116.001,105.521-115.954,181.561
		c0.04,63.811,25.868,121.421,10.515,190.376C1633.858,1765.058,1672.821,1736.528,1677.816,1732.972z"/>
	<path style="fill:#60BDA7;" d="M1750.661,1578.87c-10.094,28.053-19.968,53.838-29.516,78.774
		c-8.34,21.783-16.274,42.615-23.733,63.225c52.018-27.247,75.287,0.966,116.028-59.806c10.646-15.88,21.003-27.657,30.831-36.357
		c-0.32-14.101-3.842-29.636-11.791-47.083c-34.396-75.499,9.082-72.804,20.105-150.345
		c11.019-77.525-17.792-105.719-38.057-115.905C1812.136,1333.847,1798.365,1446.279,1750.661,1578.87z"/>
	<path style="fill:#FEFADB;" d="M1744.776,1576.752c-10.075,27.993-19.936,53.748-29.471,78.657
		c-9.273,24.217-18.078,47.292-26.24,70.162c2.868-1.739,5.641-3.284,8.347-4.702c7.459-20.61,15.393-41.442,23.733-63.225
		c9.548-24.936,19.422-50.72,29.516-78.774c47.704-132.59,61.475-245.023,63.868-267.497c0.273-2.556,0.406-4.012,0.417-4.136
		c0.145-1.721-1.127-3.238-2.847-3.384c-1.722-0.149-3.237,1.126-3.385,2.847c-0.007,0.084-0.074,0.809-0.197,2.027
		C1806.872,1325.04,1793.941,1440.097,1744.776,1576.752z"/>
	<path style="fill:#93CEC1;" d="M1934.53,1621.327c-11.332,18.453-69.572,110.025-165.469,205.051
		c-20.29,20.103-39.455,38.338-57.988,55.972c-18.614,17.712-44.033,42.058-64.181,62.105h147.919
		c25.814-15.636,44.758-40.148,45.533-85.442c1.36-79.475,37.856-59.228,79.341-121.756
		C1961.16,1674.745,1947.858,1638.488,1934.53,1621.327z"/>
	<path style="fill:#93CEC1;" d="M1764.843,1822.12c98.835-97.938,157.43-192.128,165.575-205.56c-4.959-5.155-9.062-7.55-9.062-7.55
		s-33.21-23.139-77.084,15.696c-9.828,8.7-20.186,20.477-30.831,36.357c-40.741,60.772-64.01,32.559-116.028,59.806
		c-2.706,1.418-5.479,2.963-8.347,4.702c-3.616,2.191-7.353,4.628-11.25,7.401c-4.995,3.556-43.958,32.086-79.182,83.207
		c-22.981,33.352-44.374,76.296-53.692,128.276h93.269c21.168-20.89,51.543-50.093,68.732-66.448
		C1725.453,1860.395,1744.595,1842.183,1764.843,1822.12z"/>
	<path style="fill:#FEFADB;" d="M1769.061,1826.377c95.896-95.026,154.137-186.598,165.469-205.051
		c1.288-2.099,2.003-3.302,2.064-3.406c0.834-1.428,0.359-3.264-1.069-4.099c-1.427-0.839-3.263-0.361-4.101,1.067
		c-0.041,0.069-0.397,0.669-1.005,1.672c-8.145,13.432-66.741,107.621-165.575,205.56c-20.248,20.063-39.39,38.275-57.901,55.887
		c-17.189,16.355-47.564,45.558-68.732,66.448h8.681c20.149-20.047,45.567-44.393,64.181-62.105
		C1729.606,1864.715,1748.771,1846.481,1769.061,1826.377z"/>
</g>
<path style="fill:#329379;" d="M504.074,1329.56c100.322,149.649,157.56,80.022,285.69,147.193
	c-18.351-50.709-37.965-102.014-58.486-155.608c-23.503-61.386-47.81-124.861-72.657-193.92
	C541.233,800.952,507.297,524.157,501.386,468.677c-49.882,25.094-120.797,94.57-93.677,285.369
	c27.135,190.885,134.168,184.253,49.493,370.11c-19.513,42.831-28.376,81.061-29.209,115.7
	C452.238,1261.286,477.804,1290.375,504.074,1329.56z"/>
<path style="fill:#329379;" d="M673.108,1122.012c24.8,68.912,49.076,132.315,72.548,193.63
	c22.822,59.604,44.496,116.399,64.585,172.689c8.899,5.393,18.115,11.426,27.706,18.254c12.297,8.754,108.229,79.019,194.943,204.92
	c-37.836-169.788,25.768-311.63,25.866-468.742c0.118-187.189-273.665-272.606-285.444-446.952
	c-11.781-174.347-84.181-255.118-84.181-255.118c-59.593-99.913-143.573-85.984-143.573-85.984s-12.145,0.982-29.365,7.473
	C520.269,502.577,552.141,785.784,673.108,1122.012z"/>
<path style="fill:#4EC2F1;" d="M658.621,1127.226c24.847,69.059,49.154,132.534,72.657,193.92
	c20.521,53.594,40.135,104.899,58.486,155.608c6.63,3.476,13.451,7.319,20.477,11.577c-20.089-56.29-41.763-113.085-64.585-172.689
	c-23.472-61.315-47.748-124.718-72.548-193.63C552.141,785.784,520.269,502.577,516.193,462.18
	c-0.306-3.039-0.462-4.755-0.479-4.965c-0.368-4.238-4.098-7.374-8.336-7.007c-4.234,0.357-7.364,4.091-7.008,8.329
	c0.027,0.309,0.342,3.807,1.017,10.139C507.297,524.157,541.233,800.952,658.621,1127.226z"/>
<path style="fill:#53B89C;" d="M613.326,1736.521c-236.128-233.986-379.514-459.465-407.358-504.813
	c-32.805,42.258-65.514,131.572,36.564,285.426c102.125,153.925,191.969,104.083,195.314,299.729
	c0.832,48.555,10.221,87.321,25.712,118.904h356.781c-22.9-22.03-45.064-43.189-64.263-61.456
	C710.451,1830.898,663.274,1786.012,613.326,1736.521z"/>
<path style="fill:#53B89C;" d="M1032.89,1711.504c-86.714-125.901-182.646-196.165-194.943-204.92
	c-9.591-6.828-18.807-12.861-27.706-18.254c-7.026-4.258-13.847-8.101-20.477-11.577c-128.131-67.172-185.369,2.456-285.69-147.193
	c-26.27-39.185-51.836-68.274-76.081-89.704c-107.919-95.385-189.577-38.432-189.577-38.432s-10.101,5.854-22.32,18.563
	c20.002,32.99,164.259,264.907,407.613,506.053c49.845,49.388,96.966,94.222,142.534,137.58
	c19.841,18.878,46.831,44.723,75.271,72.146h301.223C1115.609,1848.066,1075.349,1773.15,1032.89,1711.504z"/>
<path style="fill:#4EC2F1;" d="M623.709,1726.04c-243.354-241.146-387.611-473.063-407.613-506.053
	c-1.488-2.456-2.359-3.922-2.461-4.094c-2.064-3.512-6.582-4.69-10.096-2.627c-3.517,2.057-4.684,6.577-2.631,10.094
	c0.15,0.254,1.9,3.204,5.059,8.348c27.844,45.349,171.231,270.827,407.358,504.813c49.949,49.491,97.125,94.378,142.75,137.789
	c19.199,18.267,41.363,39.427,64.263,61.456h21.177c-28.44-27.424-55.431-53.268-75.271-72.146
	C720.675,1820.261,673.554,1775.427,623.709,1726.04z"/>
<g>
	<g>
		<path style="fill:#B5E0F6;" d="M1623.664,1845.677c0,37.067-30.152,67.219-67.219,67.219h0h-0.01h-369.729h0h-0.01
			c-36.742,0-66.63-29.891-66.63-66.633v-132.232h-30.627v132.233c0,53.72,43.549,97.269,97.269,97.269h369.74
			c54.044,0,97.855-43.812,97.855-97.855v-131.647h-30.638V1845.677z"/>
		<path style="fill:#B5E0F6;" d="M1619.865,920.465c-12.823-10.319-12.823-30.339,0-40.658
			c20.999-16.898,34.437-42.811,34.437-71.862c0-31.435-15.733-59.196-39.755-75.836c-11.469-7.945-11.569-24.715-0.091-32.646
			c24.927-17.224,40.954-46.409,39.786-79.261c-0.044-1.236-0.225-2.432-0.318-3.654c-1.406-120.102-77.827-222.149-184.6-261.469
			c-3.217,2.754-7.342,4.48-11.909,4.48h-171.091c-4.567,0-8.692-1.725-11.908-4.48c-106.774,39.32-183.197,141.368-184.601,261.472
			c-0.094,1.221-0.274,2.416-0.318,3.651c-1.168,32.862,14.869,62.056,39.809,79.277c11.47,7.92,11.37,24.679-0.09,32.613
			c-24.036,16.639-39.779,44.407-39.779,75.853c0,29.051,13.438,54.964,34.436,71.862c12.823,10.319,12.823,30.338,0,40.658
			c-20.998,16.897-34.436,42.81-34.436,71.862l0,0c0,26.67,11.337,50.66,29.45,67.463c14.119,13.099,14.542,34.882,0.617,48.187
			c-18.525,17.701-30.066,42.645-30.066,70.294v56.981h30.627v-56.981c0-18.357,7.312-35.454,20.593-48.146
			c12.821-12.247,19.811-28.688,19.682-46.296c-0.127-17.508-7.647-34.457-20.63-46.5c-2.012-1.868-3.828-3.876-5.548-5.945
			c-0.339-0.411-0.66-0.829-0.988-1.247c-1.562-1.98-3.002-4.031-4.295-6.165c-0.061-0.101-0.129-0.196-0.189-0.297
			c-5.598-9.363-8.626-20.068-8.626-31.349c0-2.158,0.141-4.292,0.369-6.407c0.098-0.943,0.272-1.866,0.412-2.799
			c0.16-1.029,0.308-2.06,0.519-3.076c0.278-1.377,0.627-2.727,0.998-4.075c0.132-0.471,0.262-0.942,0.404-1.41
			c0.473-1.574,1.001-3.122,1.597-4.648c0.021-0.054,0.035-0.11,0.056-0.164c0.004,0,0.007-0.001,0.011-0.001
			c3.865-9.804,10.167-18.591,18.649-25.415c13.376-10.76,21.047-26.87,21.049-44.193c0-17.326-7.671-33.438-21.049-44.204
			c-14.621-11.764-23.004-29.256-23.004-47.99c0-20.202,9.935-39.143,26.58-50.666c13.684-9.47,21.851-25.026,21.843-41.604
			c-0.011-16.516-8.151-31.997-21.783-41.407c-17.408-12.022-27.353-31.826-26.601-52.977l0.034-0.111
			c0.079-0.77,0.156-1.538,0.216-2.314c0.047-0.652,0.077-1.304,0.085-1.956C1122.054,479.88,1234.839,368.4,1371.87,368.4
			c137.029,0,249.816,111.478,251.417,248.507c0.008,0.67,0.037,1.343,0.09,2.011c0.058,0.755,0.272,2.839,0.272,2.839
			c0.728,20.68-9.209,40.481-26.609,52.503c-13.626,9.412-21.772,24.896-21.783,41.412c-0.01,16.582,8.156,32.142,21.846,41.626
			c16.632,11.521,26.561,30.456,26.561,50.65c0,18.732-8.386,36.224-23.007,47.99c-13.378,10.768-21.046,26.878-21.046,44.204
			c0,17.323,7.671,33.429,21.046,44.193c11.686,9.404,19.3,22.49,21.922,36.921c0.169,0.899,0.329,1.8,0.458,2.708
			c0.113,0.835,0.22,1.667,0.3,2.509c0.193,1.929,0.325,3.87,0.326,5.835c0,0.007,0.001,0.014,0.001,0.021
			c0,17.41-7.077,33.485-19.933,45.262c-13.054,11.956-20.627,28.865-20.777,46.391c-0.148,17.352,7.027,34.19,19.688,46.193
			c13.558,12.856,21.022,30.213,21.022,48.88v56.199h30.638v-56.2c0-28.005-11.746-53.254-30.579-71.11
			c-13.863-13.143-13.382-34.859,0.703-47.763c18.361-16.82,29.875-40.974,29.875-67.852l0,0
			C1654.302,963.276,1640.864,937.362,1619.865,920.465z"/>
		<path style="fill:#7ACDF0;" d="M1603.731,1037.589c-13.054,11.956-20.627,28.865-20.777,46.391
			c-0.148,17.352,7.026,34.19,19.687,46.193c13.558,12.856,21.023,30.213,21.023,48.88v56.199h0v-56.199
			c0-18.666-7.465-36.024-21.022-48.88c-12.661-12.004-19.835-28.841-19.688-46.193
			C1583.105,1066.454,1590.678,1049.545,1603.731,1037.589c12.856-11.777,19.933-27.851,19.933-45.262
			c0-0.007-0.001-0.015-0.001-0.021c0,0.007,0,0.014,0,0.021C1623.664,1009.737,1616.587,1025.812,1603.731,1037.589z"/>
		<path style="fill:#7ACDF0;" d="M1122.767,974.561c0.479-1.569,1.001-3.123,1.597-4.648
			C1123.768,971.439,1123.24,972.987,1122.767,974.561z"/>
		<path style="fill:#7ACDF0;" d="M1121.365,980.045c0.286-1.372,0.622-2.73,0.998-4.075
			C1121.992,977.319,1121.643,978.669,1121.365,980.045z"/>
		<path style="fill:#7ACDF0;" d="M1120.433,985.92c0.102-0.941,0.267-1.868,0.412-2.799
			C1120.705,984.054,1120.531,984.977,1120.433,985.92z"/>
		<path style="fill:#7ACDF0;" d="M1556.445,1912.896L1556.445,1912.896c37.067,0,67.219-30.152,67.219-67.219v-131.646h0v131.646
			C1623.664,1882.744,1593.511,1912.896,1556.445,1912.896z"/>
		<path style="fill:#7ACDF0;" d="M1356.172,948.526c57.946-6.979,116.395-14.126,174.859-13.604
			c22.868,0.205,44.783,2.606,66.283,6.406c1.085,1.024,2.158,2.06,3.333,3.005c9.695,7.802,16.572,18.148,20.157,29.677
			c0.003,0,0.007,0,0.01,0c0.078,0.253,0.133,0.514,0.21,0.768c0.591,1.993,1.087,4.013,1.475,6.07
			c0.026,0.136,0.054,0.271,0.08,0.407c-2.621-14.431-10.235-27.517-21.922-36.921c-13.376-10.763-21.046-26.87-21.046-44.193
			c0-17.326,7.668-33.436,21.046-44.204c14.621-11.766,23.007-29.258,23.007-47.99c0-20.194-9.929-39.13-26.561-50.65
			c-13.69-9.484-21.857-25.044-21.846-41.626c0.01-16.516,8.156-32,21.783-41.412c17.4-12.022,27.337-31.823,26.609-52.503
			c0,0-0.214-2.084-0.272-2.839c-0.053-0.667-0.082-1.341-0.09-2.011C1621.685,479.877,1508.898,368.4,1371.87,368.4
			c-137.031,0-249.815,111.48-251.419,248.512c-0.008,0.652-0.037,1.304-0.085,1.956c-0.06,0.776-0.137,1.544-0.216,2.314
			l-0.034,0.111c-0.752,21.152,9.193,40.955,26.601,52.977c13.632,9.41,21.772,24.891,21.783,41.407
			c0.008,16.579-8.159,32.134-21.843,41.604c-16.645,11.523-26.58,30.464-26.58,50.666c0,18.735,8.384,36.227,23.004,47.99
			c13.379,10.766,21.049,26.878,21.049,44.204c-0.003,17.323-7.674,33.432-21.049,44.193c-8.481,6.824-14.784,15.611-18.649,25.415
			c16.13-0.168,32.261-0.681,48.392-1.706C1234.186,964.143,1295.158,955.874,1356.172,948.526z"/>
		<path style="fill:#7ACDF0;" d="M1623.316,986.295c0.006,0.059,0.016,0.117,0.021,0.176c-0.08-0.842-0.187-1.674-0.3-2.509
			c0.01,0.074,0.017,0.15,0.027,0.224C1623.157,984.888,1623.248,985.588,1623.316,986.295z"/>
		<path style="fill:#287EB3;" d="M1120.075,1178.272c0-18.357,7.312-35.454,20.593-48.146
			c12.821-12.247,19.812-28.688,19.682-46.296c-0.127-17.508-7.647-34.457-20.63-46.5c-2.015-1.869-3.843-3.872-5.558-5.945
			c1.72,2.069,3.535,4.078,5.548,5.945c12.983,12.043,20.503,28.992,20.63,46.5c0.129,17.608-6.861,34.05-19.682,46.296
			c-13.281,12.692-20.593,29.788-20.593,48.146v56.981h0.01V1178.272z"/>
		<path style="fill:#287EB3;" d="M1186.695,1912.896h0.01c-36.742,0-66.63-29.891-66.63-66.633v-132.232h-0.01v132.232
			C1120.064,1883.005,1149.953,1912.896,1186.695,1912.896z"/>
		<path style="fill:#287EB3;" d="M1623.316,986.295c-0.068-0.707-0.159-1.406-0.251-2.108
			C1623.161,984.887,1623.244,985.589,1623.316,986.295z"/>
		<path style="fill:#287EB3;" d="M1622.499,980.848c-0.388-2.056-0.884-4.076-1.475-6.07
			C1621.617,976.769,1622.099,978.796,1622.499,980.848z"/>
		<path style="fill:#287EB3;" d="M1122.128,1007.913c45.073,8.263,91.774,6.346,137.526,4.337
			c66.375-2.914,132.446-10.577,198.182-19.997c53.583-7.68,108.304-15.406,162.967-18.242
			c-3.586-11.53-10.462-21.875-20.157-29.677c-1.174-0.945-2.248-1.981-3.333-3.005c-21.5-3.801-43.416-6.202-66.283-6.406
			c-58.464-0.522-116.912,6.625-174.859,13.604c-61.014,7.348-121.985,15.617-183.349,19.517
			c-16.13,1.025-32.261,1.538-48.392,1.706c-0.004,0-0.007,0.001-0.011,0.001c-0.021,0.053-0.035,0.11-0.056,0.164
			c-0.596,1.525-1.118,3.079-1.597,4.648c-0.142,0.468-0.272,0.938-0.404,1.41c-0.376,1.344-0.712,2.702-0.998,4.075
			c-0.211,1.016-0.36,2.046-0.519,3.076c-0.145,0.932-0.31,1.858-0.412,2.799c-0.228,2.115-0.369,4.249-0.369,6.407
			c0,11.281,3.028,21.986,8.626,31.349C1125.773,1018.756,1123.57,1013.462,1122.128,1007.913z"/>
		<path style="fill:#287EB3;" d="M1128.879,1023.973c1.293,2.134,2.733,4.185,4.295,6.165
			C1131.619,1028.155,1130.163,1026.11,1128.879,1023.973z"/>
		<path style="fill:#4697D2;" d="M1186.705,1912.896L1186.705,1912.896h369.729h0.01c37.066,0,67.219-30.152,67.219-67.219v-131.646
			h-503.589v132.232C1120.075,1883.005,1149.964,1912.896,1186.705,1912.896z"/>
		<path style="fill:#4697D2;" d="M1139.72,1037.33c12.983,12.043,20.503,28.992,20.63,46.5c0.129,17.608-6.861,34.05-19.682,46.296
			c-13.281,12.692-20.593,29.788-20.593,48.146v56.981h503.589v-56.199c0-18.666-7.465-36.024-21.023-48.88
			c-12.661-12.004-19.835-28.841-19.687-46.193c0.15-17.526,7.724-34.435,20.777-46.391c12.856-11.777,19.933-27.851,19.933-45.262
			c0-0.007,0-0.015,0-0.021c-0.001-1.965-0.133-3.906-0.326-5.835c-0.006-0.059-0.016-0.117-0.021-0.176
			c-0.072-0.706-0.155-1.408-0.251-2.108c-0.01-0.074-0.017-0.15-0.027-0.224c-0.129-0.909-0.289-1.809-0.458-2.708
			c-0.026-0.136-0.054-0.271-0.08-0.407c-0.4-2.052-0.882-4.078-1.475-6.07c-0.076-0.254-0.132-0.515-0.21-0.768
			c-0.004,0-0.007,0-0.01,0c-54.663,2.836-109.384,10.562-162.967,18.242c-65.736,9.421-131.807,17.084-198.182,19.997
			c-45.752,2.009-92.453,3.926-137.526-4.337c1.441,5.549,3.645,10.843,6.562,15.763c0.06,0.101,0.128,0.196,0.189,0.297
			c1.284,2.137,2.74,4.182,4.295,6.165c0.327,0.417,0.649,0.836,0.988,1.247C1135.877,1033.458,1137.706,1035.461,1139.72,1037.33z"
			/>
		<path style="fill:#B5E0F6;" d="M1457.415,359.559c4.567,0,8.692-1.725,11.909-4.48c3.939-3.374,6.488-8.323,6.488-13.917
			c0-10.161-8.236-18.397-18.397-18.397c10.161,0,18.397-8.236,18.397-18.397c0-10.16-8.236-18.397-18.397-18.397h-6.088h-14.447
			h-14.447h-14.447h-14.447h-14.447h-14.447h-14.447h-14.447h-14.447h-14.447h-14.447h-6.087c-10.16,0-18.397,8.236-18.397,18.397
			c0,10.161,8.237,18.397,18.397,18.397c-10.16,0-18.397,8.236-18.397,18.397c0,5.593,2.55,10.543,6.489,13.916
			c3.216,2.755,7.341,4.48,11.908,4.48H1457.415z"/>
		<rect x="1465.775" y="172.141" style="fill:#4661AB;" width="14.447" height="113.831"/>
		<rect x="1350.199" y="172.141" style="fill:#4661AB;" width="14.447" height="113.831"/>
		<path style="fill:#4661AB;" d="M1484.929,285.724c3.176-0.65,5.902-2.535,7.656-5.131
			C1490.832,283.189,1488.105,285.074,1484.929,285.724z"/>
		<rect x="1379.093" y="172.141" style="fill:#4661AB;" width="14.447" height="113.831"/>
		<rect x="1292.411" y="172.141" style="fill:#4661AB;" width="14.447" height="113.831"/>
		<rect x="1321.305" y="172.141" style="fill:#4661AB;" width="14.447" height="113.831"/>
		<rect x="1436.881" y="172.141" style="fill:#4661AB;" width="14.447" height="113.831"/>
		<path style="fill:#4661AB;" d="M1249.07,273.773c0,2.527,0.768,4.874,2.083,6.82
			C1249.838,278.646,1249.07,276.299,1249.07,273.773L1249.07,273.773z"/>
		<rect x="1407.987" y="172.141" style="fill:#4661AB;" width="14.447" height="113.831"/>
		<rect x="1263.517" y="172.141" style="fill:#4661AB;" width="14.447" height="113.831"/>
		<path style="fill:#4661AB;" d="M1251.153,280.593c1.754,2.596,4.481,4.481,7.658,5.131
			C1255.634,285.074,1252.907,283.189,1251.153,280.593z"/>
		<path style="fill:#4661AB;" d="M1494.669,273.773L1494.669,273.773c0,2.526-0.768,4.874-2.083,6.82
			C1493.901,278.646,1494.669,276.299,1494.669,273.773z"/>
		<path style="fill:#284993;" d="M1261.269,172.141c-6.737,0-12.199,5.462-12.199,12.199v89.433c0,2.526,0.768,4.874,2.083,6.82
			c1.754,2.596,4.481,4.481,7.658,5.131c0.794,0.163,1.616,0.248,2.458,0.248h2.248V172.141H1261.269z"/>
		<polygon style="fill:#284993;" points="1292.411,172.141 1277.964,172.141 1277.964,285.972 1286.324,285.972 1292.411,285.972 		
			"/>
		<rect x="1306.858" y="172.141" style="fill:#284993;" width="14.447" height="113.831"/>
		<rect x="1335.752" y="172.141" style="fill:#284993;" width="14.447" height="113.831"/>
		<rect x="1364.646" y="172.141" style="fill:#284993;" width="14.447" height="113.831"/>
		<rect x="1393.54" y="172.141" style="fill:#284993;" width="14.447" height="113.831"/>
		<rect x="1422.433" y="172.141" style="fill:#284993;" width="14.447" height="113.831"/>
		<polygon style="fill:#284993;" points="1457.415,285.972 1465.775,285.972 1465.775,172.141 1451.328,172.141 1451.328,285.972 		
			"/>
		<path style="fill:#284993;" d="M1482.47,285.972c0.842,0,1.665-0.085,2.459-0.248c3.176-0.65,5.902-2.535,7.656-5.131
			c1.316-1.947,2.083-4.294,2.083-6.82V184.34c0-6.737-5.461-12.199-12.199-12.199h-2.248v113.831H1482.47z"/>
		<path style="fill:#4661AB;" d="M1623.664,1235.253h-503.589h-0.01h-30.627v478.779h30.627h0.01h503.589h0h30.638v-478.779
			H1623.664L1623.664,1235.253z M1371.869,1645.641c-94.44,0-170.998-76.559-170.998-170.999
			c0-94.44,76.558-170.999,170.998-170.999c94.44,0,170.999,76.559,170.999,170.999
			C1542.868,1569.082,1466.309,1645.641,1371.869,1645.641z"/>
		<path style="fill:#B5E0F6;" d="M1371.869,1303.644c-94.44,0-170.998,76.559-170.998,170.999
			c0,94.44,76.558,170.999,170.998,170.999c94.44,0,170.999-76.559,170.999-170.999
			C1542.868,1380.202,1466.309,1303.644,1371.869,1303.644z M1371.869,1577.98c-39.815,0-72.092-32.277-72.092-72.093
			c0-39.815,32.277-149.193,72.092-149.193c39.817,0,72.094,109.378,72.094,149.193
			C1443.963,1545.703,1411.686,1577.98,1371.869,1577.98z"/>
		<path style="fill:#4661AB;" d="M1371.869,1356.694c-39.815,0-72.092,109.378-72.092,149.193c0,39.816,32.277,72.093,72.092,72.093
			c39.817,0,72.094-32.277,72.094-72.093C1443.963,1466.072,1411.686,1356.694,1371.869,1356.694z M1421.621,1503.871
			c6.929,4.001,6.395,17.899-1.194,31.042c-7.588,13.144-19.357,20.556-26.287,16.555c-6.929-4.001-6.395-17.899,1.194-31.042
			C1402.923,1507.282,1414.692,1499.871,1421.621,1503.871z"/>
		<path style="fill:#FFFFFF;" d="M1394.14,1551.469c6.929,4.001,18.698-3.411,26.287-16.555c7.589-13.143,8.123-27.042,1.194-31.042
			c-6.929-4.001-18.698,3.411-26.287,16.555C1387.745,1533.57,1387.211,1547.468,1394.14,1551.469z"/>
	</g>
	<g>
		<path style="fill:#7EC4E0;" d="M1623.664,1845.677c0,37.067-30.152,67.219-67.219,67.219h0h-0.01h-369.729h0h-0.01
			c-36.742,0-66.63-29.891-66.63-66.633v-132.232h-30.627v132.233c0,53.72,43.548,97.269,97.269,97.269h369.74
			c54.044,0,97.855-43.812,97.855-97.855v-131.647h-30.638V1845.677z"/>
		<path style="fill:#7ACDF0;" d="M1556.445,1912.896L1556.445,1912.896c37.067,0,67.219-30.152,67.219-67.219v-131.646h0v131.646
			C1623.664,1882.744,1593.511,1912.896,1556.445,1912.896z"/>
		<path style="fill:#287EB3;" d="M1186.695,1912.896h0.01c-36.742,0-66.63-29.891-66.63-66.633v-132.232h-0.01v132.232
			C1120.064,1883.005,1149.953,1912.896,1186.695,1912.896z"/>
		<path style="fill:#1E72A6;" d="M1186.705,1912.896L1186.705,1912.896h369.729h0.01c37.066,0,67.219-30.152,67.219-67.219v-131.646
			h-503.589v132.232C1120.075,1883.005,1149.964,1912.896,1186.705,1912.896z"/>
		<path style="fill:#224387;" d="M1371.869,1645.641c-94.44,0-170.998-76.559-170.998-170.999c0-19.827,3.413-38.849,9.619-56.558
			c-45.158-46.411-85.765-97.263-121.053-151.888v447.835h30.627h0.01h503.589h0h30.638v-34.164
			c-62.618-17.007-122.731-40.072-179.682-68.543C1446.013,1632.864,1410.435,1645.641,1371.869,1645.641z"/>
		<path style="fill:#7EC4E0;" d="M1371.869,1645.641c38.566,0,74.144-12.777,102.751-34.316
			c-24.756-12.376-48.933-25.733-72.437-40.094c-9.225,4.288-19.471,6.75-30.314,6.75c-39.815,0-72.092-32.277-72.092-72.093
			c0-1.971,0.101-4.156,0.256-6.446c-31.506-25.268-61.408-52.442-89.542-81.357c-6.206,17.708-9.619,36.73-9.619,56.558
			C1200.871,1569.082,1277.429,1645.641,1371.869,1645.641z"/>
		<path style="fill:#224387;" d="M1371.869,1577.98c10.843,0,21.089-2.462,30.314-6.75c-35.626-21.767-69.72-45.781-102.15-71.789
			c-0.155,2.29-0.256,4.475-0.256,6.446C1299.777,1545.703,1332.054,1577.98,1371.869,1577.98z"/>
	</g>
</g>
<g>
	<path style="fill:none;" d="M716.357,1770.85c44.301-2.313,89.924-3.808,135.119-3.982c-19.273-15.667-38.308-31.697-56.329-47.873
		C768.175,1737.152,741.753,1754.5,716.357,1770.85z"/>
	<path style="fill:none;" d="M870.732,1518.422c-2.789,0.079-5.52-0.09-8.167-0.515c2.659,1.366,5.31,2.816,7.954,4.316
		c0.003-0.005,0.007-0.01,0.011-0.014c1.296,0.735,2.592,1.476,3.888,2.241c-0.005,0.005-0.007,0.011-0.012,0.016
		c16.323,9.679,32.307,21.799,47.734,35.818l32.026,30.431c0.005-0.001,0.008-0.003,0.013-0.005l3.552,3.377
		c-0.005,0.001-0.008,0.003-0.012,0.005l36.668,34.843l34.501-130.391c-1.079-1.238-2.18-2.588-3.314-4.1
		C981.623,1512.129,928.028,1524.776,870.732,1518.422z"/>
	<polygon style="fill:none;" points="1149.436,1251.271 1150.547,1247.735 1148.108,1251.11 	"/>
	<path style="fill:#383851;" d="M353.825,1886.466c-0.001,0-0.002,0-0.002,0c-0.086-0.871-0.168-1.749-0.252-2.622
		c-0.048-0.531-0.105-1.043-0.151-1.578c-0.003-0.038-0.007-0.075-0.011-0.113c0.001,0,0.002,0,0.003,0
		c-0.1-1.149-0.183-2.33-0.274-3.496c-7.508,5.962-14.941,14.629-25.765-0.713l0.024,0.078
		c-19.313-24.979-41.724-38.87-48.434-34.402c-7.498,4.989,11.255,28.482,31.737,59.215c20.482,30.738,28.282,50.568,35.776,45.574
		h0.005c0.02-0.014,9.229-3.613,18.455-9.874C360.451,1930.084,356.19,1910.472,353.825,1886.466z"/>
	<path style="fill:#D6B894;" d="M450.121,1790.403c-0.57,1.3-1.222,2.56-1.824,3.846c24.329-2.907,52.799-6.092,84.271-9.234
		c0.479-0.963,0.977-1.912,1.451-2.879c13.476-27.538,26.806-56.239,50.144-76.984c19.566-17.388,45.529-27.342,71.586-20.477
		c11.552,3.04,22.377,9.34,29.788,18.826c8.604,11.001,11.581,24.882,12.282,38.558c0.482,9.357-0.207,19.566-0.476,29.836
		c6.306-0.365,12.649-0.711,19.014-1.044c25.396-16.35,51.818-33.698,78.791-51.854c18.02,16.175,37.056,32.206,56.329,47.873
		c1.921-0.007,3.841-0.014,5.76-0.016c4.763-7.749,9.389-15.591,14.029-23.377c6.621-11.109,13.404-22.144,21.028-32.595
		c7.342-10.061,15.367-20.702,25.846-27.668c9.262-6.158,21.91-8.741,30.422,0.151c9.359,9.774,7.245,24.2,2.514,35.61
		c-7.942,19.167-21.712,34.125-36.156,48.59c19.494,0.521,38.748,1.333,57.596,2.5c1.353-1.387,2.727-2.756,4.07-4.151
		c2.714-2.818,5.415-5.669,8.086-8.558c-13.443-6.141-20.787-11.691-19.974-15.968c0.056-0.292,0.193-0.566,0.321-0.842l-0.156-0.03
		l29.524-111.578l-36.668-34.843c-1.536,0.534-3.067,1.078-4.573,1.642c-25.817,9.71-49.378,25.067-69.354,44.024
		c-20.097,19.084-36.672,41.803-48.93,66.655c-5.628,11.406-9.779,23.308-13.622,35.318c-1.306-1.111-2.611-2.222-3.912-3.337
		c16.697-51.435,49.802-97.427,95.406-127.011c11.42-7.411,23.556-13.676,36.219-18.684c1.72-0.681,3.465-1.341,5.215-1.983
		l-32.026-30.431c-15.428-14.02-31.411-26.139-47.734-35.818c-14.089,17.492-25.622,36.687-33.99,57.733
		c-9.393,23.639-15.863,48.297-24.916,72.058c-4.288,11.265-9.155,22.353-15.201,32.799c-6.017,10.392-13.364,21.31-22.587,29.149
		c-9.048,7.679-19.61,6.846-26.543-2.972c-3.596-5.091-5.744-11.181-7.834-16.999c-2.592-7.211-4.745-14.572-6.456-22.042
		c-3.108-13.583-4.458-28.127-11.415-40.473c-6.27-11.108-17.018-18.704-29.038-22.543c-26.806-8.556-53.988,1.7-76.853,15.859
		c-24.741,15.328-46.378,35.756-73.194,47.669c-11.171,4.965-23.185,8.295-35.428,8.975l-59.276,45.992
		c4.378,5.172,7.143,11.859,7.917,18.63C461.258,1762.759,455.831,1777.37,450.121,1790.403z"/>
	<path style="fill:#D6B894;" d="M630.729,1768.016c-9.01-2.256-16.701,3.169-21.873,10.07c10.351-0.844,20.89-1.661,31.576-2.446
		C638.066,1771.995,634.963,1769.075,630.729,1768.016z"/>
	<path style="fill:#D6B894;" d="M716.142,1616.527c21.364,16.414,21.013,44.692,28.073,68.41c2.075,6.977,4.365,14.114,7.557,20.672
		c2.587,5.311,6.767,11.791,13.412,11.761c6.928-0.025,12.4-6.787,16.561-11.576c4.044-4.653,7.708-9.617,11.04-14.801
		c13.121-20.399,20.945-43.581,28.409-66.494c7.522-23.099,14.738-46.524,26.285-68.014c6.536-12.166,14.355-23.552,23.039-34.261
		c-2.644-1.5-5.295-2.95-7.954-4.316c-7.517-1.208-14.353-4.368-20.041-8.917c-5.923-2.235-11.872-4.12-17.836-5.62
		c-0.69,1.086-1.363,2.172-2.095,3.234c-14.339,20.775-37.969,38.27-64.468,33.569c-12.258-2.173-21.364-9.389-28.935-18.904
		c-0.971-1.219-1.933-2.476-2.894-3.744c-1.476,0.885-2.873,1.849-4.263,2.821l-0.205-0.28l-204.576,158.727
		c51.177-6.381,85.556-57.127,134.345-71.521C673.078,1600.932,697.892,1602.501,716.142,1616.527z"/>
	<path style="fill:#D6B894;" d="M443.215,1794.857c0.493-1.002,1.014-1.99,1.487-3.002c5.695-12.185,11.201-26.027,10.811-39.678
		c-0.21-7.172-2.697-14.493-7.29-19.827l-61.051,47.369c-2.99,1.992-1.514,10.118,3.287,21.861
		C404.11,1799.739,421.956,1797.422,443.215,1794.857z"/>
	<path style="fill:#D6B894;" d="M689.916,1721.073c-8.911-27.303-39.25-38.689-65.841-32.74
		c-29.228,6.539-50.695,30.987-65.384,55.649c-7.834,13.149-14.539,26.874-21.322,40.554c20.792-2.052,42.849-4.076,65.832-5.983
		c2.527-4.183,5.651-7.959,9.702-10.8c7.201-5.052,17.472-6.465,24.95-1.203c3.123,2.197,5.514,5.288,7.414,8.735
		c15.738-1.136,31.798-2.197,48.081-3.157C693.789,1754.905,695.312,1737.605,689.916,1721.073z"/>
	<path style="fill:#D6B894;" d="M946.115,1719.543c5.15-11.459,9.076-32.536-7.347-37.169c-12.843-3.625-24.843,9.013-32.341,17.652
		c-17.566,20.233-30.297,43.963-44.17,66.829c15.671,0.014,31.271,0.186,46.728,0.551
		C923.307,1753.109,937.718,1738.206,946.115,1719.543z"/>
	<path style="fill:#D6B894;" d="M985.369,1770.915c0.658-3.563,1.473-7.068,2.379-10.537c-3.13,3.389-6.29,6.75-9.492,10.064
		C980.629,1770.598,983.01,1770.747,985.369,1770.915z"/>
	<path style="fill:#D6B894;" d="M757.949,1535.709c12.941,2.675,26.154-0.892,37.145-7.854c10.212-6.462,18.65-15.348,25.212-25.528
		c-30.167-6.626-60.659-3.344-90.225,13.039C737.494,1525.011,745.56,1533.153,757.949,1535.709z"/>
	<path style="fill:#BA9A78;" d="M954.179,1590.71c-0.005,0.002-0.008,0.004-0.013,0.005c-1.749,0.643-3.494,1.303-5.215,1.983
		c-12.663,5.008-24.799,11.274-36.219,18.684c-45.603,29.583-78.709,75.576-95.406,127.011c1.301,1.116,2.607,2.227,3.912,3.337
		c3.844-12.01,7.995-23.912,13.622-35.318c12.258-24.852,28.833-47.571,48.93-66.655c19.976-18.957,43.537-34.314,69.354-44.024
		c1.506-0.564,3.037-1.108,4.573-1.642c0.004-0.002,0.007-0.004,0.012-0.005L954.179,1590.71z"/>
	<path style="fill:#BA9A78;" d="M697.818,1742.057c-0.701-13.676-3.678-27.557-12.282-38.558
		c-7.411-9.486-18.236-15.786-29.788-18.826c-26.056-6.865-52.02,3.089-71.586,20.477c-23.338,20.745-36.667,49.447-50.144,76.984
		c-0.474,0.967-0.972,1.916-1.451,2.879c1.598-0.16,3.187-0.319,4.801-0.478c6.783-13.68,13.487-27.406,21.322-40.554
		c14.689-24.662,36.156-49.111,65.384-55.649c26.591-5.949,56.93,5.438,65.841,32.74c5.396,16.532,3.873,33.832,3.432,51.054
		c1.33-0.079,2.66-0.157,3.994-0.234C697.611,1761.623,698.301,1751.415,697.818,1742.057z"/>
	<path style="fill:#BA9A78;" d="M972.515,1770.062c1.923,0.119,3.827,0.253,5.742,0.38c3.202-3.315,6.362-6.675,9.492-10.064
		c0.131-0.496,0.245-0.996,0.379-1.49c-1.194-0.516-2.344-1.027-3.456-1.535c-2.671,2.889-5.373,5.74-8.086,8.558
		C975.242,1767.306,973.868,1768.675,972.515,1770.062z"/>
	<path style="fill:#BA9A78;" d="M948.561,1683.363c-8.512-8.891-21.159-6.309-30.422-0.151
		c-10.479,6.967-18.504,17.607-25.846,27.668c-7.625,10.451-14.407,21.486-21.028,32.595c-4.64,7.785-9.267,15.628-14.029,23.377
		c1.675-0.002,3.347,0.002,5.021,0.003c13.873-22.866,26.604-46.596,44.17-66.829c7.498-8.639,19.498-21.277,32.341-17.652
		c16.424,4.633,12.497,25.71,7.347,37.169c-8.397,18.663-22.808,33.565-37.13,47.862c1.983,0.046,3.956,0.104,5.934,0.157
		c14.444-14.464,28.214-29.423,36.156-48.59C955.806,1707.563,957.92,1693.136,948.561,1683.363z"/>
	<path style="fill:#BA9A78;" d="M619.572,1627.037c22.865-14.158,50.046-24.414,76.853-15.859
		c12.02,3.839,22.767,11.435,29.038,22.543c6.958,12.346,8.307,26.889,11.415,40.473c1.71,7.469,3.863,14.831,6.456,22.042
		c2.09,5.817,4.239,11.907,7.834,16.999c6.933,9.818,17.496,10.651,26.543,2.972c9.223-7.839,16.57-18.757,22.587-29.149
		c6.046-10.446,10.914-21.535,15.201-32.799c9.053-23.761,15.522-48.419,24.916-72.058c8.368-21.046,19.902-40.241,33.99-57.733
		c0.005-0.005,0.007-0.011,0.012-0.016c-1.296-0.765-2.592-1.506-3.888-2.241c-0.004,0.004-0.008,0.009-0.011,0.014
		c-8.683,10.709-16.503,22.095-23.039,34.261c-11.547,21.491-18.763,44.916-26.285,68.014
		c-7.464,22.914-15.288,46.095-28.409,66.494c-3.333,5.184-6.997,10.149-11.04,14.801c-4.161,4.79-9.632,11.552-16.561,11.576
		c-6.645,0.029-10.826-6.45-13.412-11.761c-3.192-6.558-5.482-13.695-7.557-20.672c-7.06-23.718-6.709-51.995-28.073-68.41
		c-18.251-14.027-43.065-15.595-64.546-9.257c-48.788,14.394-83.167,65.14-134.345,71.521c-0.011,0.001-0.022,0.005-0.033,0.006
		l-6.3,4.887c0.01,0,0.02-0.002,0.031-0.004c12.243-0.681,24.256-4.01,35.428-8.975
		C573.195,1662.793,594.832,1642.365,619.572,1627.037z"/>
	<path style="fill:#BA9A78;" d="M758.125,1540.172c26.499,4.701,50.129-12.794,64.468-33.569c0.732-1.062,1.405-2.148,2.095-3.234
		c0.003-0.005,0.006-0.011,0.01-0.016c-1.462-0.37-2.924-0.721-4.38-1.043c-0.003,0.005-0.007,0.01-0.011,0.016
		c-6.562,10.18-15,19.067-25.212,25.528c-10.992,6.962-24.205,10.529-37.145,7.854c-12.39-2.556-20.455-10.698-27.868-20.343
		c-0.003-0.005-0.008-0.008-0.01-0.012c-1.097,0.604-2.198,1.184-3.289,1.832h-0.005l-0.492,0.327
		c0.003,0.004,0.006,0.009,0.01,0.012c0.961,1.268,1.923,2.525,2.894,3.744C736.761,1530.783,745.867,1537.999,758.125,1540.172z"/>
	<path style="fill:#BA9A78;" d="M444.703,1791.855c-0.473,1.012-0.994,2-1.487,3.002c1.663-0.201,3.377-0.405,5.081-0.608
		c0.602-1.285,1.255-2.546,1.824-3.846c5.71-13.033,11.138-27.644,9.471-42.1c-0.774-6.771-3.538-13.459-7.917-18.63
		c-0.004-0.005-0.007-0.01-0.01-0.015l-3.449,2.68c0.004,0.004,0.006,0.008,0.009,0.012c4.593,5.334,7.08,12.655,7.29,19.827
		C455.904,1765.828,450.398,1779.67,444.703,1791.855z"/>
	<path style="fill:#BA9A78;" d="M637.853,1766.549c-7.479-5.262-17.749-3.849-24.95,1.203c-4.05,2.841-7.174,6.617-9.702,10.8
		c1.883-0.156,3.76-0.313,5.655-0.467c5.172-6.9,12.863-12.326,21.873-10.07c4.234,1.06,7.336,3.979,9.703,7.624
		c1.612-0.119,3.215-0.239,4.834-0.356C643.366,1771.838,640.976,1768.747,637.853,1766.549z"/>
	<path style="fill:#EE6F4E;" d="M1634.845,1890.948c0,0,122.952-2.724,0.39-14.295c-8.976-0.848-20.497-2.432-32.111-4.212
		c-128.729-163.234-169.652-291.556-181.792-343.005c-11.511,8.19-30.902,17.555-53.75,25.323
		c-9.314,3.166-18.329,5.761-26.715,7.778l-7.446,42.846c60.58,164.852,182.165,271.149,209.332,293.396
		c-3.905,22.686,13.428,43.863,36.887,44.022c38.772,0.273,88.687-1.418,98.708-11.386c5.501-5.476-56.214-6.514-56.214-6.514
		s161.876-4.034,11.829-19.644C1633.963,1905.258,1796.048,1899.46,1634.845,1890.948z"/>
	<path style="fill:#E6D4BA;" d="M1188.176,1812.854c-3.401-2.744-6.916-5.27-10.511-7.642c-15.99-2.312-32.933-5.14-50.439-8.47
		c-17.862-3.398-34.98-7.07-50.976-10.873c-13.469,6.511-23.768,18.652-30.582,31.74c-8.672,16.663-11.981,35.547-15.045,53.9
		c-3.186,19.123-6.582,38.154-12.76,56.585c-1.934,5.769-4.141,11.474-6.616,17.063l-3.273-0.01l102.937,0.336
		c6.801,0.95,13.744,1.476,20.804,1.476c51.467,0,96.831-26.124,123.566-65.832c-8.638-10.777-18.119-20.94-27.654-30.689
		C1214.963,1837.482,1202.3,1824.245,1188.176,1812.854z M1193.866,1933.355c-1.983-4.063-4.063-8.078-6.353-11.98
		c-10.704-18.28-25.266-38.826-46.781-44.751c-10.397-2.865-22.193-2.148-31.191,4.239c-8.258,5.866-12.779,15.421-15.917,24.755
		c-3.411,10.139-5.754,20.619-8.897,30.845c-0.921,2.982-1.881,5.953-2.865,8.921l-4.614-0.015
		c3.42-10.202,6.329-20.541,9.184-30.918c2.747-9.988,5.881-20.302,12.141-28.721c12.39-16.657,34.762-18.577,52.536-9.768
		c20.317,10.061,34.368,31.61,44.536,51.099c0.76,1.452,1.447,2.948,2.163,4.419
		C1196.507,1932.127,1195.187,1932.746,1193.866,1933.355z"/>
	<path style="fill:#E6D4BA;" d="M897.721,1935.49c7.357-8.4,15.975-17.223,19.527-28.054c3.454-10.533,0.921-23.162-10.363-27.503
		c-11.187-4.312-22.928,0.697-32.697,6.222c-8.975,5.077-17.467,10.991-25.608,17.31c-16.657,12.93-32.178,27.663-48.641,41.001
		l91.566,0.299l-2.22-0.009C892.112,1941.682,894.968,1938.632,897.721,1935.49z"/>
	<path style="fill:#E6D4BA;" d="M1186.919,1806.502c5.08,3.806,9.978,7.891,14.719,12.218c13.695,12.506,26.777,25.89,39.43,39.449
		c5.734,6.144,11.362,12.502,16.692,19.084c-0.709,1.134-1.424,2.262-2.161,3.375c13.336-19.978,21.957-43.36,24.305-68.569
		C1260.358,1813.893,1227.077,1811.928,1186.919,1806.502z"/>
	<path style="fill:#E6D4BA;" d="M525.521,1920.956c27.313-6.587,54.528-14.232,80.891-24.01
		c23.162-8.595,45.949-19.333,65.442-34.709c9.53-7.522,18.846-16.307,25.739-26.358c3.483-5.081,6.86-11.722,5.808-18.08
		c-1.204-7.255-8.283-9.832-14.841-9.846c-13.759-0.039-27.055,6.802-38.996,12.892c-12.117,6.173-24.292,12.175-36.726,17.686
		c-49.233,21.817-101.32,37.486-154.718,44.838c-34.572,4.76-69.587,5.944-104.296,3.099c2.365,24.005,6.626,43.618,11.111,52.07
		c1.585,2.988,3.197,4.633,4.761,4.524l32.876,0.107c12.023-1.563,24.002-3.407,35.894-5.243
		C467.69,1933.428,496.771,1927.894,525.521,1920.956z"/>
	<path style="fill:#E6D4BA;" d="M353.42,1882.267c0.046,0.534,0.103,1.047,0.151,1.578
		C353.522,1883.319,353.469,1882.801,353.42,1882.267z"/>
	<path style="fill:#E6D4BA;" d="M1021.155,1899.343c7.649-35.186,8.204-75.064,34.051-102.986c4.421-4.78,9.418-8.796,14.843-11.978
		c-34.49-8.429-63.205-17.412-81.922-25.491c-0.134,0.493-0.248,0.994-0.379,1.49c-0.906,3.469-1.721,6.974-2.379,10.537
		c-2.359-0.168-4.741-0.317-7.113-0.473c-1.915-0.127-3.819-0.261-5.742-0.38c-18.848-1.167-38.102-1.978-57.596-2.5
		c-1.978-0.053-3.951-0.111-5.934-0.157c-15.457-0.364-31.057-0.537-46.728-0.551c-1.674-0.001-3.346-0.005-5.021-0.003
		c-1.919,0.002-3.839,0.009-5.76,0.016c-45.195,0.174-90.818,1.668-135.119,3.982c-6.365,0.333-12.709,0.679-19.014,1.044
		c-1.334,0.077-2.664,0.155-3.994,0.234c-16.284,0.96-32.343,2.021-48.081,3.157c-1.619,0.117-3.223,0.237-4.834,0.356
		c-10.686,0.785-21.225,1.602-31.576,2.446c-1.895,0.155-3.772,0.311-5.655,0.467c-22.983,1.907-45.04,3.93-65.832,5.983
		c-1.614,0.16-3.204,0.319-4.801,0.478c-31.472,3.143-59.942,6.328-84.271,9.234c-1.704,0.203-3.418,0.408-5.081,0.608
		c-21.259,2.566-39.105,4.882-52.755,6.723c-19.377,2.612-30.279,4.259-30.279,4.259c-6.665,0.463-9.939,31.561-7.308,69.452
		c0.079,1.137,0.177,2.245,0.264,3.368c0.091,1.167,0.174,2.347,0.274,3.496c45.694,3.84,91.959,0.458,136.87-8.677
		c27.703-5.632,54.952-13.427,81.53-23.079c26.943-9.788,52.702-21.856,78.29-34.714c11.542-5.798,24.053-11.615,37.189-12.078
		c10.231-0.356,20.619,4.857,20.672,16.302c0.049,11.586-8.623,21.642-16.005,29.676c-8.292,9.023-17.803,16.891-27.956,23.742
		c-20.906,14.114-44.458,23.922-68.249,32.02c-28.482,9.69-57.637,17.476-87.006,23.956c-25.458,5.612-51.14,10.152-76.924,13.962
		l207.706,0.678l-7.035-0.025c6.781-2.324,13.52-4.765,20.194-7.376c43.108-16.872,83.406-39.771,120.487-67.42
		c35.81-26.714,73.262-57.189,120.19-58.095c20.078-0.38,40.151,5.496,55.376,18.894c13.861,12.2,23.123,29.583,25.759,47.834
		c3.094,21.359-4.507,40.95-14.212,59.62c-1.335,2.568-2.797,5.067-4.19,7.6l-4.765-0.014c3.225-5.808,6.28-11.703,9.154-17.676
		c5.525-11.508,10.022-23.781,10.422-36.667c0.321-10.411-1.749-20.828-5.788-30.421c-7.41-17.613-21.437-32.249-39.313-39.299
		c-20.507-8.093-43.503-6.543-64.249-0.175c-43.478,13.34-76.93,47.479-114.226,71.892c-31.946,20.916-66.235,38.119-101.99,51.346
		l147.623,0.482c6.782-5.31,13.378-10.878,19.877-16.51c16.404-14.212,32.609-28.872,50.948-40.599
		c15.206-9.725,42.231-23.079,55.489-2.889c12.979,19.766-7.265,41.413-19.528,55.332c-1.495,1.69-3.057,3.322-4.577,5.001
		l111.213,0.363C1013.009,1930.5,1017.774,1914.89,1021.155,1899.343z M352.162,1839.821c0.054-1.496,0.117-2.968,0.195-4.385
		c66.982,19.858,137.432-10.275,197.671-37.91c13.159-6.036,26.358-12.117,39.703-17.832c4.692-0.404,9.418-0.804,14.192-1.198
		c-30.607,12.336-60.112,27.274-90.519,40.092C463.943,1839.431,404.844,1854.91,352.162,1839.821z"/>
	<path style="fill:#FFEED8;" d="M513.404,1818.588c30.407-12.818,59.912-27.756,90.519-40.092
		c-4.774,0.395-9.501,0.794-14.192,1.198c-13.345,5.715-26.543,11.796-39.703,17.832c-60.239,27.635-130.689,57.769-197.671,37.91
		c-0.078,1.417-0.141,2.889-0.195,4.385C404.844,1854.91,463.943,1839.431,513.404,1818.588z"/>
	<path style="fill:#FFEED8;" d="M1017.862,1928.093c6.178-18.431,9.574-37.462,12.76-56.585c3.065-18.353,6.373-37.237,15.045-53.9
		c6.815-13.088,17.113-25.229,30.582-31.74c-2.082-0.495-4.157-0.99-6.2-1.489c-5.425,3.182-10.422,7.198-14.843,11.978
		c-25.847,27.922-26.402,67.8-34.051,102.986c-3.382,15.547-8.146,31.157-14.767,45.798l0,0l1.584,0.005l3.273,0.01
		C1013.72,1939.567,1015.927,1933.862,1017.862,1928.093z"/>
	<path style="fill:#FFEED8;" d="M1241.067,1858.169c-12.653-13.559-25.734-26.943-39.43-39.449
		c-4.741-4.327-9.638-8.412-14.719-12.218c-3.05-0.412-6.128-0.839-9.255-1.29c3.596,2.371,7.111,4.898,10.511,7.642
		c14.124,11.391,26.787,24.628,39.449,37.583c9.535,9.749,19.016,19.912,27.654,30.689l0,0c0.11-0.163,0.21-0.334,0.319-0.498
		c0.737-1.113,1.452-2.241,2.161-3.375C1252.429,1870.671,1246.802,1864.313,1241.067,1858.169z"/>
	<path style="fill:#FFEED8;" d="M1151.109,1875.962c-17.773-8.809-40.146-6.889-52.536,9.768
		c-6.261,8.419-9.394,18.733-12.141,28.721c-2.855,10.377-5.764,20.716-9.184,30.918l4.614,0.015
		c0.984-2.967,1.944-5.939,2.865-8.921c3.143-10.226,5.486-20.706,8.897-30.845c3.138-9.335,7.659-18.889,15.917-24.755
		c8.999-6.387,20.794-7.103,31.191-4.239c21.515,5.925,36.078,26.47,46.781,44.751c2.29,3.902,4.37,7.917,6.353,11.98
		c1.321-0.609,2.641-1.228,3.942-1.876c-0.716-1.471-1.403-2.967-2.163-4.419
		C1185.476,1907.572,1171.425,1886.023,1151.109,1875.962z"/>
	<path style="fill:#FFEED8;" d="M861.56,1820.722c20.745-6.368,43.742-7.918,64.249,0.175c17.876,7.05,31.902,21.686,39.313,39.299
		c4.039,9.593,6.11,20.01,5.788,30.421c-0.4,12.887-4.897,25.16-10.422,36.667c-2.874,5.973-5.929,11.868-9.154,17.676l4.765,0.014
		c1.393-2.533,2.855-5.033,4.19-7.6c9.705-18.67,17.305-38.261,14.212-59.62c-2.636-18.251-11.897-35.635-25.759-47.834
		c-15.225-13.398-35.298-19.274-55.376-18.894c-46.928,0.906-84.38,31.381-120.19,58.095
		c-37.081,27.649-77.379,50.548-120.487,67.42c-6.675,2.611-13.413,5.052-20.194,7.376l7.035,0.025l5.813,0.02
		c0,0,0.001,0,0.002-0.001c35.755-13.228,70.044-30.43,101.99-51.346C784.629,1868.201,818.081,1834.062,861.56,1820.722z"/>
	<path style="fill:#FFEED8;" d="M595.753,1905.346c23.791-8.098,47.342-17.905,68.249-32.02
		c10.153-6.85,19.664-14.719,27.956-23.742c7.381-8.034,16.054-18.09,16.005-29.676c-0.053-11.445-10.441-16.658-20.672-16.302
		c-13.136,0.463-25.647,6.28-37.189,12.078c-25.588,12.857-51.347,24.926-78.29,34.714c-26.578,9.652-53.827,17.447-81.53,23.079
		c-44.911,9.135-91.176,12.516-136.87,8.677c-0.001,0-0.002,0-0.003,0c0.004,0.038,0.007,0.074,0.011,0.113
		c0.049,0.534,0.101,1.052,0.151,1.578c0.084,0.873,0.166,1.751,0.252,2.622c0,0,0.001,0,0.002,0
		c34.708,2.845,69.723,1.661,104.296-3.099c53.398-7.352,105.486-23.021,154.718-44.838c12.434-5.51,24.609-11.513,36.726-17.686
		c11.942-6.09,25.238-12.931,38.996-12.892c6.558,0.015,13.637,2.592,14.841,9.846c1.052,6.358-2.324,12.999-5.808,18.08
		c-6.894,10.051-16.209,18.836-25.739,26.358c-19.493,15.377-42.28,26.115-65.442,34.709c-26.363,9.778-53.578,17.423-80.891,24.01
		c-28.75,6.938-57.832,12.473-87.055,16.969c-11.891,1.835-23.871,3.68-35.894,5.243c-0.011,0.002-0.022,0.004-0.033,0.005
		l29.272,0.093c0.004-0.001,0.007-0.001,0.011-0.001c25.784-3.81,51.466-8.351,76.924-13.962
		C538.116,1922.822,567.27,1915.036,595.753,1905.346z"/>
	<path style="fill:#FFEED8;" d="M919.28,1884.444c-13.257-20.19-40.283-6.835-55.489,2.889
		c-18.339,11.727-34.543,26.387-50.948,40.599c-6.5,5.632-13.095,11.2-19.877,16.51c0,0.001-0.001,0.002-0.001,0.002l6.972,0.024
		c0.001-0.002,0.003-0.002,0.003-0.003c16.463-13.339,31.984-28.072,48.641-41.001c8.141-6.319,16.633-12.234,25.608-17.31
		c9.769-5.525,21.51-10.533,32.697-6.222c11.284,4.341,13.817,16.97,10.363,27.503c-3.552,10.831-12.17,19.654-19.527,28.054
		c-2.753,3.142-5.608,6.192-8.434,9.267l2.22,0.009l3.666,0.016c0.001-0.002,0.003-0.002,0.003-0.003
		c1.52-1.679,3.083-3.311,4.577-5.001C912.015,1925.857,932.259,1904.21,919.28,1884.444z"/>
	<path style="fill:#5EA4CC;" d="M1367.581,1554.759c22.848-7.767,42.24-17.133,53.75-25.323c8.012-5.7,12.24-10.836,11.014-14.443
		c-17.062-50.196-45.135-89.772-73.319-107.994c-17.814-16.314-69.06-35.411-131.779-47.879c0.078,1.516,0.072,3.073-0.095,4.682
		c-2.202,21.628-24.263,35.084-45.369,29.885c-14.217-3.503-29.048-13.16-27.63-32.726l1.462-12.093
		c-27.099-2.219-50.154-1.932-66.272,0.765c-29.12-1.932-64.873,3.751-101.241,17.667c-4.721,1.806-5.414,12.653-2.729,28.295
		c2.247,13.087,6.85,29.519,13.515,46.935c8.406,21.968,18.21,40.617,26.683,51.913c1.134,1.512,2.235,2.862,3.314,4.1
		l-34.501,130.391l-29.524,111.578l0.156,0.03c-0.129,0.276-0.265,0.55-0.321,0.842c-0.813,4.277,6.531,9.827,19.974,15.968
		c1.112,0.508,2.262,1.019,3.456,1.535c18.717,8.079,47.432,17.062,81.922,25.491c2.042,0.499,4.118,0.994,6.2,1.489
		c15.996,3.803,33.114,7.475,50.976,10.873c17.505,3.331,34.448,6.159,50.439,8.47c3.127,0.452,6.204,0.878,9.255,1.29
		c40.158,5.426,73.44,7.391,92.984,5.557c11.382-1.068,18.12-3.417,18.826-7.123c0.056-0.292,0.029-0.598,0.01-0.901l0.156,0.029
		l34.526-198.681l7.446-42.846C1349.252,1560.52,1358.267,1557.925,1367.581,1554.759z M1277.525,1778.486
		c-20.331,2.295-67.488,2.695-141.374-6.811c-56.692-7.293-109.028-18.221-136.589-28.521l-1.048-0.4l47.22-234.616
		c2.017-6.134,4.102-12.239,6.227-18.305c3.308-9.432,10.87-25.081,21.939-14.909c4.78,4.385,6.476,10.121,7.737,16.081
		c6.336,5.432,17.583,13.693,32.429,19.023c16.905,6.078,32.5-8.109,54.244-11.969c0.07-0.326,0.18-0.666,0.236-0.986
		c2.904-16.38-2.198-31.62,11.439-28.132c12.107,3.099,8.521,16.642,2.866,28.341c4.75,0.354,9.761,1.273,15.141,3.094
		c19.369,6.557,27.393,10.301,35.522,12.314c3.788-3.994,7.141-9.426,9.598-16.821c9.384-28.229,43.099-9.238,21.613,15.05
		c-1.225,1.385-2.475,2.626-3.733,3.797c3.02-0.027,6.257-0.074,10.013-0.153c41.062-0.853,32.959,28.833,32.959,28.833
		L1277.525,1778.486z"/>
	<path style="fill:#EE6F4E;" d="M972.957,1252.341l5.779-9.417C910.97,1157.628,971.44,1250.025,972.957,1252.341z"/>
	<path style="fill:#EE6F4E;" d="M978.922,1242.622l5.398-8.794C940.985,1184.272,970.261,1229.546,978.922,1242.622z"/>
	<path style="fill:#EE6F4E;" d="M964.897,1265.471l8.049-13.113C907.487,1177.755,955.638,1251.5,964.897,1265.471z"/>
	<path style="fill:#EE6F4E;" d="M938.958,1237.156c-1.157,6.897,7.751,23.162,18.738,40.047l7.125-11.609
		C959.204,1258.066,939.755,1232.409,938.958,1237.156z"/>
	<path style="fill:#EE6F4E;" d="M870.732,1518.422c57.296,6.354,110.892-6.292,154.842-23.978
		c-8.473-11.296-18.278-29.945-26.683-51.913c-6.665-17.416-11.268-33.848-13.515-46.935c-17.728,8.82-35.059,15.283-51.889,19.752
		c20.48-40.242,51.197-70.992,83.981-114.24c5.654-6.545,7.127-15.273,4.731-23.04l-24.551,28.551
		c-2.154,2.953-12.872-1.194-23.937-9.262c-7.812-5.705-13.63-11.8-15.659-15.953c-24.295,21.105-125.494,113.295-131.819,189.809
		c-1.257,15.221,5.385,29.055,16.291,37.777c5.688,4.549,12.523,7.709,20.041,8.917
		C865.212,1518.332,867.942,1518.501,870.732,1518.422z"/>
	<path style="fill:#EE6F4E;" d="M1181.784,1393.687c21.106,5.199,43.167-8.258,45.369-29.885c0.167-1.609,0.173-3.167,0.095-4.682
		c-0.026-0.517-0.025-1.047-0.08-1.549l-8-71.116c0.524,0.138,1.04,0.291,1.594,0.358c6.602,0.799,12.599-3.902,13.398-10.504
		c0.799-6.602-3.902-12.599-10.499-13.399c-0.531-0.064-1.047-0.036-1.568-0.031c-1.585,0.015-3.099,0.335-4.499,0.921
		c-1.586,6.207-4.5,15.957-9.894,31.262c-5.619,15.942-18.395,21.961-30.942,23.709c-3.945,3.71-9.783,6.934-18.411,7.521
		l-2.73,22.577l-1.462,12.093C1152.736,1380.528,1167.567,1390.184,1181.784,1393.687z M1229.467,1274.779l-0.054,0.955
		c-0.492,3.995-3.887,6.928-7.815,6.928l-0.95-0.053c-0.492-0.058-0.843-0.507-0.784-0.994c0.058-0.492,0.506-0.843,0.999-0.785
		l0.735,0.044c3.031,0,5.661-2.266,6.037-5.354l0.021-0.345c-0.262-0.119-0.607-0.272-1.059-0.43
		c-0.974-0.336-2.324-0.672-3.795-0.672c-2.129,0.015-4.478,0.653-6.607,3.016l-1.267,0.068l-0.068-1.262
		c2.47-2.772,5.442-3.62,7.942-3.611c1.867,0.005,3.451,0.437,4.571,0.847c-0.657-2.28-2.55-4.089-5.049-4.389
		c-0.492-0.058-0.843-0.507-0.779-0.994c0.058-0.492,0.502-0.843,0.994-0.78C1226.534,1267.451,1229.467,1270.852,1229.467,1274.779
		z"/>
	<path style="fill:#C6553E;" d="M1159.228,1318.914l-0.884,7.378c0.001,0,0.001,0,0.002,0c8.628-0.587,14.465-3.811,18.411-7.521
		C1170.562,1319.633,1164.423,1319.456,1159.228,1318.914z"/>
	<path style="fill:#EE6F4E;" d="M1188.395,1265.809c15.939,6.04,19.858-10.628,20.626-15.219
		c2.433-12.094-20.225-11.16-9.461-31.905c-17.825,2.507-32.777-2.118-38.531-4.314l-9.354,29.777l0.414-0.068l0.2,1.247
		l-1.741,2.408l-1.111,3.536l1.814,0.22c0.492,0.063,0.843,0.506,0.784,0.999c-0.063,0.487-0.507,0.838-0.999,0.779l-2.146-0.258
		l-0.783,2.495l0.001,0C1159.937,1251.875,1188.395,1265.809,1188.395,1265.809z M1166.032,1244.08l-0.219-0.01
		c-0.706-0.088-1.237-0.556-1.54-1.087c-0.312-0.531-0.463-1.165-0.463-1.842l0.034-0.541c0.063-0.492,0.506-0.838,0.999-0.78
		c0.492,0.063,0.838,0.511,0.774,0.999l-0.02,0.322l0.215,0.936l0.21,0.214h0.01l0.336-0.258c0.181-0.229,0.351-0.624,0.405-1.082
		c0.058-0.487,0.506-0.838,0.999-0.775c0.487,0.058,0.838,0.507,0.775,0.994c-0.093,0.75-0.356,1.423-0.76,1.954
		C1167.386,1243.646,1166.792,1244.075,1166.032,1244.08z M1175.074,1233.074c1.355,2.129,1.608,4.365,1.608,5.803
		c0,0.936-0.107,1.539-0.112,1.583c-0.088,0.488-0.556,0.809-1.043,0.721c-0.487-0.093-0.809-0.556-0.716-1.043l0.039-0.317
		l0.044-0.945c0.005-1.228-0.229-3.128-1.325-4.838c-1.106-1.705-3.04-3.308-6.787-4.015c-0.487-0.087-0.809-0.555-0.716-1.038
		c0.088-0.487,0.555-0.809,1.043-0.721C1171.24,1229.02,1173.725,1230.949,1175.074,1233.074z"/>
	<path style="fill:#2F313E;" d="M1221.545,1267.749c-0.063,0.487,0.287,0.935,0.779,0.994c2.499,0.299,4.392,2.109,5.049,4.389
		c-1.12-0.41-2.704-0.842-4.571-0.847c-2.5-0.009-5.472,0.838-7.942,3.611l0.068,1.262l1.267-0.068
		c2.129-2.363,4.478-3.001,6.607-3.016c1.471,0,2.821,0.336,3.795,0.672c0.452,0.158,0.797,0.311,1.059,0.43l-0.021,0.345
		c-0.375,3.089-3.006,5.354-6.037,5.354l-0.735-0.044c-0.492-0.058-0.94,0.292-0.999,0.785c-0.058,0.487,0.292,0.936,0.784,0.994
		l0.95,0.053c3.927,0,7.323-2.933,7.815-6.928l0.054-0.955c0-3.927-2.933-7.327-6.928-7.81
		C1222.047,1266.906,1221.603,1267.256,1221.545,1267.749z"/>
	<path style="fill:#2F313E;" d="M1152.035,1252.489c0.058-0.492-0.292-0.936-0.784-0.999l-1.814-0.22l-1.329-0.161l2.44-3.375
		l1.741-2.408l-0.2-1.247l-0.414,0.068l-0.833,0.136v-0.005l-5.072,7.016l-0.092,0.882l0.711,0.531l2.502,0.302l2.146,0.258
		C1151.528,1253.327,1151.971,1252.976,1152.035,1252.489z"/>
	<path style="fill:#2F313E;" d="M1167.771,1240.177c-0.492-0.063-0.94,0.287-0.999,0.775c-0.054,0.458-0.224,0.853-0.405,1.082
		l-0.336,0.258h-0.01l-0.21-0.214l-0.215-0.936l0.02-0.322c0.063-0.487-0.282-0.935-0.774-0.999
		c-0.492-0.058-0.935,0.287-0.999,0.78l-0.034,0.541c0,0.677,0.151,1.31,0.463,1.842c0.302,0.531,0.833,0.999,1.54,1.087l0.219,0.01
		c0.76-0.005,1.354-0.434,1.754-0.955c0.405-0.531,0.667-1.203,0.76-1.954C1168.609,1240.684,1168.258,1240.236,1167.771,1240.177z"
		/>
	<path style="fill:#2F313E;" d="M1166.066,1228.986c-0.093,0.482,0.229,0.95,0.716,1.038c3.747,0.706,5.681,2.309,6.787,4.015
		c1.096,1.71,1.33,3.611,1.325,4.838l-0.044,0.945l-0.039,0.317c-0.092,0.487,0.229,0.95,0.716,1.043
		c0.487,0.087,0.955-0.234,1.043-0.721c0.005-0.044,0.112-0.647,0.112-1.583c0-1.437-0.253-3.674-1.608-5.803
		c-1.349-2.125-3.834-4.054-7.965-4.809C1166.621,1228.177,1166.154,1228.499,1166.066,1228.986z"/>
	<path style="fill:#92D0D4;" d="M981.52,1286.652c11.065,8.073,18.285,17.014,16.127,19.966l24.551-28.551l20.663-24.029
		c3.21-4.394-5.16-15.966-18.694-25.837c-13.53-9.876-27.099-14.319-30.305-9.92l-9.542,15.547l-5.398,8.794l-0.186,0.301
		l-5.779,9.417l-0.011,0.017l-8.049,13.113l-0.075,0.124l-7.125,11.609l-0.112,0.182
		C959.737,1274.428,970.456,1278.579,981.52,1286.652z"/>
	<path style="fill:#69BDBC;" d="M973.711,1297.356c11.065,8.068,21.783,12.215,23.937,9.262c2.158-2.952-5.062-11.893-16.127-19.966
		c-11.064-8.073-21.783-12.224-23.936-9.267c-0.634,0.867-0.376,2.292,0.468,4.018
		C960.081,1285.556,965.898,1291.651,973.711,1297.356z"/>
	<path style="fill:#7ACDF0;" d="M1230.704,1544.23c9.179,11.708,16.638-18.168,30.514-14.709c13.871,3.464,1.106,9.033-1.832,16.896
		c-2.684,7.17,1.133,11.531,8.608,9.956c4.96-1.221,9.86-2.975,14.617-4.991c6.743-2.855,13.944-7.172,21.354-7.985
		c0,0,8.102-29.686-32.959-28.833c-3.757,0.079-6.993,0.125-10.013,0.153C1240.188,1534.069,1216.182,1525.711,1230.704,1544.23z"/>
	<path style="fill:#7ACDF0;" d="M1085.969,1513.531c6.251,14.09,17.262,19.578,29.565,20.386c0.272,0.025,0.538,0.034,0.809,0.055
		c5.623,0.275,11.491-0.423,17.295-1.693c19.175-5.472,31.972-21.777,34.672-34.22c-21.744,3.861-37.338,18.047-54.244,11.969
		c-14.845-5.33-26.093-13.591-32.429-19.023c0.358,1.696,0.686,3.406,1.033,5.113
		C1082.817,1502.248,1083.591,1508.167,1085.969,1513.531z"/>
	<path style="fill:#7ACDF0;" d="M1195.508,1521.059c0,0,22.636,7.842,38.007-8.368c-8.129-2.013-16.153-5.757-35.522-12.314
		c-5.38-1.821-10.391-2.74-15.141-3.094c-0.712,1.473-1.453,2.922-2.204,4.312
		C1173.934,1514.028,1195.508,1521.059,1195.508,1521.059z"/>
	<path style="fill:#B5E0F6;" d="M1303.966,1543.397c-7.41,0.814-14.611,5.131-21.354,7.985c-4.758,2.016-9.658,3.771-14.617,4.991
		c-7.475,1.575-11.291-2.786-8.608-9.956c2.938-7.864,15.703-13.432,1.832-16.896c-13.875-3.459-21.335,26.416-30.514,14.709
		c-14.523-18.52,9.484-10.161,30.289-29.514c1.258-1.171,2.508-2.412,3.733-3.797c21.486-24.288-12.229-43.279-21.613-15.05
		c-2.457,7.395-5.81,12.827-9.598,16.821c-15.371,16.209-38.007,8.368-38.007,8.368s-21.574-7.031-14.86-19.464
		c0.75-1.39,1.491-2.838,2.204-4.312c5.655-11.699,9.241-25.242-2.866-28.341c-13.637-3.488-8.536,11.752-11.439,28.132
		c-0.056,0.32-0.166,0.66-0.236,0.986c-2.701,12.443-15.497,28.748-34.672,34.22c-5.804,1.271-11.672,1.969-17.295,1.693
		c-0.27-0.021-0.537-0.03-0.809-0.055c-12.303-0.809-23.314-6.296-29.565-20.386c-2.378-5.364-3.152-11.284-3.298-17.413
		c-0.347-1.707-0.675-3.417-1.033-5.113c-1.261-5.959-2.957-11.696-7.737-16.081c-11.069-10.173-18.63,5.477-21.939,14.909
		c-2.124,6.066-4.21,12.171-6.227,18.305l-47.22,234.616l1.048,0.4c27.561,10.3,79.897,21.228,136.589,28.521
		c73.885,9.506,121.042,9.106,141.374,6.811L1303.966,1543.397z"/>
	<path style="fill:#2F313E;" d="M1176.757,1318.77c12.547-1.748,25.323-7.767,30.942-23.709c5.395-15.305,8.308-25.055,9.894-31.262
		c1.4-0.586,2.915-0.906,4.499-0.921c3.272-5.977,6.067-12.2,8.362-17.693c0.129-0.303,0.256-0.602,0.375-0.897
		c0.164-0.395,0.341-0.812,0.5-1.197c1.123-2.743,1.866-5.554,2.322-8.379c0.352-1.933,0.417-3.075,0.417-3.075l-0.023-0.038
		c1.258-16.121-7.745-32.133-23.373-38.53c-11.981-4.906-24.991-3.201-35.063,3.379c-2.007-4.467-6.474-7.588-11.689-7.588
		c-7.084,0-12.828,5.744-12.828,12.833c0,5.16,3.065,9.578,7.458,11.615l-0.062,0.01c0,0,0.901,0.427,2.543,1.054
		c5.754,2.196,20.706,6.822,38.531,4.314c-10.764,20.745,11.894,19.811,9.461,31.905c-0.767,4.591-4.687,21.259-20.626,15.219
		c0,0-28.458-13.934-40.287-10.304l-0.001,0c-11.834,3.629-32.821,54.333-2.922,60.788c0,0,5.847,1.762,14.044,2.62
		C1164.423,1319.456,1170.562,1319.633,1176.757,1318.77z M1173.598,1272.426c2.695,3.596,1.964,8.696-1.632,11.391
		c-3.601,2.699-8.701,1.968-11.396-1.632L1173.598,1272.426z"/>
	<path style="fill:#FFFFFF;" d="M1171.966,1283.817c3.596-2.695,4.327-7.795,1.632-11.391l-13.028,9.759
		C1163.265,1285.785,1168.366,1286.516,1171.966,1283.817z"/>
</g>
</svg>
