<svg width="1080" height="1080" viewBox="0 0 1080 1080" fill="none" xmlns="http://www.w3.org/2000/svg">
<path d="M1048.99 572.659C1049.17 570.331 1049.35 568.015 1049.65 565.706C1052.88 540.886 1067.97 354.311 833.598 119.658C581.705 -132.538 306.428 150.725 258.878 224.765C211.328 298.806 197.476 412.508 160.773 337.688C138.082 291.434 197.225 233.515 113.452 257.71C59.7025 273.234 -40.1306 410.59 41.7075 646.596C123.546 882.602 353.406 1062.64 574.31 1049.51C858.38 1032.62 1025.65 826.608 1012.37 811.292C999.091 795.975 893.288 841.668 916.533 809.842C939.417 778.512 1042.31 660.228 1048.99 572.659Z" fill="#78CEFF"/>
<path opacity="0.8" d="M1048.99 572.659C1049.17 570.331 1049.35 568.015 1049.65 565.706C1052.88 540.886 1067.97 354.311 833.598 119.658C581.705 -132.538 306.428 150.725 258.878 224.765C211.328 298.806 197.476 412.508 160.773 337.688C138.082 291.434 197.225 233.515 113.452 257.71C59.7024 273.234 -40.1306 410.59 41.7075 646.596C123.546 882.602 353.406 1062.64 574.309 1049.51C858.38 1032.62 1025.65 826.608 1012.37 811.292C999.091 795.975 893.287 841.668 916.533 809.842C939.416 778.512 1042.31 660.228 1048.99 572.659Z" fill="#DFF0FF"/>
<path d="M857.859 418.554C857.859 418.554 843.855 390.547 810.248 389.148C776.64 387.748 764.039 436.759 755.637 439.558C747.234 442.359 722.029 422.755 701.025 428.356C680.022 433.957 677.22 446.561 671.619 450.76C666.018 454.961 656.216 445.159 643.613 446.558C631.009 447.958 617.008 464.763 617.008 464.763L583.4 470.364H951.678C951.678 470.364 930.674 433.957 915.271 425.555C899.869 417.152 881.664 431.155 874.663 431.155C867.661 431.155 857.859 418.554 857.859 418.554Z" stroke="#02538A" stroke-miterlimit="10" stroke-linecap="round" stroke-linejoin="round"/>
<path d="M526.444 91.4846C526.444 91.4846 516.544 71.6839 492.784 70.6946C469.024 69.7054 460.114 104.354 454.174 106.335C448.234 108.315 430.414 94.4546 415.564 98.4139C400.714 102.373 398.734 111.283 394.774 114.253C390.815 117.223 383.884 110.294 374.974 111.283C366.064 112.272 356.164 124.152 356.164 124.152L332.404 128.112H592.777C592.777 128.112 577.927 102.371 567.036 96.431C556.146 90.491 543.276 100.39 538.326 100.39C533.373 100.395 526.444 91.4846 526.444 91.4846Z" stroke="#02538A" stroke-miterlimit="10" stroke-linecap="round" stroke-linejoin="round"/>
<path d="M1021.01 167.441C1021.01 167.441 1015.82 157.06 1003.36 156.54C990.904 156.021 986.232 174.189 983.117 175.226C980.003 176.265 970.658 168.996 962.874 171.072C955.087 173.148 954.05 177.82 951.972 179.377C949.896 180.935 946.263 177.301 941.591 177.82C936.919 178.338 931.729 184.568 931.729 184.568L919.272 186.643H1055.79C1055.79 186.643 1048 173.148 1042.29 170.033C1036.58 166.918 1029.84 172.109 1027.24 172.109C1024.64 172.109 1021.01 167.441 1021.01 167.441Z" stroke="#02538A" stroke-miterlimit="10" stroke-linecap="round" stroke-linejoin="round"/>
<path d="M146.694 281.01C146.694 281.01 141.504 270.629 129.045 270.108C116.586 269.59 111.916 287.757 108.801 288.794C105.686 289.833 96.3423 282.565 88.5576 284.64C80.7708 286.716 79.734 291.388 77.6582 292.946C75.5825 294.503 71.9472 290.87 67.2773 291.388C62.6052 291.907 57.4147 298.136 57.4147 298.136L44.958 300.212H181.476C181.476 300.212 173.69 286.716 167.981 283.602C162.272 280.487 155.522 285.677 152.928 285.677C150.334 285.677 146.694 281.01 146.694 281.01Z" stroke="#02538A" stroke-miterlimit="10" stroke-linecap="round" stroke-linejoin="round"/>
<path d="M718.835 853.442C718.835 901.774 690.243 940.954 654.975 940.954C619.706 940.954 591.114 901.774 591.114 853.442C591.114 805.11 619.706 638.997 654.975 638.997C690.243 638.999 718.835 805.112 718.835 853.442Z" fill="#B8E3FF"/>
<path opacity="0.5" d="M718.835 853.442C718.835 901.774 690.243 940.954 654.975 940.954C619.706 940.954 591.114 901.774 591.114 853.442C591.114 805.11 619.706 638.997 654.975 638.997C690.243 638.999 718.835 805.112 718.835 853.442Z" fill="white"/>
<path d="M690.783 878.729L671.445 885.881L675.326 874.241L666.081 887.866L656.852 891.279L656.193 853.055L689.785 808.425L671.782 826.427L674.827 813.91L666.215 831.995L656.005 842.206L654.975 782.488L651.316 869.584L619.481 835.849L636.967 859.62L620.479 857.788L640.846 864.892L650.938 878.608L649.173 920.601L637.431 912.635L648.808 929.292L643.414 1053H659.72L656.955 897.376L690.783 878.729Z" fill="#878787"/>
<path d="M690.107 782.676C690.107 782.676 690.697 788.543 687.491 792.85C684.284 797.157 678.495 798.273 678.495 798.273C678.495 798.273 677.905 792.407 681.111 788.1C684.318 783.793 690.107 782.676 690.107 782.676Z" fill="white"/>
<path d="M709.355 809.719C709.355 809.719 709.945 815.586 706.739 819.893C703.532 824.2 697.743 825.317 697.743 825.317C697.743 825.317 697.153 819.45 700.359 815.143C703.564 810.836 709.355 809.719 709.355 809.719Z" fill="white"/>
<path d="M709.346 862.371C709.346 862.371 707.927 868.095 703.458 871.07C698.989 874.046 693.161 873.148 693.161 873.148C693.161 873.148 694.58 867.424 699.049 864.449C703.518 861.473 709.346 862.371 709.346 862.371Z" fill="white"/>
<path d="M603.64 862.371C603.64 862.371 605.059 868.095 609.528 871.07C613.997 874.046 619.825 873.148 619.825 873.148C619.825 873.148 618.406 867.424 613.937 864.449C609.468 861.473 603.64 862.371 603.64 862.371Z" fill="white"/>
<path d="M687.115 840.514C687.115 840.514 687.705 846.381 684.5 850.688C681.292 854.995 675.503 856.112 675.503 856.112C675.503 856.112 674.913 850.245 678.119 845.938C681.324 841.631 687.115 840.514 687.115 840.514Z" fill="white"/>
<path d="M682.13 753.259C682.13 753.259 682.72 759.126 679.515 763.433C676.307 767.74 670.518 768.856 670.518 768.856C670.518 768.856 669.929 762.99 673.134 758.683C676.339 754.374 682.13 753.259 682.13 753.259Z" fill="white"/>
<path d="M670.661 775.695C670.661 775.695 671.25 781.561 668.045 785.868C664.837 790.176 659.049 791.292 659.049 791.292C659.049 791.292 658.459 785.426 661.664 781.119C664.872 776.812 670.661 775.695 670.661 775.695Z" fill="white"/>
<path d="M697.885 759.359C697.885 759.359 698.475 765.225 695.27 769.532C692.062 773.839 686.273 774.956 686.273 774.956C686.273 774.956 685.683 769.09 688.889 764.783C692.096 760.476 697.885 759.359 697.885 759.359Z" fill="white"/>
<path d="M609.418 759.359C609.418 759.359 608.828 765.225 612.034 769.532C615.242 773.839 621.03 774.956 621.03 774.956C621.03 774.956 621.62 769.09 618.415 764.783C615.207 760.476 609.418 759.359 609.418 759.359Z" fill="white"/>
<path d="M684.623 725.833C684.623 725.833 685.215 731.7 682.007 736.007C678.8 740.314 673.011 741.431 673.011 741.431C673.011 741.431 672.421 735.564 675.627 731.257C678.832 726.95 684.623 725.833 684.623 725.833Z" fill="white"/>
<path d="M678.988 696.704C678.988 696.704 681.033 702.233 679.011 707.208C676.99 712.182 671.665 714.718 671.665 714.718C671.665 714.718 669.62 709.188 671.641 704.214C673.663 699.237 678.988 696.704 678.988 696.704Z" fill="white"/>
<path d="M638.604 689.092C638.604 689.092 643.827 691.829 645.658 696.876C647.49 701.924 645.235 707.372 645.235 707.372C645.235 707.372 640.012 704.635 638.181 699.587C636.349 694.539 638.604 689.092 638.604 689.092Z" fill="white"/>
<path d="M657.435 723.926C657.435 723.926 661.157 728.501 660.848 733.862C660.539 739.223 656.318 743.34 656.318 743.34C656.318 743.34 652.597 738.765 652.905 733.404C653.214 728.043 657.435 723.926 657.435 723.926Z" fill="white"/>
<path d="M656.439 672.071C656.439 672.071 660.161 676.646 659.852 682.007C659.543 687.368 655.323 691.485 655.323 691.485C655.323 691.485 651.601 686.91 651.91 681.549C652.217 676.188 656.439 672.071 656.439 672.071Z" fill="white"/>
<path d="M614.174 782.676C614.174 782.676 613.585 788.543 616.79 792.85C619.998 797.157 625.787 798.273 625.787 798.273C625.787 798.273 626.376 792.407 623.171 788.1C619.963 783.793 614.174 782.676 614.174 782.676Z" fill="white"/>
<path d="M603.204 814.588C603.204 814.588 602.614 820.454 605.82 824.761C609.027 829.069 614.816 830.185 614.816 830.185C614.816 830.185 615.406 824.319 612.2 820.012C608.993 815.702 603.204 814.588 603.204 814.588Z" fill="white"/>
<path d="M632.323 826.172C632.323 826.172 631.731 832.038 634.939 836.346C638.146 840.653 643.935 841.769 643.935 841.769C643.935 841.769 644.525 835.903 641.319 831.596C638.112 827.289 632.323 826.172 632.323 826.172Z" fill="white"/>
<path d="M640.282 781.957C640.282 781.957 638.036 787.409 639.876 792.454C641.714 797.5 646.944 800.226 646.944 800.226C646.944 800.226 649.19 794.774 647.35 789.728C645.512 784.683 640.282 781.957 640.282 781.957Z" fill="white"/>
<path d="M619.663 899.614C619.663 899.614 625.56 899.722 629.588 896.173C633.617 892.624 634.256 886.762 634.256 886.762C634.256 886.762 628.361 886.654 624.331 890.203C620.302 893.752 619.663 899.614 619.663 899.614Z" fill="white"/>
<path d="M676.238 893.166C676.238 893.166 677.838 898.841 682.402 901.673C686.964 904.504 692.762 903.42 692.762 903.42C692.762 903.42 691.159 897.746 686.597 894.914C682.033 892.082 676.238 893.166 676.238 893.166Z" fill="white"/>
<path d="M626.24 753.259C626.24 753.259 625.651 759.126 628.856 763.433C632.064 767.74 637.853 768.856 637.853 768.856C637.853 768.856 638.442 762.99 635.237 758.683C632.031 754.374 626.24 753.259 626.24 753.259Z" fill="white"/>
<path d="M626.139 727.33C626.139 727.33 625.549 733.197 628.755 737.504C631.96 741.811 637.751 742.928 637.751 742.928C637.751 742.928 638.341 737.061 635.135 732.754C631.93 728.447 626.139 727.33 626.139 727.33Z" fill="white"/>
<path d="M213.114 853.442C213.114 901.774 184.522 940.954 149.254 940.954C113.985 940.954 85.3936 901.774 85.3936 853.442C85.3936 805.11 113.985 638.997 149.254 638.997C184.522 638.997 213.114 805.112 213.114 853.442Z" fill="#B8E3FF"/>
<path opacity="0.5" d="M213.114 853.442C213.114 901.774 184.522 940.954 149.254 940.954C113.985 940.954 85.3936 901.774 85.3936 853.442C85.3936 805.11 113.985 638.997 149.254 638.997C184.522 638.997 213.114 805.112 213.114 853.442Z" fill="white"/>
<path d="M185.06 878.729L165.724 885.881L169.603 874.241L160.359 887.866L151.129 891.279L150.47 853.055L184.065 808.425L166.061 826.427L169.104 813.91L160.493 831.995L150.284 842.206L149.254 782.488L145.595 869.584L113.759 835.849L131.246 859.62L114.757 857.788L135.126 864.892L145.215 878.608L143.45 920.601L131.711 912.635L143.085 929.292L137.692 1053H153.997L151.235 897.376L185.06 878.729Z" fill="#878787"/>
<path d="M184.387 782.676C184.387 782.676 184.976 788.543 181.771 792.85C178.563 797.157 172.775 798.273 172.775 798.273C172.775 798.273 172.185 792.407 175.39 788.1C178.596 783.793 184.387 782.676 184.387 782.676Z" fill="white"/>
<path d="M203.632 809.719C203.632 809.719 204.222 815.586 201.016 819.893C197.809 824.2 192.02 825.317 192.02 825.317C192.02 825.317 191.428 819.45 194.636 815.143C197.843 810.836 203.632 809.719 203.632 809.719Z" fill="white"/>
<path d="M203.626 862.371C203.626 862.371 202.206 868.095 197.737 871.07C193.268 874.046 187.438 873.148 187.438 873.148C187.438 873.148 188.858 867.424 193.327 864.449C197.796 861.473 203.626 862.371 203.626 862.371Z" fill="white"/>
<path d="M97.9194 862.371C97.9194 862.371 99.3385 868.095 103.808 871.07C108.277 874.046 114.104 873.148 114.104 873.148C114.104 873.148 112.685 867.424 108.216 864.449C103.747 861.473 97.9194 862.371 97.9194 862.371Z" fill="white"/>
<path d="M181.395 840.514C181.395 840.514 181.985 846.381 178.779 850.688C175.572 854.995 169.783 856.112 169.783 856.112C169.783 856.112 169.193 850.245 172.399 845.938C175.604 841.631 181.395 840.514 181.395 840.514Z" fill="white"/>
<path d="M176.408 753.259C176.408 753.259 176.997 759.126 173.792 763.433C170.584 767.74 164.796 768.856 164.796 768.856C164.796 768.856 164.206 762.99 167.411 758.683C170.619 754.374 176.408 753.259 176.408 753.259Z" fill="white"/>
<path d="M164.94 775.695C164.94 775.695 165.53 781.561 162.325 785.868C159.117 790.176 153.328 791.292 153.328 791.292C153.328 791.292 152.736 785.426 155.944 781.119C159.149 776.812 164.94 775.695 164.94 775.695Z" fill="white"/>
<path d="M192.165 759.359C192.165 759.359 192.754 765.225 189.549 769.532C186.341 773.839 180.552 774.956 180.552 774.956C180.552 774.956 179.963 769.09 183.168 764.783C186.374 760.476 192.165 759.359 192.165 759.359Z" fill="white"/>
<path d="M103.695 759.359C103.695 759.359 103.106 765.225 106.311 769.532C109.519 773.839 115.308 774.956 115.308 774.956C115.308 774.956 115.897 769.09 112.692 764.783C109.486 760.476 103.695 759.359 103.695 759.359Z" fill="white"/>
<path d="M178.9 725.833C178.9 725.833 179.492 731.7 176.284 736.007C173.077 740.314 167.288 741.431 167.288 741.431C167.288 741.431 166.698 735.564 169.904 731.257C173.111 726.95 178.9 725.833 178.9 725.833Z" fill="white"/>
<path d="M173.265 696.704C173.265 696.704 175.31 702.233 173.289 707.208C171.267 712.182 165.943 714.718 165.943 714.718C165.943 714.718 163.897 709.188 165.919 704.214C167.943 699.237 173.265 696.704 173.265 696.704Z" fill="white"/>
<path d="M132.881 689.092C132.881 689.092 138.104 691.829 139.936 696.876C141.765 701.924 139.512 707.372 139.512 707.372C139.512 707.372 134.29 704.635 132.458 699.587C130.626 694.539 132.881 689.092 132.881 689.092Z" fill="white"/>
<path d="M151.714 723.926C151.714 723.926 155.436 728.501 155.127 733.862C154.818 739.223 150.598 743.34 150.598 743.34C150.598 743.34 146.876 738.765 147.185 733.404C147.494 728.043 151.714 723.926 151.714 723.926Z" fill="white"/>
<path d="M150.717 672.071C150.717 672.071 154.438 676.646 154.129 682.007C153.821 687.368 149.6 691.485 149.6 691.485C149.6 691.485 145.878 686.91 146.187 681.549C146.496 676.188 150.717 672.071 150.717 672.071Z" fill="white"/>
<path d="M108.452 782.676C108.452 782.676 107.862 788.543 111.068 792.85C114.275 797.157 120.066 798.273 120.066 798.273C120.066 798.273 120.656 792.407 117.45 788.1C114.241 783.793 108.452 782.676 108.452 782.676Z" fill="white"/>
<path d="M97.4811 814.588C97.4811 814.588 96.8915 820.454 100.097 824.761C103.304 829.069 109.093 830.185 109.093 830.185C109.093 830.185 109.683 824.319 106.478 820.012C103.272 815.702 97.4811 814.588 97.4811 814.588Z" fill="white"/>
<path d="M126.6 826.172C126.6 826.172 126.011 832.038 129.216 836.346C132.424 840.653 138.212 841.769 138.212 841.769C138.212 841.769 138.802 835.903 135.597 831.596C132.391 827.289 126.6 826.172 126.6 826.172Z" fill="white"/>
<path d="M134.562 781.957C134.562 781.957 132.315 787.409 134.156 792.454C135.994 797.5 141.223 800.226 141.223 800.226C141.223 800.226 143.47 794.774 141.629 789.728C139.789 784.683 134.562 781.957 134.562 781.957Z" fill="white"/>
<path d="M113.942 899.614C113.942 899.614 119.839 899.722 123.868 896.173C127.896 892.624 128.535 886.762 128.535 886.762C128.535 886.762 122.639 886.654 118.61 890.203C114.58 893.752 113.942 899.614 113.942 899.614Z" fill="white"/>
<path d="M170.515 893.166C170.515 893.166 172.116 898.841 176.68 901.673C181.242 904.504 187.039 903.42 187.039 903.42C187.039 903.42 185.436 897.746 180.874 894.914C176.313 892.082 170.515 893.166 170.515 893.166Z" fill="white"/>
<path d="M120.52 753.259C120.52 753.259 119.93 759.126 123.135 763.433C126.343 767.74 132.132 768.856 132.132 768.856C132.132 768.856 132.722 762.99 129.516 758.683C126.309 754.374 120.52 753.259 120.52 753.259Z" fill="white"/>
<path d="M120.418 727.33C120.418 727.33 119.828 733.197 123.034 737.504C126.242 741.811 132.03 742.928 132.03 742.928C132.03 742.928 132.62 737.061 129.415 732.754C126.209 728.447 120.418 727.33 120.418 727.33Z" fill="white"/>
<path d="M1071.16 673.225C1071.16 765.204 1016.74 839.767 949.624 839.767C882.505 839.767 828.094 765.204 828.094 673.225C828.094 581.245 882.505 265.118 949.624 265.118C1016.74 265.118 1071.16 581.245 1071.16 673.225Z" fill="#78CEFF"/>
<path opacity="0.5" d="M1071.16 673.225C1071.16 765.204 1016.74 839.767 949.624 839.767C882.505 839.767 828.094 765.204 828.094 673.225C828.094 581.245 882.505 265.118 949.624 265.118C1016.74 265.118 1071.16 581.245 1071.16 673.225Z" fill="white"/>
<path d="M1017.77 721.347L980.971 734.957L988.356 712.806L970.762 738.733L953.197 745.23L951.942 672.488L1015.87 587.552L981.61 621.812L987.405 597.989L971.015 632.409L951.586 651.838L949.627 538.19L942.663 703.942L882.077 639.74L915.356 684.979L883.976 681.493L922.739 695.015L941.939 721.116L938.583 801.034L916.238 785.871L937.887 817.573L927.625 1053H958.654L953.396 756.834L1017.77 721.347Z" fill="#878787"/>
<path d="M1016.49 538.548C1016.49 538.548 1017.61 549.713 1011.51 557.911C1005.4 566.108 994.384 568.231 994.384 568.231C994.384 568.231 993.261 557.066 999.363 548.869C1005.47 540.674 1016.49 538.548 1016.49 538.548Z" fill="white"/>
<path d="M1053.11 590.015C1053.11 590.015 1054.24 601.18 1048.14 609.377C1042.03 617.574 1031.01 619.698 1031.01 619.698C1031.01 619.698 1029.89 608.533 1035.99 600.335C1042.09 592.138 1053.11 590.015 1053.11 590.015Z" fill="white"/>
<path d="M1053.1 690.215C1053.1 690.215 1050.4 701.108 1041.89 706.772C1033.39 712.435 1022.3 710.726 1022.3 710.726C1022.3 710.726 1025 699.834 1033.5 694.17C1042.01 688.507 1053.1 690.215 1053.1 690.215Z" fill="white"/>
<path d="M851.932 690.215C851.932 690.215 854.632 701.108 863.138 706.772C871.644 712.435 882.734 710.726 882.734 710.726C882.734 710.726 880.034 699.834 871.528 694.17C863.024 688.507 851.932 690.215 851.932 690.215Z" fill="white"/>
<path d="M1010.79 648.622C1010.79 648.622 1011.91 659.787 1005.81 667.984C999.711 676.182 988.69 678.305 988.69 678.305C988.69 678.305 987.567 667.14 993.669 658.943C999.773 650.745 1010.79 648.622 1010.79 648.622Z" fill="white"/>
<path d="M1001.3 482.566C1001.3 482.566 1002.43 493.731 996.324 501.928C990.222 510.125 979.201 512.248 979.201 512.248C979.201 512.248 978.078 501.083 984.18 492.886C990.284 484.689 1001.3 482.566 1001.3 482.566Z" fill="white"/>
<path d="M979.478 525.264C979.478 525.264 980.601 536.43 974.499 544.627C968.395 552.824 957.377 554.947 957.377 554.947C957.377 554.947 956.251 543.782 962.355 535.585C968.46 527.388 979.478 525.264 979.478 525.264Z" fill="white"/>
<path d="M1031.29 494.176C1031.29 494.176 1032.41 505.341 1026.31 513.538C1020.21 521.735 1009.19 523.858 1009.19 523.858C1009.19 523.858 1008.07 512.693 1014.17 504.496C1020.27 496.299 1031.29 494.176 1031.29 494.176Z" fill="white"/>
<path d="M862.927 494.176C862.927 494.176 861.803 505.341 867.905 513.538C874.007 521.735 885.028 523.858 885.028 523.858C885.028 523.858 886.151 512.693 880.049 504.496C873.947 496.299 862.927 494.176 862.927 494.176Z" fill="white"/>
<path d="M1006.05 430.376C1006.05 430.376 1007.17 441.541 1001.07 449.738C994.965 457.935 983.945 460.058 983.945 460.058C983.945 460.058 982.821 448.893 988.923 440.696C995.028 432.499 1006.05 430.376 1006.05 430.376Z" fill="white"/>
<path d="M995.321 374.937C995.321 374.937 999.216 385.463 995.366 394.93C991.52 404.397 981.387 409.221 981.387 409.221C981.387 409.221 977.495 398.695 981.342 389.23C985.191 379.76 995.321 374.937 995.321 374.937Z" fill="white"/>
<path d="M918.469 360.45C918.469 360.45 928.409 365.658 931.893 375.263C935.377 384.871 931.085 395.239 931.085 395.239C931.085 395.239 921.145 390.031 917.659 380.426C914.177 370.818 918.469 360.45 918.469 360.45Z" fill="white"/>
<path d="M954.308 426.743C954.308 426.743 961.39 435.447 960.803 445.651C960.215 455.853 952.182 463.689 952.182 463.689C952.182 463.689 945.099 454.985 945.687 444.781C946.274 434.579 954.308 426.743 954.308 426.743Z" fill="white"/>
<path d="M952.411 328.059C952.411 328.059 959.492 336.763 958.904 346.967C958.317 357.169 950.286 365.005 950.286 365.005C950.286 365.005 943.203 356.301 943.79 346.097C944.378 335.895 952.411 328.059 952.411 328.059Z" fill="white"/>
<path d="M871.977 538.548C871.977 538.548 870.854 549.713 876.956 557.911C883.06 566.108 894.078 568.231 894.078 568.231C894.078 568.231 895.201 557.066 889.099 548.869C882.995 540.674 871.977 538.548 871.977 538.548Z" fill="white"/>
<path d="M851.1 599.279C851.1 599.279 849.977 610.444 856.079 618.641C862.183 626.838 873.201 628.962 873.201 628.962C873.201 628.962 874.325 617.797 868.223 609.599C862.118 601.402 851.1 599.279 851.1 599.279Z" fill="white"/>
<path d="M906.515 621.328C906.515 621.328 905.392 632.493 911.494 640.691C917.596 648.888 928.616 651.011 928.616 651.011C928.616 651.011 929.739 639.846 923.637 631.649C917.533 623.452 906.515 621.328 906.515 621.328Z" fill="white"/>
<path d="M921.665 537.179C921.665 537.179 917.391 547.553 920.892 557.157C924.391 566.758 934.342 571.949 934.342 571.949C934.342 571.949 938.617 561.572 935.116 551.971C931.614 542.37 921.665 537.179 921.665 537.179Z" fill="white"/>
<path d="M882.425 761.093C882.425 761.093 893.644 761.298 901.314 754.544C908.982 747.79 910.196 736.633 910.196 736.633C910.196 736.633 898.975 736.428 891.307 743.183C883.639 749.937 882.425 761.093 882.425 761.093Z" fill="white"/>
<path d="M990.09 748.82C990.09 748.82 993.138 759.62 1001.82 765.009C1010.5 770.399 1021.54 768.334 1021.54 768.334C1021.54 768.334 1018.49 757.534 1009.8 752.144C1001.12 746.757 990.09 748.82 990.09 748.82Z" fill="white"/>
<path d="M894.942 482.566C894.942 482.566 893.818 493.731 899.92 501.928C906.025 510.125 917.043 512.248 917.043 512.248C917.043 512.248 918.166 501.083 912.064 492.886C905.96 484.689 894.942 482.566 894.942 482.566Z" fill="white"/>
<path d="M894.75 433.223C894.75 433.223 893.627 444.388 899.729 452.585C905.831 460.782 916.851 462.905 916.851 462.905C916.851 462.905 917.974 451.74 911.872 443.543C905.768 435.346 894.75 433.223 894.75 433.223Z" fill="white"/>
<path d="M945.335 1053V1031.13L954.159 938.848L803.09 934.718C803.09 934.718 796.785 946.3 792.563 955.13C788.34 963.958 757.249 1033.82 757.249 1033.82L752.454 1053H945.335Z" fill="#263238" stroke="#263238" stroke-miterlimit="10" stroke-linecap="round" stroke-linejoin="round"/>
<path d="M876.612 637.194C876.612 637.194 859.278 628.718 845.409 631.031C831.542 633.342 812.666 636.809 802.265 636.809C791.865 636.809 767.595 632.187 767.595 632.187C767.595 632.187 764.128 625.638 777.226 613.695C790.325 601.752 804.192 587.885 804.963 583.263C805.734 578.64 806.503 575.558 806.503 575.558L765.67 579.025C765.67 579.025 766.442 583.263 762.588 592.123C758.737 600.983 727.218 620.827 715.275 639.703C703.333 658.58 704.305 655.899 712.01 665.528C719.714 675.16 739.057 683.273 774.051 688.09C819.625 694.362 850.418 685.346 850.418 685.346L879.31 643.743L876.612 637.194Z" fill="white" stroke="#263238" stroke-miterlimit="10" stroke-linecap="round" stroke-linejoin="round"/>
<path d="M823.453 654.914C823.453 654.914 835.395 676.102 836.935 687.658" stroke="#263238" stroke-miterlimit="10" stroke-linecap="round" stroke-linejoin="round"/>
<path d="M746.151 662.04C743.988 662.154 741.641 662.103 739.087 661.848" stroke="#263238" stroke-miterlimit="10" stroke-linecap="round" stroke-linejoin="round"/>
<path d="M768.364 635.267C768.364 635.267 772.215 642.587 769.135 648.365C766.796 652.752 761.793 659.357 751.093 661.444" stroke="#263238" stroke-miterlimit="10" stroke-linecap="round" stroke-linejoin="round"/>
<path d="M864.32 505.764C864.32 505.764 855.833 516.018 856.187 521.675C856.542 527.332 858.308 529.101 855.481 532.634C852.651 536.17 845.227 539 845.934 543.242C846.64 547.484 853.36 550.668 853.36 550.668C853.36 550.668 850.178 555.265 850.885 557.74C851.591 560.215 851.591 560.215 851.591 560.215C851.591 560.215 848.055 564.458 848.761 566.579C849.468 568.7 850.528 571.882 850.528 571.882C850.528 571.882 847.699 582.135 850.174 587.086C852.649 592.037 860.427 595.218 869.62 594.864C878.813 594.51 885.531 615.019 886.592 621.382C887.652 627.746 886.946 630.93 885.531 633.051C884.116 635.172 868.206 635.172 855.123 646.134C842.039 657.096 836.382 670.531 833.201 701.646C830.019 732.761 823.301 828.58 823.301 828.58L813.709 893.998L803.086 934.716C803.086 934.716 874.489 954.191 905.766 951.24C937.043 948.29 954.154 938.848 954.154 938.848C954.154 938.848 942.942 850.921 942.942 845.02C942.942 839.119 980.12 697.492 980.12 697.492C980.12 697.492 988.971 664.446 986.61 653.823C984.249 643.201 961.826 626.089 955.334 619.596C948.843 613.105 937.63 600.713 937.63 589.501C937.63 578.288 959.431 549.677 962.161 535.412C964.894 521.148 962.161 508.099 962.161 508.099C962.161 508.099 964.894 516.901 966.108 512.045C967.322 507.19 960.645 498.995 960.645 498.995C960.645 498.995 965.198 499.297 963.073 492.62C960.947 485.944 956.396 481.998 956.396 485.032C956.396 488.067 956.396 490.193 956.092 491.102C955.787 492.013 951.236 489.281 929.688 476.23C908.14 463.18 884.468 466.519 882.95 468.34C881.433 470.161 885.075 461.056 877.183 465.912C869.292 470.768 857.76 480.784 858.974 492.011C860.196 503.243 864.32 505.764 864.32 505.764Z" fill="white" stroke="#263238" stroke-miterlimit="10" stroke-linecap="round" stroke-linejoin="round"/>
<path d="M909.058 540.27C910.879 541.786 911.79 545.126 913.611 541.179C915.432 537.233 919.681 530.254 929.999 532.984C940.317 535.715 938.497 546.642 936.676 553.319C935.01 559.427 936.648 578.487 939.263 582.612C944.361 569.173 959.891 547.307 962.17 535.412C964.903 521.148 962.17 508.099 962.17 508.099C962.17 508.099 964.903 516.901 966.116 512.045C967.33 507.19 960.654 498.995 960.654 498.995C960.654 498.995 965.207 499.297 963.082 492.62C960.956 485.944 956.405 481.998 956.405 485.032C956.405 488.067 956.405 490.193 956.101 491.102C955.796 492.013 951.245 489.281 929.697 476.23C908.149 463.18 884.477 466.519 882.959 468.34C881.44 470.161 885.084 461.056 877.191 465.912C869.301 470.768 857.769 480.784 858.983 492.011C860.166 502.965 864.11 505.626 864.303 505.749C864.186 505.656 863.866 504.801 875.068 498.081C887.207 490.797 905.416 497.474 898.133 505.062C890.849 512.65 896.007 515.38 903.595 520.843C911.181 526.31 907.237 538.752 909.058 540.27Z" fill="#263238" stroke="#263238" stroke-miterlimit="10" stroke-linecap="round" stroke-linejoin="round"/>
<path d="M919.074 539.358C919.074 539.358 927.571 530.556 933.641 535.11C939.71 539.663 936.069 553.016 932.427 556.353C928.785 559.693 916.948 565.762 914.521 560.602" fill="white"/>
<path d="M919.074 539.358C919.074 539.358 927.571 530.556 933.641 535.11C939.71 539.663 936.069 553.016 932.427 556.353C928.785 559.693 916.948 565.762 914.521 560.602" stroke="#263238" stroke-miterlimit="10" stroke-linecap="round" stroke-linejoin="round"/>
<path d="M866.162 521.074C866.162 521.074 874.156 516.294 883.563 522.668" stroke="#263238" stroke-width="2" stroke-miterlimit="10" stroke-linecap="round" stroke-linejoin="round"/>
<path d="M866.337 531.166C866.337 531.166 870.67 535.492 880.226 531.166" stroke="#263238" stroke-miterlimit="10" stroke-linecap="round" stroke-linejoin="round"/>
<path d="M869.625 594.866C869.625 594.866 885.993 596.11 894.793 587.917C894.793 587.917 887.812 603.396 882.047 607.038C882.047 607.038 876.019 594.534 869.625 594.866Z" fill="#263238" stroke="#263238" stroke-miterlimit="10" stroke-linecap="round" stroke-linejoin="round"/>
<path d="M960.243 624.089C958.109 624.555 954.277 625.573 949.119 627.674C940.924 631.014 908.451 658.022 893.884 668.343C879.317 678.661 865.659 682.91 860.803 673.501C855.948 664.092 865.052 650.739 868.391 644.974C871.731 639.207 879.621 638.6 882.959 635.869C884.147 634.897 884.859 634.008 885.302 633.258C883.006 635.183 867.767 635.548 855.127 646.136C842.044 657.096 836.387 670.533 833.205 701.648C830.023 732.763 823.306 828.582 823.306 828.582L813.713 894L803.09 934.718C803.09 934.718 874.493 954.193 905.77 951.242C937.047 948.292 954.159 938.851 954.159 938.851C954.159 938.851 942.946 850.923 942.946 845.022C942.946 839.121 980.124 697.494 980.124 697.494C980.124 697.494 988.976 664.448 986.615 653.826C984.684 645.132 969.32 632.096 960.243 624.089Z" fill="#069BF1" stroke="#263238" stroke-miterlimit="10" stroke-linecap="round" stroke-linejoin="round"/>
<path d="M920.113 812.197C923.081 814.834 925.882 816.983 928.407 818.45" stroke="#263238" stroke-miterlimit="10" stroke-linecap="round" stroke-linejoin="round"/>
<path d="M870.39 751.306C870.39 751.306 895.608 788.264 915.862 808.205" stroke="#263238" stroke-miterlimit="10" stroke-linecap="round" stroke-linejoin="round"/>
<path d="M891.698 935.924C897.713 937.496 904.096 938.995 910.807 940.356" stroke="#263238" stroke-miterlimit="10" stroke-linecap="round" stroke-linejoin="round"/>
<path d="M831.276 913.628C831.276 913.628 850.064 923.804 880.967 932.936" stroke="#263238" stroke-miterlimit="10" stroke-linecap="round" stroke-linejoin="round"/>
<path d="M836.49 925.361C836.49 925.361 876.908 941.006 898.42 941.658" stroke="#263238" stroke-miterlimit="10" stroke-linecap="round" stroke-linejoin="round"/>
<path d="M789.204 580.872C789.204 580.872 776.574 585.535 777.157 590.393C777.74 595.251 781.626 597.776 784.929 597.776" stroke="#263238" stroke-miterlimit="10" stroke-linecap="round" stroke-linejoin="round"/>
<path d="M835.549 554.321C836.398 563.33 835.381 570.793 833.275 570.992C831.171 571.19 828.775 564.047 827.926 555.04C827.078 546.033 828.095 538.568 830.199 538.369C832.305 538.17 834.698 545.311 835.549 554.321Z" fill="white" stroke="#263238" stroke-miterlimit="10" stroke-linecap="round" stroke-linejoin="round"/>
<path d="M845.347 553.401C844.498 544.391 842.102 537.25 839.999 537.449L830.199 538.367L833.275 570.989L843.074 570.072C845.178 569.873 846.196 562.41 845.347 553.401Z" fill="#069BF1" stroke="#263238" stroke-miterlimit="10" stroke-linecap="round" stroke-linejoin="round"/>
<path d="M733.56 543.238C733.56 543.238 735.4 541.976 738.53 541.475C741.66 540.974 823.552 535.965 826.807 536.717C830.062 537.468 830.199 538.369 830.199 538.369L833.274 570.992C833.274 570.992 831.443 573.407 826.684 574.281C821.926 575.158 741.537 579.792 739.91 580.042C738.282 580.293 737.824 579.403 736.99 579.597C736.152 579.792 733.56 543.238 733.56 543.238Z" fill="white" stroke="#263238" stroke-miterlimit="10" stroke-linecap="round" stroke-linejoin="round"/>
<path d="M785.899 538.125C785.899 538.125 784.344 535.211 782.013 534.434C779.683 533.656 773.464 534.045 774.047 536.183C774.63 538.322 774.63 538.322 774.63 538.322L785.899 538.125Z" fill="white" stroke="#263238" stroke-miterlimit="10" stroke-linecap="round" stroke-linejoin="round"/>
<path d="M801.833 536.959C801.833 536.959 797.559 532.878 793.867 533.656C791.016 534.257 791.923 537.931 791.923 537.931L801.833 536.959Z" fill="white" stroke="#263238" stroke-miterlimit="10" stroke-linecap="round" stroke-linejoin="round"/>
<path d="M814.657 536.57C814.657 536.57 810.382 532.49 806.691 533.267C803.84 533.868 804.747 537.542 804.747 537.542L814.657 536.57Z" fill="white" stroke="#263238" stroke-miterlimit="10" stroke-linecap="round" stroke-linejoin="round"/>
<path d="M813.685 539.873C813.685 539.873 814.463 550.949 812.519 556.971C810.575 562.995 808.244 569.017 808.244 569.017" stroke="#263238" stroke-miterlimit="10" stroke-linecap="round" stroke-linejoin="round"/>
<path d="M793.479 540.65C793.479 540.65 797.17 546.869 796.004 549.394C794.837 551.919 794.254 553.474 794.254 553.474" stroke="#263238" stroke-miterlimit="10" stroke-linecap="round" stroke-linejoin="round"/>
<path d="M786.288 540.845C786.288 540.845 789.202 546.286 789.591 549.977" stroke="#263238" stroke-miterlimit="10" stroke-linecap="round" stroke-linejoin="round"/>
<path d="M777.544 541.622C777.544 541.622 780.264 547.646 780.458 550.56C780.652 553.474 779.68 555.807 778.903 555.612C778.125 555.418 769.77 546.286 766.662 544.73" stroke="#263238" stroke-miterlimit="10" stroke-linecap="round" stroke-linejoin="round"/>
<path d="M760.446 549.199C760.446 549.199 767.829 556.777 768.606 559.693C769.384 562.607 766.468 574.072 766.468 574.072" stroke="#263238" stroke-miterlimit="10" stroke-linecap="round" stroke-linejoin="round"/>
<path d="M844.776 548.227H850.412C850.412 548.227 852.161 550.366 852.356 554.833C852.55 559.302 850.995 562.41 850.995 562.41L845.36 563.188C845.36 563.188 846.524 552.502 844.776 548.227Z" fill="#069BF1" stroke="#263238" stroke-miterlimit="10" stroke-linecap="round" stroke-linejoin="round"/>
<path d="M843.23 955.897C842.551 983.28 838.929 1010.44 840.113 1037.58" stroke="#8A8A8A" stroke-miterlimit="10" stroke-linecap="round" stroke-linejoin="round"/>
<path d="M812.523 989.291C812.523 989.291 824.422 1029.6 830.563 1041.11" stroke="#8A8A8A" stroke-miterlimit="10" stroke-linecap="round" stroke-linejoin="round"/>
<path d="M739.656 555.418L734.498 555.69C735.327 566.263 736.483 579.716 736.99 579.597C737.826 579.403 738.284 580.293 739.91 580.042C741.539 579.792 821.926 575.158 826.684 574.281C831.443 573.404 833.274 570.992 833.274 570.992L831.825 555.61L739.656 555.418Z" fill="#069BF1" stroke="#263238" stroke-miterlimit="10" stroke-linecap="round" stroke-linejoin="round"/>
<path d="M791.578 599.633C791.578 599.633 804.872 589.663 807.92 585.783C810.968 581.906 810.579 581.26 809.996 579.705C809.413 578.15 807.858 576.402 806.693 573.292C805.527 570.184 800.863 568.629 799.116 573.875C797.366 579.122 799.505 582.619 800.282 583.785C801.06 584.952 801.06 586.116 801.06 586.116" fill="white"/>
<path d="M791.578 599.633C791.578 599.633 804.872 589.663 807.92 585.783C810.968 581.906 810.579 581.26 809.996 579.705C809.413 578.15 807.858 576.402 806.693 573.292C805.527 570.184 800.863 568.629 799.116 573.875C797.366 579.122 799.505 582.619 800.282 583.785C801.06 584.952 801.06 586.116 801.06 586.116" stroke="#263238" stroke-miterlimit="10" stroke-linecap="round" stroke-linejoin="round"/>
<path d="M739.521 561.017C740.468 571.057 739.334 579.375 736.988 579.597C734.642 579.817 731.972 571.858 731.026 561.818C730.08 551.779 731.214 543.46 733.56 543.238C735.906 543.015 738.575 550.977 739.521 561.017Z" fill="white" stroke="#263238" stroke-miterlimit="10" stroke-linecap="round" stroke-linejoin="round"/>
<path d="M968.295 631.8C968.295 631.8 952.502 632.571 935.936 656.454C919.371 680.337 919.758 711.156 928.232 725.023C936.708 738.891 947.493 748.907 947.493 748.907L961.36 816.705C961.36 816.705 949.417 858.693 946.721 875.645C944.026 892.594 912.822 958.852 912.438 960.008C912.053 961.163 890.479 987.358 890.095 990.44C889.71 993.522 881.621 1014.32 879.694 1018.56C877.768 1022.8 879.694 1023.95 883.932 1022.8C888.17 1021.64 893.564 1015.48 893.564 1015.48C893.564 1015.48 891.253 1030.5 890.482 1034.74C889.71 1038.98 883.932 1038.98 886.244 1042.83C888.555 1046.68 899.726 1041.68 901.653 1040.9C903.58 1040.13 922.456 1038.59 927.847 1033.97C933.241 1029.35 938.634 1019.72 939.403 1012.4C940.174 1005.08 940.943 980.811 943.255 969.639C945.566 958.468 996.03 884.505 1002.58 866.015C1009.13 847.526 1012.59 820.558 1011.82 815.936C1011.05 811.313 1011.82 735.424 1010.28 710.001C1008.74 684.575 997.572 657.225 991.023 647.594C984.474 637.965 968.295 631.8 968.295 631.8Z" fill="white" stroke="#263238" stroke-miterlimit="10" stroke-linecap="round" stroke-linejoin="round"/>
<path d="M947.492 748.907L942.339 720.896C942.339 720.896 935.509 716.625 930.385 708.942" stroke="#263238" stroke-miterlimit="10" stroke-linecap="round" stroke-linejoin="round"/>
<path d="M901.651 1040.91C901.651 1040.91 906.904 1033.82 907.759 1029.98C908.613 1026.14 911.602 1010.77 911.602 1010.77" stroke="#263238" stroke-miterlimit="10" stroke-linecap="round" stroke-linejoin="round"/>
<path d="M914.589 1038.09C914.589 1038.09 918.004 1033.39 918.004 1029.55C918.004 1025.71 921.847 1009.91 921.847 1009.91" stroke="#263238" stroke-miterlimit="10" stroke-linecap="round" stroke-linejoin="round"/>
<path d="M921.847 1036.38C921.847 1036.38 926.115 1034.67 927.823 1024.86C929.532 1015.04 932.092 1008.63 932.092 1008.63" stroke="#263238" stroke-miterlimit="10" stroke-linecap="round" stroke-linejoin="round"/>
<path d="M893.562 1015.48L896.659 992.838" stroke="#263238" stroke-miterlimit="10" stroke-linecap="round" stroke-linejoin="round"/>
<path d="M285.401 282.662C285.401 282.662 292.898 286.09 303.082 278.05C313.267 270.009 341.267 256.56 348.235 279.612C355.203 302.664 345.554 318.745 338.051 323.032C330.545 327.32 307.495 319.816 301.063 310.703C294.628 301.588 275.752 289.094 285.401 282.662Z" fill="#263238" stroke="#263238" stroke-miterlimit="10" stroke-linecap="round" stroke-linejoin="round"/>
<path d="M262.323 1053H532.913L519.568 953.288C519.568 948.661 515.596 859.503 518.488 834.056C521.38 808.609 535.261 798.198 531.79 768.701C528.318 739.204 465.856 632.206 465.856 632.206C465.856 632.206 443.299 591.142 422.478 574.37C401.658 557.597 383.149 552.971 368.69 552.971C354.231 552.971 263.429 603.288 255.331 622.374C247.233 641.459 279.044 930.642 279.044 930.642L262.323 1053Z" fill="#78CEFF" stroke="#263238" stroke-miterlimit="10" stroke-linecap="round" stroke-linejoin="round"/>
<path d="M429.315 1001.31C433.322 1002.87 437.331 1004.39 441.325 1005.85" stroke="#263238" stroke-miterlimit="10" stroke-linecap="round" stroke-linejoin="round"/>
<path d="M315.833 947.931C315.833 947.931 367.128 976.231 421.383 998.16" stroke="#263238" stroke-miterlimit="10" stroke-linecap="round" stroke-linejoin="round"/>
<path d="M300.237 963.524C300.237 963.524 345.535 976.89 353.702 978.376" stroke="#263238" stroke-miterlimit="10" stroke-linecap="round" stroke-linejoin="round"/>
<path d="M404.632 869.441C400.265 870.499 395.668 871.424 390.83 872.189" stroke="#263238" stroke-miterlimit="10" stroke-linecap="round" stroke-linejoin="round"/>
<path d="M482.909 810.557C482.909 810.557 469.793 848.761 416.083 866.208" stroke="#263238" stroke-miterlimit="10" stroke-linecap="round" stroke-linejoin="round"/>
<path d="M208.891 1053H299.68L292.349 918.497C292.349 918.497 312.014 776.22 311.435 749.615C310.856 723.01 309.701 656.497 287.144 631.05C264.587 605.604 246.08 611.386 246.08 611.386C246.08 611.386 224.102 620.06 216.004 654.763C207.906 689.466 202.124 894.784 202.124 894.784C202.124 894.784 202.703 910.978 203.28 932.379C203.798 951.441 207.984 1034.98 208.891 1053Z" fill="white" stroke="#263238" stroke-miterlimit="10" stroke-linecap="round" stroke-linejoin="round"/>
<path d="M573.983 407.296C573.983 407.296 578.992 433.419 580.783 444.513C582.571 455.607 579.351 458.827 599.75 477.077C620.147 495.327 699.589 573.696 726.429 613.418C753.267 653.139 768.299 674.611 764.003 688.208C759.709 701.808 733.227 714.69 717.483 717.552C701.736 720.414 648.775 724.352 603.687 722.205C558.597 720.058 533.907 716.478 533.907 716.478L463.411 565.823C463.411 565.823 520.666 598.028 562.894 608.764C605.12 619.499 631.601 625.584 631.601 625.584C631.601 625.584 602.973 563.317 575.061 533.615C547.149 503.913 532.118 489.957 522.815 476.716C513.51 463.476 500.627 411.588 500.627 411.588L573.983 407.296Z" fill="white" stroke="#263238" stroke-miterlimit="10" stroke-linecap="round" stroke-linejoin="round"/>
<path d="M483.254 574.759C483.254 574.759 548.32 615.593 576.761 643.101C605.202 670.609 616.133 688.055 611.003 696.913C605.875 705.771 576.761 722.585 576.761 722.585C576.761 722.585 569.508 703.441 537.803 662.876C506.099 622.315 483.254 574.759 483.254 574.759Z" stroke="#263238" stroke-miterlimit="10" stroke-linecap="round" stroke-linejoin="round"/>
<path d="M395.6 529.533C395.6 529.533 427.304 531.863 452.015 543.985C476.725 556.107 539.667 627.908 569.041 684.323C598.415 740.737 598.415 751.928 598.415 751.928C598.415 751.928 586.293 759.389 559.716 768.714C533.14 778.038 526.148 780.369 522.418 776.639C518.687 772.908 493.51 711.832 466.936 654.951C440.361 598.069 396.533 572.426 396.533 572.426L395.6 529.533Z" fill="white" stroke="#263238" stroke-miterlimit="10" stroke-linecap="round" stroke-linejoin="round"/>
<path d="M448.53 589.425C451.883 593.242 455.231 597.542 458.503 602.389" stroke="#263238" stroke-miterlimit="10" stroke-linecap="round" stroke-linejoin="round"/>
<path d="M401.311 559.738C401.311 559.738 421.507 562.263 443.057 583.608" stroke="#263238" stroke-miterlimit="10" stroke-linecap="round" stroke-linejoin="round"/>
<path d="M293.557 294.084C293.557 294.084 317.679 294.084 335.906 306.413C354.132 318.743 363.78 339.114 371.284 341.794C378.79 344.475 407.736 340.723 412.56 347.691C417.385 354.659 412.56 365.381 409.879 368.598C407.199 371.814 422.208 377.175 423.818 378.782C425.427 380.391 427.034 385.75 425.427 387.895C423.818 390.04 428.643 386.824 432.395 389.502C436.147 392.183 434.54 400.76 434.54 400.76C434.54 400.76 450.621 415.77 449.014 425.954C447.407 436.139 436.149 449.004 420.068 455.974C403.987 462.942 394.874 479.561 395.945 510.116C397.016 540.672 400.77 572.298 400.77 572.298C400.77 572.298 453.304 627.512 457.056 665.036C460.808 702.559 414.707 733.115 380.935 704.169C347.163 675.222 308.566 594.276 297.311 578.731C286.053 563.185 296.239 514.94 266.755 487.065C237.271 459.19 202.964 415.234 205.109 383.07C207.252 350.905 231.91 298.907 293.557 294.084Z" fill="white" stroke="#263238" stroke-miterlimit="10" stroke-linecap="round" stroke-linejoin="round"/>
<path d="M365.869 349.955C365.869 349.955 368.262 358.88 350.916 361.627" stroke="#263238" stroke-width="2" stroke-miterlimit="10" stroke-linecap="round" stroke-linejoin="round"/>
<path d="M356.057 328.184C356.057 328.184 341.734 321.898 332.688 342.328" stroke="#263238" stroke-width="2" stroke-miterlimit="10" stroke-linecap="round" stroke-linejoin="round"/>
<path d="M345.555 469.372C345.555 469.372 349.842 476.34 366.461 473.124C383.078 469.908 397.552 463.476 397.552 463.476" stroke="#263238" stroke-miterlimit="10" stroke-linecap="round" stroke-linejoin="round"/>
<path d="M148.822 437.746C148.822 437.746 110.983 445.271 85.3522 464.495C59.7216 483.717 43.7031 535.62 50.7512 572.143C57.7992 608.666 73.8178 636.219 64.2058 647.112C54.5938 658.005 36.6528 673.382 39.2167 702.858C41.7807 732.333 79.585 754.119 67.4091 768.856C55.2353 783.594 39.8561 806.019 57.1577 831.01C74.4593 855.999 99.4484 854.719 99.4484 861.767C99.4484 868.815 81.5074 867.534 85.9937 873.301C90.48 879.068 112.264 871.379 123.157 866.894C134.049 862.408 163.525 848.953 171.214 814.352C178.904 779.751 166.089 768.217 171.214 757.966C176.34 747.714 205.815 735.538 204.532 686.202C203.251 636.863 194.281 575.992 169.292 540.11C144.303 504.228 142.381 460.015 159.68 447.841C159.68 447.835 158.468 431.501 148.822 437.746Z" fill="#263238" stroke="#263238" stroke-miterlimit="10" stroke-linecap="round" stroke-linejoin="round"/>
<path d="M250.136 284.971C250.136 284.971 290.876 268.354 297.844 275.322C304.813 282.29 316.07 314.991 313.926 340.721C311.781 366.45 304.277 373.956 311.781 382.534C319.285 391.111 327.862 405.583 322.501 413.625C317.14 421.667 285.513 416.305 282.297 424.883C279.08 433.46 281.225 466.158 288.729 475.809C296.233 485.458 311.779 510.652 296.771 527.271C281.761 543.888 256.567 550.858 227.083 540.136C197.601 529.416 176.694 496.716 179.911 475.273C183.127 453.831 152.036 458.657 148.819 437.75C145.603 416.843 144.532 399.153 154.181 369.135C163.831 339.111 173.156 309.569 250.136 284.971Z" fill="#263238" stroke="#263238" stroke-miterlimit="10" stroke-linecap="round" stroke-linejoin="round"/>
<path d="M149.876 683.124C153.394 696.511 154.565 710.003 151.714 723.926C139.817 782.011 70.2473 749.611 90.2619 723.879C110.274 698.147 125.524 720.066 125.524 720.066" stroke="#828282" stroke-miterlimit="10" stroke-linecap="round" stroke-linejoin="round"/>
<path d="M99.3554 518.361C98.0443 527.338 97.7203 537.371 98.837 548.526C103.52 595.356 133.55 634.252 146.914 673.369" stroke="#828282" stroke-miterlimit="10" stroke-linecap="round" stroke-linejoin="round"/>
<path d="M136.957 455.131C136.957 455.131 114.512 468.504 103.764 499.98" stroke="#828282" stroke-miterlimit="10" stroke-linecap="round" stroke-linejoin="round"/>
<path d="M190.173 668.63C191.931 678.549 191.586 688.269 188.419 698.147" stroke="#828282" stroke-miterlimit="10" stroke-linecap="round" stroke-linejoin="round"/>
<path d="M140.769 467.519C140.769 467.519 110.272 518.028 140.769 571.396C158.809 602.966 176.426 628.29 185.297 651.549" stroke="#828282" stroke-miterlimit="10" stroke-linecap="round" stroke-linejoin="round"/>
<path d="M270.212 349.114C266.384 367.567 259.584 387.24 247.506 398.902C219.869 425.587 171.264 441.787 166.501 438.929" stroke="#828282" stroke-miterlimit="10" stroke-linecap="round" stroke-linejoin="round"/>
<path d="M275.143 303.603C275.143 303.603 275.143 316.47 272.898 333.228" stroke="#828282" stroke-miterlimit="10" stroke-linecap="round" stroke-linejoin="round"/>
<path d="M249.242 463.072C254.515 461.676 259.71 459.713 264.658 457.039" stroke="#828282" stroke-miterlimit="10" stroke-linecap="round" stroke-linejoin="round"/>
<path d="M181.749 458.942C181.749 458.942 205.737 467.577 232.269 465.787" stroke="#828282" stroke-miterlimit="10" stroke-linecap="round" stroke-linejoin="round"/>
<path d="M287.831 533.697C287.831 533.697 278.86 533.697 275.657 541.387C272.454 549.076 270.531 553.561 270.531 553.561C270.531 553.561 250.668 551.638 247.465 561.889C244.261 572.141 244.901 575.986 244.901 575.986C244.901 575.986 233.366 582.392 233.366 593.927C233.366 605.461 238.492 611.226 247.462 616.354C256.433 621.48 284.627 641.984 292.956 662.487C301.285 682.992 289.753 771.416 305.772 781.026C321.79 790.638 355.11 791.277 355.11 791.277C355.11 791.277 356.391 814.344 367.284 818.83C378.177 823.316 410.214 822.033 439.689 800.248C469.165 778.462 481.339 757.318 476.854 747.706C472.368 738.094 443.534 720.794 424.954 677.223C406.374 633.651 356.393 570.216 330.763 552.275C305.132 534.336 287.831 533.697 287.831 533.697Z" fill="white" stroke="#263238" stroke-miterlimit="10" stroke-linecap="round" stroke-linejoin="round"/>
<path d="M355.11 791.279L352.894 773.153" stroke="#263238" stroke-miterlimit="10" stroke-linecap="round" stroke-linejoin="round"/>
<path d="M278.221 556.122C278.221 556.122 324.356 575.986 349.985 617.635" stroke="#263238" stroke-miterlimit="10" stroke-linecap="round" stroke-linejoin="round"/>
<path d="M300.244 613.079C303.311 617.635 306.253 622.76 308.977 628.528" stroke="#263238" stroke-miterlimit="10" stroke-linecap="round" stroke-linejoin="round"/>
<path d="M251.31 577.269C251.31 577.269 276.24 580.831 297.158 608.733" stroke="#263238" stroke-miterlimit="10" stroke-linecap="round" stroke-linejoin="round"/>
<path d="M305.772 781.028C305.772 781.028 298.723 768.213 321.151 766.932C343.578 765.651 354.469 774.621 364.722 777.825C374.974 781.028 415.342 784.231 439.692 761.806C439.692 761.806 424.954 738.739 414.703 704.138C404.451 669.537 399.323 634.297 379.46 606.744" fill="white"/>
<path d="M305.772 781.028C305.772 781.028 298.723 768.213 321.151 766.932C343.578 765.651 354.469 774.621 364.722 777.825C374.974 781.028 415.342 784.231 439.692 761.806C439.692 761.806 424.954 738.739 414.703 704.138C404.451 669.537 399.323 634.297 379.46 606.744" stroke="#263238" stroke-miterlimit="10" stroke-linecap="round" stroke-linejoin="round"/>
<path d="M360.322 647.803C361.253 651.119 362.113 654.575 362.8 658.003" stroke="#263238" stroke-miterlimit="10" stroke-linecap="round" stroke-linejoin="round"/>
<path d="M352.548 625.324C352.548 625.324 355.121 631.405 357.864 639.751" stroke="#263238" stroke-miterlimit="10" stroke-linecap="round" stroke-linejoin="round"/>
<path d="M467.046 346.864C467.046 346.864 466.987 339.306 463.765 337.874C460.544 336.442 454.103 338.589 453.029 344.315C451.956 350.041 453.528 357.407 453.528 357.407C453.528 357.407 462.037 349.369 467.046 346.864Z" fill="white" stroke="#263238" stroke-miterlimit="10" stroke-linecap="round" stroke-linejoin="round"/>
<path d="M519.331 335.774C519.331 335.774 518.268 331.37 513.408 330.154C508.548 328.938 503.688 332.433 502.776 335.621C501.865 338.811 503.383 341.241 508.548 342.455C513.712 343.671 518.419 342.606 519.484 340.632C520.547 338.66 519.331 335.774 519.331 335.774Z" fill="white" stroke="#263238" stroke-miterlimit="10" stroke-linecap="round" stroke-linejoin="round"/>
<path d="M539.075 336.686C539.075 336.686 538.012 332.281 533.152 331.065C528.292 329.849 523.432 333.344 522.521 336.532C521.609 339.723 523.128 342.153 528.292 343.367C533.457 344.583 538.164 343.518 539.229 341.544C540.291 339.571 539.075 336.686 539.075 336.686Z" fill="white" stroke="#263238" stroke-miterlimit="10" stroke-linecap="round" stroke-linejoin="round"/>
<path d="M571.048 334.677C571.048 334.677 570.199 331.931 566.427 331.206C562.656 330.48 558.913 332.696 558.224 334.696C557.535 336.696 558.725 338.204 562.731 338.928C566.738 339.651 570.378 338.954 571.19 337.714C572.004 336.472 571.048 334.677 571.048 334.677Z" fill="white" stroke="#263238" stroke-miterlimit="10" stroke-linecap="round" stroke-linejoin="round"/>
<path d="M696.308 375.704L695.125 362.696C695.125 362.696 698.259 352.322 695.319 343.334C692.382 334.346 684.867 334.409 680.566 333.778C676.266 333.148 615.069 332.659 609.008 335.381C602.947 338.103 601.156 337.783 601.156 337.783L524.241 340.766L517.441 340.822C517.441 340.822 488.799 339.394 473.453 344.196C458.106 348.998 448.211 364.103 448.211 364.103L440.696 364.165L440.811 377.851L440.925 391.535L448.44 391.472C448.44 391.472 458.585 406.408 474.012 410.951C489.439 415.493 518.052 413.586 518.052 413.586L524.852 413.53L601.806 415.219C601.806 415.219 603.593 414.871 609.699 417.489C615.805 420.109 676.987 418.593 681.275 417.889C685.563 417.185 693.077 417.122 695.866 408.087C698.652 399.051 695.345 388.731 695.345 388.731L696.308 375.704Z" fill="white" stroke="#263238" stroke-miterlimit="10" stroke-linecap="round" stroke-linejoin="round"/>
<path d="M696.308 375.704L695.125 362.696C695.125 362.696 698.259 352.322 695.319 343.334C692.381 334.346 684.867 334.409 680.566 333.778C680.205 333.726 679.415 333.675 678.32 333.625L443.837 380.64L440.852 382.38L440.929 391.535L448.444 391.472C448.444 391.472 458.589 406.408 474.016 410.951C489.443 415.493 518.056 413.586 518.056 413.586L524.856 413.53L601.81 415.219C601.81 415.219 603.597 414.871 609.703 417.489C615.809 420.109 676.991 418.593 681.279 417.889C685.567 417.185 693.081 417.122 695.87 408.087C698.656 399.051 695.349 388.731 695.349 388.731L696.308 375.704Z" fill="#78CEFF" stroke="#263238" stroke-miterlimit="10" stroke-linecap="round" stroke-linejoin="round"/>
<path d="M441.412 362.7L435.686 362.748L435.939 392.807L441.665 392.759L441.412 362.7Z" fill="#78CEFF" stroke="#263238" stroke-miterlimit="10" stroke-linecap="round" stroke-linejoin="round"/>
<path d="M435.346 364.533L426.758 364.606L426.986 391.802L435.574 391.73L435.346 364.533Z" fill="white" stroke="#263238" stroke-miterlimit="10" stroke-linecap="round" stroke-linejoin="round"/>
<path d="M536.051 492.823C527.105 489.961 511.36 469.921 503.846 459.186C496.331 448.451 494.899 429.842 494.899 420.895C494.899 411.949 506.349 398.708 506.349 398.708C506.349 398.708 509.928 385.826 517.443 390.478C524.958 395.131 523.525 412.307 521.737 418.033C519.948 423.76 518.516 424.475 519.59 426.263C520.663 428.051 529.61 429.125 543.566 438.43C557.522 447.736 555.375 464.553 555.375 464.553" fill="white"/>
<path d="M536.051 492.823C527.105 489.961 511.36 469.921 503.846 459.186C496.331 448.451 494.899 429.842 494.899 420.895C494.899 411.949 506.349 398.708 506.349 398.708C506.349 398.708 509.928 385.826 517.443 390.478C524.958 395.131 523.525 412.307 521.737 418.033C519.948 423.76 518.516 424.475 519.59 426.263C520.663 428.051 529.61 429.125 543.566 438.43C557.522 447.736 555.375 464.553 555.375 464.553" stroke="#263238" stroke-miterlimit="10" stroke-linecap="round" stroke-linejoin="round"/>
<path d="M470.564 351.829C470.564 351.829 470.564 360.776 477.006 368.647C483.447 376.52 489.173 382.962 494.182 382.603" stroke="#263238" stroke-miterlimit="10" stroke-linecap="round" stroke-linejoin="round"/>
<path d="M502.772 346.103C502.772 346.103 508.498 366.144 504.204 373.658" stroke="#263238" stroke-miterlimit="10" stroke-linecap="round" stroke-linejoin="round"/>
<path d="M522.096 351.114C522.096 351.114 522.454 376.523 525.675 375.805C528.895 375.09 525.675 355.409 525.675 355.409" stroke="#263238" stroke-miterlimit="10" stroke-linecap="round" stroke-linejoin="round"/>
<path d="M540.704 343.241C540.704 343.241 545.713 355.767 545.713 364.712C545.713 373.658 546.072 377.952 550.007 377.952" stroke="#263238" stroke-miterlimit="10" stroke-linecap="round" stroke-linejoin="round"/>
<path d="M560.742 343.241C560.742 343.241 560.384 348.609 561.816 353.618C563.248 358.627 557.88 369.364 557.88 369.364" stroke="#263238" stroke-miterlimit="10" stroke-linecap="round" stroke-linejoin="round"/>
<path d="M575.056 341.453C575.056 341.453 577.918 366.144 574.698 376.881C571.477 387.616 573.266 401.572 573.266 401.572" stroke="#263238" stroke-miterlimit="10" stroke-linecap="round" stroke-linejoin="round"/>
<path d="M456.967 365.429C456.967 365.429 464.123 384.752 468.061 392.984C471.997 401.213 479.87 409.802 479.87 409.802" stroke="#263238" stroke-miterlimit="10" stroke-linecap="round" stroke-linejoin="round"/>
<path d="M685.789 670.179C691.051 671.453 696.71 672.181 702.773 672.181" stroke="#263238" stroke-miterlimit="10" stroke-linecap="round" stroke-linejoin="round"/>
<path d="M631.597 625.586C631.597 625.586 644.885 652.899 672.885 665.703" stroke="#263238" stroke-miterlimit="10" stroke-linecap="round" stroke-linejoin="round"/>
<path d="M304.815 421.664C304.815 421.664 283.908 410.406 271.043 421.664C258.178 432.922 281.763 455.972 301.063 461.869C320.36 467.765 327.331 459.724 327.866 452.22" fill="white"/>
<path d="M304.815 421.664C304.815 421.664 283.908 410.406 271.043 421.664C258.178 432.922 281.763 455.972 301.063 461.869C320.36 467.765 327.331 459.724 327.866 452.22" stroke="#263238" stroke-miterlimit="10" stroke-linecap="round" stroke-linejoin="round"/>
<path d="M264.853 144.69C273.176 109.918 251.736 74.9828 216.965 66.6591C182.193 58.3354 147.258 79.7755 138.934 114.547C130.61 149.318 152.051 184.254 186.822 192.577C221.593 200.901 256.529 179.461 264.853 144.69Z" fill="#069BF1"/>
<path d="M200.174 207.708V230.113" stroke="#069BF1" stroke-miterlimit="10"/>
<path d="M200.174 31.2703V53.676" stroke="#069BF1" stroke-miterlimit="10"/>
<path d="M123.159 130.693H100.753" stroke="#069BF1" stroke-miterlimit="10"/>
<path d="M299.597 130.693H277.191" stroke="#069BF1" stroke-miterlimit="10"/>
<path d="M145.716 185.151L129.875 200.992" stroke="#069BF1" stroke-miterlimit="10"/>
<path d="M270.475 60.3914L254.634 76.2329" stroke="#069BF1" stroke-miterlimit="10"/>
<path d="M254.634 185.151L270.475 200.992" stroke="#069BF1" stroke-miterlimit="10"/>
<path d="M129.875 60.3914L145.716 76.2329" stroke="#069BF1" stroke-miterlimit="10"/>
</svg>
