<svg width="1261" height="1024" viewBox="0 0 1261 1024" fill="none" xmlns="http://www.w3.org/2000/svg">
<g clip-path="url(#clip0_8_236)">
<path d="M1205.28 625.486C1203.9 628.148 1202.45 630.764 1200.97 633.365C1143.84 732.947 1010.96 794.793 786.87 762.06C659.631 742.591 605.443 814.004 552.972 887.151C552.075 888.413 551.178 889.676 550.266 890.938C495.318 967.645 440.917 1044.56 304.893 1018.99C160.69 996.179 71.6936 879.013 57.9223 753.923C57.7545 752.402 57.6031 750.865 57.4658 749.344C49.7292 668.242 73.6389 584.265 134.636 520.868C171.482 482.584 223.831 462.247 277.866 462.886C294.136 463.189 310.399 461.983 326.446 459.281C329.987 458.658 333.423 457.973 336.767 457.197C405.608 441.455 437.33 394.652 456.786 337.537C457.242 336.183 457.698 334.829 458.139 333.46C502.812 197.251 482.155 6.07099 725.021 34.1951C942.352 50.2269 1101.85 170.815 1180.08 309.945C1180.86 311.344 1181.63 312.744 1182.39 314.143C1203.89 352.747 1219.24 394.476 1227.87 437.819C1228.36 440.253 1228.8 442.687 1229.21 445.12C1240.27 509.734 1233.02 572.538 1205.28 625.486Z" fill="#DFF0FF"/>
<path d="M1182.39 314.143C1166.8 332.687 1149.23 349.472 1130 364.201C1055.08 421.696 960.181 452.878 866.564 459.418C818.453 462.803 770.106 459.517 722.894 449.653C674.861 439.584 629.048 421.848 584.679 401.132C541.526 380.978 499.651 358.253 456.786 337.537C457.243 336.183 457.698 334.829 458.139 333.46C504.879 355.972 550.662 380.78 597.949 402.227C642.5 422.442 688.617 438.93 736.847 447.752C784.968 456.494 834.079 458.419 882.737 453.471C976.096 444.071 1071.07 409.604 1142.84 347.941C1156.32 336.364 1168.78 323.653 1180.08 309.945C1180.86 311.344 1181.63 312.744 1182.39 314.143Z" fill="white"/>
<path d="M858.02 1.43078C857.911 1.43078 857.802 1.43425 857.693 1.44122C742.49 8.66365 652.247 104.889 652.247 220.509C652.247 336.13 742.49 432.356 857.693 439.577C858.381 439.623 859.072 439.527 859.721 439.293C860.37 439.06 860.964 438.695 861.466 438.221C861.966 437.755 862.364 437.19 862.635 436.563C862.907 435.935 863.045 435.258 863.043 434.574V6.44446C863.04 5.11351 862.509 3.8381 861.567 2.89814C860.626 1.95819 859.35 1.4305 858.02 1.43078Z" fill="#78CEFF"/>
<path d="M1034.16 366.802C1032.45 366.801 1030.81 366.123 1029.6 364.916L880.647 215.857C880.048 215.261 879.573 214.552 879.249 213.771C878.926 212.99 878.761 212.152 878.763 211.307V6.4446C878.759 5.56554 878.938 4.69526 879.287 3.88854C879.636 3.08181 880.148 2.35607 880.791 1.75698C881.435 1.15047 882.198 0.682827 883.03 0.383024C883.863 0.0832207 884.748 -0.0423488 885.631 0.0140575C1001.58 7.28317 1092.42 104.137 1092.42 220.509C1092.42 273.37 1073.48 324.48 1039.04 364.561C1038.46 365.232 1037.75 365.778 1036.95 366.163C1036.15 366.547 1035.28 366.764 1034.4 366.798C1034.32 366.801 1034.24 366.802 1034.16 366.802Z" fill="#78CEFF"/>
<path d="M885.22 441.018C883.576 441.017 881.994 440.39 880.794 439.265C880.15 438.666 879.637 437.939 879.288 437.132C878.938 436.324 878.759 435.453 878.763 434.573V249.734C878.763 248.461 879.14 247.217 879.847 246.159C880.554 245.1 881.558 244.276 882.733 243.789C883.908 243.301 885.201 243.174 886.448 243.422C887.696 243.67 888.841 244.283 889.741 245.183L1019.72 375.255C1020.34 375.873 1020.83 376.611 1021.15 377.423C1021.47 378.235 1021.63 379.105 1021.61 379.979C1021.58 380.853 1021.38 381.713 1021.02 382.507C1020.65 383.302 1020.13 384.013 1019.48 384.599C982.476 417.939 935.312 437.812 885.62 441.006C885.487 441.014 885.353 441.018 885.22 441.018Z" fill="#069BF1"/>
<path d="M1229.21 445.12C1208.35 482.127 1178.91 514.769 1145.2 540.642C1070.28 598.137 975.381 629.319 881.764 635.859C833.653 639.244 785.306 635.958 738.094 626.094C690.061 616.025 644.248 598.289 599.879 577.573C554.705 556.476 510.914 532.55 465.936 511.058C421.006 489.58 374.828 471.267 326.446 459.281C329.987 458.658 333.423 457.973 336.767 457.197C339.928 458.019 343.08 458.87 346.221 459.753C440.826 486.219 524.32 538.375 613.149 578.668C657.7 598.883 703.817 615.371 752.047 624.193C800.168 632.935 849.279 634.86 897.937 629.912C991.296 620.512 1086.27 586.045 1158.04 524.382C1186.45 500.081 1210.12 470.734 1227.87 437.819C1228.36 440.253 1228.8 442.687 1229.21 445.12Z" fill="white"/>
<path d="M289.981 770.046C383.187 796.117 465.602 847.132 552.972 887.151C552.075 888.413 551.178 889.676 550.266 890.938C548.047 889.919 545.844 888.9 543.639 887.866C498.465 866.769 454.674 842.843 409.696 821.351C363.807 799.417 316.626 780.784 267.12 768.814C198.688 752.319 127.998 747.288 57.9223 753.923C57.7545 752.402 57.6031 750.865 57.4658 749.344C135.584 741.965 214.392 748.982 289.981 770.046Z" fill="white"/>
<path d="M836.639 672.347H695.594C693.561 672.347 691.611 671.539 690.174 670.101C688.736 668.662 687.928 666.711 687.928 664.677C687.928 662.642 688.736 660.691 690.174 659.253C691.611 657.814 693.561 657.006 695.594 657.006H836.639C838.672 657.006 840.622 657.814 842.06 659.253C843.497 660.691 844.305 662.642 844.305 664.677C844.305 666.711 843.497 668.662 842.06 670.101C840.622 671.539 838.672 672.347 836.639 672.347Z" fill="#78CEFF"/>
<path d="M653.434 680.018C650.25 680.018 647.138 679.073 644.49 677.303C641.843 675.533 639.78 673.017 638.561 670.074C637.343 667.131 637.024 663.892 637.645 660.767C638.267 657.642 639.8 654.772 642.051 652.519C644.302 650.266 647.171 648.732 650.293 648.111C653.416 647.489 656.652 647.808 659.594 649.027C662.535 650.246 665.049 652.311 666.818 654.96C668.587 657.609 669.531 660.724 669.531 663.91C669.526 668.18 667.829 672.275 664.811 675.295C661.793 678.315 657.701 680.013 653.434 680.018Z" fill="#31B5FF"/>
<path d="M836.639 718.372H695.594C693.561 718.372 691.611 717.564 690.174 716.125C688.736 714.687 687.928 712.735 687.928 710.701C687.928 708.667 688.736 706.716 690.174 705.277C691.611 703.839 693.561 703.03 695.594 703.03H836.639C838.672 703.03 840.622 703.839 842.06 705.277C843.497 706.716 844.305 708.667 844.305 710.701C844.305 712.735 843.497 714.687 842.06 716.125C840.622 717.564 838.672 718.372 836.639 718.372Z" fill="#78CEFF"/>
<path d="M653.434 726.043C650.25 726.043 647.137 725.098 644.49 723.328C641.843 721.558 639.78 719.042 638.561 716.099C637.343 713.155 637.024 709.916 637.645 706.791C638.266 703.667 639.8 700.797 642.051 698.544C644.302 696.291 647.171 694.757 650.293 694.135C653.416 693.514 656.652 693.832 659.594 695.052C662.535 696.271 665.049 698.336 666.818 700.985C668.587 703.634 669.531 706.748 669.531 709.934C669.526 714.205 667.829 718.299 664.811 721.319C661.793 724.339 657.701 726.038 653.434 726.043Z" fill="#31B5FF"/>
<path d="M836.639 764.396H695.594C693.561 764.396 691.611 763.588 690.174 762.15C688.736 760.711 687.928 758.76 687.928 756.726C687.928 754.691 688.736 752.74 690.174 751.302C691.611 749.863 693.561 749.055 695.594 749.055H836.639C838.672 749.055 840.622 749.863 842.06 751.302C843.497 752.74 844.305 754.691 844.305 756.726C844.305 758.76 843.497 760.711 842.06 762.15C840.622 763.588 838.672 764.396 836.639 764.396Z" fill="#78CEFF"/>
<path d="M653.434 772.067C650.25 772.067 647.138 771.122 644.49 769.352C641.843 767.582 639.78 765.067 638.561 762.123C637.343 759.18 637.024 755.941 637.645 752.816C638.267 749.691 639.8 746.821 642.051 744.568C644.302 742.315 647.171 740.781 650.293 740.16C653.416 739.538 656.652 739.857 659.594 741.076C662.535 742.295 665.049 744.36 666.818 747.009C668.587 749.658 669.531 752.773 669.531 755.959C669.526 760.229 667.829 764.324 664.811 767.344C661.793 770.364 657.701 772.062 653.434 772.067Z" fill="#31B5FF"/>
<path d="M877.163 710.494H935.421C935.828 710.494 936.218 710.333 936.505 710.045C936.793 709.757 936.954 709.367 936.954 708.96V348.556C936.954 348.149 936.793 347.759 936.505 347.472C936.218 347.184 935.828 347.022 935.421 347.022C935.015 347.022 934.625 347.184 934.337 347.472C934.05 347.759 933.888 348.149 933.888 348.556V707.426H877.163C876.962 707.425 876.762 707.464 876.575 707.541C876.388 707.618 876.219 707.731 876.076 707.874C875.933 708.016 875.82 708.185 875.742 708.372C875.665 708.558 875.625 708.758 875.625 708.96C875.625 709.162 875.665 709.362 875.742 709.548C875.82 709.735 875.933 709.904 876.076 710.047C876.219 710.189 876.388 710.302 876.575 710.379C876.762 710.456 876.962 710.495 877.163 710.494Z" fill="#78CEFF"/>
<path d="M1126.8 113C1122.9 113.314 1119 112.465 1115.59 110.561C1112.18 108.656 1109.4 105.781 1107.62 102.3C1105.84 98.8188 1105.13 94.8873 1105.59 91.0027C1106.04 87.1182 1107.63 83.455 1110.16 80.4765C1112.7 77.498 1116.05 75.3379 1119.81 74.2694C1123.57 73.2009 1127.57 73.272 1131.28 74.4736C1135 75.6753 1138.28 77.9536 1140.71 81.0203C1143.13 84.0871 1144.6 87.8047 1144.91 91.7029C1145.33 96.9302 1143.66 102.111 1140.26 106.105C1136.87 110.099 1132.02 112.579 1126.8 113ZM1126.56 109.968C1129.85 109.702 1133 108.465 1135.59 106.411C1138.18 104.358 1140.11 101.581 1141.12 98.4316C1142.14 95.2825 1142.2 91.9026 1141.3 88.7194C1140.39 85.5361 1138.57 82.6924 1136.05 80.5479C1133.53 78.4034 1130.43 77.0545 1127.15 76.6716C1123.86 76.2887 1120.54 76.8891 1117.59 78.3968C1114.65 79.9046 1112.22 82.252 1110.61 85.1422C1109 88.0324 1108.28 91.3356 1108.55 94.6341C1108.72 96.8243 1109.33 98.9582 1110.33 100.914C1111.33 102.87 1112.71 104.61 1114.38 106.033C1116.05 107.457 1117.99 108.538 1120.08 109.213C1122.17 109.888 1124.37 110.145 1126.56 109.968Z" fill="#78CEFF"/>
<path d="M1194.84 62.2632C1201.56 62.2632 1207 56.8152 1207 50.0948C1207 43.3744 1201.56 37.9265 1194.84 37.9265C1188.13 37.9265 1182.68 43.3744 1182.68 50.0948C1182.68 56.8152 1188.13 62.2632 1194.84 62.2632Z" fill="#78CEFF"/>
<path d="M1254.61 18.257C1258.14 18.257 1261 15.3952 1261 11.8651C1261 8.33493 1258.14 5.47318 1254.61 5.47318C1251.08 5.47318 1248.22 8.33493 1248.22 11.8651C1248.22 15.3952 1251.08 18.257 1254.61 18.257Z" fill="#78CEFF"/>
<path d="M1033.95 502.206C1031.8 505.468 1028.72 508.019 1025.12 509.534C1021.52 511.049 1017.55 511.461 1013.71 510.718C1009.87 509.975 1006.34 508.11 1003.57 505.359C1000.79 502.607 998.888 499.094 998.106 495.262C997.324 491.43 997.695 487.453 999.172 483.832C1000.65 480.211 1003.17 477.11 1006.4 474.92C1009.64 472.731 1013.46 471.552 1017.36 471.531C1021.27 471.511 1025.1 472.651 1028.36 474.807C1032.73 477.702 1035.77 482.213 1036.82 487.349C1037.87 492.486 1036.84 497.828 1033.95 502.206ZM1003.52 482.081C1001.69 484.842 1000.73 488.082 1000.75 491.391C1000.76 494.7 1001.76 497.93 1003.61 500.672C1005.46 503.414 1008.09 505.545 1011.15 506.795C1014.21 508.046 1017.57 508.36 1020.81 507.698C1024.05 507.035 1027.02 505.427 1029.35 503.075C1031.68 500.723 1033.25 497.733 1033.88 494.484C1034.51 491.235 1034.16 487.873 1032.88 484.822C1031.6 481.772 1029.44 479.17 1026.68 477.345C1022.98 474.904 1018.46 474.032 1014.12 474.919C1009.78 475.807 1005.96 478.383 1003.52 482.081Z" fill="#78CEFF"/>
<path d="M1057.62 574.927C1064.34 574.927 1069.78 569.479 1069.78 562.759C1069.78 556.038 1064.34 550.591 1057.62 550.591C1050.91 550.591 1045.46 556.038 1045.46 562.759C1045.46 569.479 1050.91 574.927 1057.62 574.927Z" fill="#78CEFF"/>
<path d="M1091.54 631.496C1095.07 631.496 1097.93 628.634 1097.93 625.104C1097.93 621.574 1095.07 618.712 1091.54 618.712C1088.02 618.712 1085.16 621.574 1085.16 625.104C1085.16 628.634 1088.02 631.496 1091.54 631.496Z" fill="#78CEFF"/>
<path d="M543.3 170.106C541.561 166.603 540.898 162.664 541.397 158.785C541.895 154.906 543.532 151.262 546.099 148.314C548.667 145.366 552.051 143.246 555.823 142.222C559.595 141.198 563.586 141.317 567.29 142.562C570.995 143.808 574.247 146.125 576.635 149.221C579.024 152.316 580.442 156.051 580.709 159.953C580.977 163.854 580.082 167.748 578.138 171.141C576.194 174.533 573.289 177.273 569.789 179.014C565.095 181.341 559.67 181.711 554.704 180.041C549.738 178.371 545.637 174.798 543.3 170.106ZM575.969 153.86C574.497 150.897 572.18 148.436 569.311 146.791C566.442 145.145 563.15 144.387 559.851 144.614C556.552 144.84 553.394 146.04 550.777 148.063C548.159 150.085 546.2 152.839 545.146 155.976C544.093 159.113 543.993 162.492 544.858 165.686C545.724 168.879 547.517 171.745 550.009 173.919C552.502 176.093 555.584 177.479 558.863 177.901C562.143 178.323 565.475 177.762 568.436 176.289C572.404 174.311 575.425 170.838 576.837 166.633C578.249 162.428 577.937 157.835 575.969 153.86Z" fill="#78CEFF"/>
<path d="M479.079 172.377C485.795 172.377 491.239 166.929 491.239 160.209C491.239 153.488 485.795 148.04 479.079 148.04C472.364 148.04 466.919 153.488 466.919 160.209C466.919 166.929 472.364 172.377 479.079 172.377Z" fill="#78CEFF"/>
<path d="M408.168 164.674C411.696 164.674 414.556 161.812 414.556 158.282C414.556 154.752 411.696 151.89 408.168 151.89C404.641 151.89 401.781 154.752 401.781 158.282C401.781 161.812 404.641 164.674 408.168 164.674Z" fill="#78CEFF"/>
<path d="M538.831 825.751H83.0623C82.5153 825.751 81.9908 825.534 81.6041 825.147C81.2173 824.76 81 824.235 81 823.688C81 823.141 81.2173 822.616 81.6041 822.229C81.9908 821.842 82.5153 821.624 83.0623 821.624H538.831C539.378 821.624 539.902 821.842 540.289 822.229C540.676 822.616 540.893 823.141 540.893 823.688C540.893 824.235 540.676 824.76 540.289 825.147C539.902 825.534 539.378 825.751 538.831 825.751Z" fill="#78CEFF"/>
<path d="M439.012 825.751H179.99C179.443 825.751 178.919 825.534 178.532 825.147C178.145 824.76 177.928 824.235 177.928 823.688C177.928 823.141 178.145 822.616 178.532 822.229C178.919 821.842 179.443 821.624 179.99 821.624H439.012C439.559 821.624 440.084 821.842 440.47 822.229C440.857 822.616 441.074 823.141 441.074 823.688C441.074 824.235 440.857 824.76 440.47 825.147C440.084 825.534 439.559 825.751 439.012 825.751Z" fill="#069BF1"/>
<path d="M311.978 825.751C311.431 825.751 310.906 825.534 310.519 825.147C310.133 824.76 309.915 824.235 309.915 823.688V693.693C309.915 693.145 310.133 692.621 310.519 692.234C310.906 691.847 311.431 691.629 311.978 691.629C312.525 691.629 313.049 691.847 313.436 692.234C313.823 692.621 314.04 693.145 314.04 693.693V823.688C314.04 824.235 313.823 824.76 313.436 825.147C313.049 825.534 312.525 825.751 311.978 825.751Z" fill="#069BF1"/>
<path d="M441.903 825.751C441.356 825.751 440.831 825.534 440.444 825.147C440.058 824.76 439.84 824.235 439.84 823.688V563.698C439.84 563.15 440.058 562.625 440.444 562.239C440.831 561.852 441.356 561.634 441.903 561.634C442.45 561.634 442.974 561.852 443.361 562.239C443.748 562.625 443.965 563.15 443.965 563.698V823.688C443.965 824.235 443.748 824.76 443.361 825.147C442.974 825.534 442.45 825.751 441.903 825.751Z" fill="#069BF1"/>
<path d="M538.831 565.761H83.0623C82.5153 565.761 81.9908 565.544 81.6041 565.157C81.2173 564.77 81 564.245 81 563.698C81 563.15 81.2173 562.625 81.6041 562.239C81.9908 561.852 82.5153 561.634 83.0623 561.634H538.831C539.378 561.634 539.902 561.852 540.289 562.239C540.676 562.625 540.893 563.15 540.893 563.698C540.893 564.245 540.676 564.77 540.289 565.157C539.902 565.544 539.378 565.761 538.831 565.761Z" fill="#78CEFF"/>
<path d="M538.831 695.756H83.0623C82.5153 695.756 81.9908 695.539 81.6041 695.152C81.2173 694.765 81 694.24 81 693.693C81 693.145 81.2173 692.621 81.6041 692.234C81.9908 691.847 82.5153 691.629 83.0623 691.629H538.831C539.378 691.629 539.902 691.847 540.289 692.234C540.676 692.621 540.893 693.145 540.893 693.693C540.893 694.24 540.676 694.765 540.289 695.152C539.902 695.539 539.378 695.756 538.831 695.756Z" fill="#78CEFF"/>
<path d="M181.022 846.385C193.55 846.385 203.707 836.223 203.707 823.688C203.707 811.152 193.55 800.99 181.022 800.99C168.493 800.99 158.336 811.152 158.336 823.688C158.336 836.223 168.493 846.385 181.022 846.385Z" fill="#069BF1"/>
<path d="M311.978 716.39C324.506 716.39 334.663 706.228 334.663 693.693C334.663 681.157 324.506 670.995 311.978 670.995C299.449 670.995 289.292 681.157 289.292 693.693C289.292 706.228 299.449 716.39 311.978 716.39Z" fill="#069BF1"/>
<path d="M311.978 846.385C324.506 846.385 334.663 836.223 334.663 823.688C334.663 811.152 324.506 800.99 311.978 800.99C299.449 800.99 289.292 811.152 289.292 823.688C289.292 836.223 299.449 846.385 311.978 846.385Z" fill="#069BF1"/>
<path d="M441.903 586.395C454.431 586.395 464.588 576.233 464.588 563.698C464.588 551.162 454.431 541 441.903 541C429.374 541 419.217 551.162 419.217 563.698C419.217 576.233 429.374 586.395 441.903 586.395Z" fill="#069BF1"/>
<path d="M441.903 716.39C454.431 716.39 464.588 706.228 464.588 693.693C464.588 681.157 454.431 670.995 441.903 670.995C429.374 670.995 419.217 681.157 419.217 693.693C419.217 706.228 429.374 716.39 441.903 716.39Z" fill="#069BF1"/>
<path d="M441.903 846.385C454.431 846.385 464.588 836.223 464.588 823.688C464.588 811.152 454.431 800.99 441.903 800.99C429.374 800.99 419.217 811.152 419.217 823.688C419.217 836.223 429.374 846.385 441.903 846.385Z" fill="#069BF1"/>
</g>
<defs>
<clipPath id="clip0_8_236">
<rect width="1261" height="1024" fill="white"/>
</clipPath>
</defs>
</svg>
